{"glyphs":{":":{"x_min":0,"x_max":235,"ha":235,"o":"m 52 401 q 58 401 70 398 q 83 395 91 395 q 105 395 110 398 q 115 401 118 401 q 120 401 124 396 q 129 390 129 386 q 127 383 125 379 q 123 375 123 374 q 123 372 126 366 q 129 360 129 356 q 129 349 116 344 q 102 339 93 339 l 93 345 q 86 342 77 339 q 68 336 62 336 q 60 336 57 338 q 54 339 52 341 l 43 391 q 44 393 46 396 q 49 399 52 401 z m 76 364 q 86 364 97 366 q 108 367 108 369 q 108 377 93 377 q 76 377 76 364 z m 51 109 q 54 133 54 135 q 103 135 118 126 q 133 118 133 103 l 132 92 q 132 81 144 77 q 138 75 138 65 q 138 58 117 55 q 96 52 80 52 q 65 52 56 60 q 47 67 47 82 q 47 91 51 109 z m 88 73 q 92 73 97 78 q 102 82 103 82 q 105 82 109 80 q 113 77 114 77 l 115 86 q 115 94 109 98 q 103 102 103 103 q 103 106 105 109 q 107 112 108 113 q 103 110 92 108 q 82 105 77 102 q 72 99 72 90 l 73 82 q 78 87 86 90 q 94 93 98 93 q 96 90 92 84 q 88 77 88 73 z"},"$":{"x_min":0,"x_max":506,"ha":506,"o":"m 384 246 q 384 205 381 189 q 378 173 370 164 q 361 155 332 134 q 331 134 330 129 q 328 124 327 123 q 323 117 306 115 q 296 114 292 112 q 287 110 287 103 l 236 103 l 236 63 q 248 59 248 29 q 248 19 234 17 q 219 15 191 15 l 191 23 l 176 23 l 181 18 l 167 18 q 167 19 160 24 q 154 30 154 36 q 154 37 156 40 q 158 42 161 43 l 166 88 q 166 96 130 108 q 94 120 74 122 l 61 123 q 61 128 57 132 q 53 137 49 139 l 49 184 q 55 185 55 194 l 54 209 q 54 220 64 220 q 66 220 72 216 q 77 212 79 210 q 87 208 110 206 q 137 204 154 200 q 171 195 176 184 l 181 190 q 185 189 194 189 q 222 189 245 199 q 268 209 268 233 q 268 252 248 268 q 228 284 202 294 q 175 304 158 304 q 158 310 108 328 q 64 346 59 351 q 48 362 41 382 q 34 401 34 418 q 34 462 50 492 q 66 522 105 538 q 109 539 120 541 q 132 543 142 547 q 153 551 153 555 l 153 615 q 155 616 158 618 q 162 620 165 620 q 165 610 170 592 q 176 574 181 574 q 184 574 188 576 q 193 578 196 579 l 196 574 q 196 570 183 549 q 170 528 166 528 q 169 526 172 519 q 175 512 179 512 q 181 512 191 518 q 201 525 206 528 l 206 594 l 201 599 q 203 599 204 601 q 206 603 206 605 q 206 608 204 613 q 202 618 201 619 l 221 619 q 224 619 226 594 q 227 570 227 555 l 267 538 l 267 533 q 274 533 282 530 q 290 527 300 527 q 300 526 314 522 q 328 517 340 510 q 351 502 352 488 l 349 473 q 349 468 351 460 q 353 451 353 445 q 353 433 349 430 q 345 427 336 427 q 320 427 306 431 q 291 435 273 443 q 237 457 216 458 q 193 458 162 447 q 130 436 130 417 l 171 377 q 175 378 183 378 q 198 378 213 374 q 228 369 251 361 q 282 348 297 347 l 297 340 q 302 340 315 334 q 328 329 328 324 q 328 322 327 321 q 336 318 348 304 q 361 290 365 290 q 367 290 368 291 q 369 283 374 264 q 380 246 384 246 z m 226 517 q 241 517 246 512 q 252 506 252 492 q 260 492 268 496 q 277 499 277 506 q 277 513 260 518 q 243 523 231 524 q 231 522 228 520 q 226 518 226 517 z m 83 477 q 87 496 95 504 l 90 508 l 64 483 l 60 483 q 60 477 57 465 q 54 453 54 446 q 68 446 74 454 q 79 461 83 477 z m 291 504 q 294 492 304 492 q 304 504 291 504 z m 96 447 l 74 433 q 81 427 91 427 q 98 432 113 442 q 128 453 135 458 q 136 458 138 472 q 140 487 140 493 q 138 491 135 488 q 132 485 130 483 q 122 467 115 460 q 108 454 96 447 z m 227 488 l 221 483 l 231 483 z m 317 454 q 317 452 321 450 q 325 447 327 447 l 327 476 q 318 476 318 454 l 318 455 q 317 455 317 454 q 317 454 317 454 z m 70 398 q 70 413 62 413 q 59 413 56 411 q 54 409 54 405 q 54 377 68 377 q 70 377 70 398 z m 99 377 q 98 377 90 376 q 83 376 74 372 q 76 366 85 366 q 90 366 93 368 q 96 370 99 377 z m 155 351 l 151 357 l 120 347 q 122 343 128 340 q 135 336 139 336 q 141 336 148 342 q 154 347 155 351 z m 247 336 q 241 342 239 342 l 239 343 q 238 343 232 338 q 227 334 221 332 l 229 331 q 240 331 247 336 z m 283 323 q 283 326 277 332 q 271 337 269 337 q 266 334 260 327 q 255 320 252 316 l 257 316 q 273 316 283 323 z m 197 332 q 188 332 166 326 q 168 325 172 320 q 176 316 176 311 q 187 313 192 318 q 197 322 197 332 z m 227 316 l 224 317 q 215 317 215 304 q 225 304 227 316 z m 290 300 q 293 300 301 302 q 309 305 313 305 l 297 316 q 290 304 290 300 z m 318 280 l 332 280 l 332 287 q 330 287 324 285 q 318 283 318 280 z m 327 246 l 338 245 l 342 245 q 353 245 353 252 l 352 255 z m 359 220 l 349 220 q 353 212 353 205 q 353 195 349 195 q 340 195 324 197 q 312 200 297 200 q 304 191 320 182 q 336 172 342 164 q 359 181 359 220 z m 287 174 l 287 180 l 272 180 z m 126 178 q 118 178 114 172 q 110 167 110 159 q 118 159 122 165 q 126 171 126 178 z m 90 155 q 82 155 74 144 q 76 141 82 140 q 89 138 90 137 z m 282 144 l 272 155 l 271 151 q 272 150 275 146 q 278 143 280 143 z m 338 155 l 302 155 q 303 152 306 148 q 310 145 313 144 q 314 143 323 147 q 332 151 338 155 z m 135 146 q 131 146 128 142 q 126 138 126 134 l 135 134 z m 263 128 l 231 139 l 231 137 q 231 127 249 127 z m 191 98 q 203 98 203 113 l 191 113 z m 191 63 q 199 64 203 72 q 207 81 211 83 q 211 85 208 87 q 205 89 203 89 q 198 89 194 80 q 191 70 191 64 z m 221 48 q 218 49 215 56 q 212 63 209 63 q 206 63 186 43 q 192 43 198 42 q 203 41 209 41 q 221 41 221 48 z"},"?":{"x_min":0,"x_max":464,"ha":464,"o":"m 179 289 q 188 294 211 343 q 214 350 221 364 q 228 379 234 388 q 235 390 254 414 q 272 435 281 452 q 290 468 290 492 l 290 498 q 290 506 288 510 q 285 515 277 517 l 284 524 q 282 524 276 529 q 271 534 271 536 q 251 563 210 578 q 170 592 147 592 l 79 548 l 73 536 q 66 547 51 554 q 40 561 34 568 q 29 575 29 590 q 29 614 59 631 q 89 648 128 656 q 166 665 188 665 q 271 665 326 624 q 382 582 382 501 q 382 468 362 416 q 343 363 326 357 q 303 329 260 260 q 244 233 227 209 q 229 205 229 198 q 229 187 221 184 q 229 178 232 167 q 234 156 234 156 q 234 140 186 140 q 172 140 164 144 q 156 147 153 159 q 176 233 179 289 z m 67 573 q 69 574 70 576 q 72 577 73 578 q 85 601 117 612 q 149 623 187 623 q 203 623 209 622 q 224 629 227 633 l 184 635 q 161 635 142 630 q 124 624 96 613 q 78 605 55 597 l 55 592 q 55 580 67 573 z m 221 607 q 241 607 241 622 l 240 628 q 221 622 221 607 z m 239 589 q 264 589 302 610 q 290 628 264 628 q 253 628 246 615 q 239 602 239 589 z m 285 356 q 293 356 306 374 q 319 392 326 406 q 347 445 352 463 q 357 481 357 508 q 357 533 352 548 q 346 563 333 583 l 321 603 l 321 610 q 309 608 296 594 q 284 580 284 569 q 284 563 290 560 q 296 557 304 557 q 314 557 326 560 l 307 542 l 307 539 q 307 536 312 530 q 317 524 321 524 l 326 525 l 326 511 l 339 517 q 336 513 316 470 q 313 464 311 458 q 309 452 307 450 l 314 443 q 301 428 285 401 q 269 374 271 373 q 271 369 274 364 q 278 359 285 356 z m 262 577 q 274 577 284 592 l 280 592 q 273 592 268 588 q 262 584 262 577 z m 221 301 l 231 300 q 246 300 262 310 q 277 319 277 335 q 277 346 268 352 q 260 358 248 358 q 248 350 252 344 q 257 337 265 337 q 249 337 242 332 q 236 327 231 318 q 226 308 221 301 z m 209 240 q 211 240 226 260 q 241 281 246 289 l 246 296 q 227 290 220 286 q 214 282 212 272 q 209 263 209 240 z m 188 49 q 215 49 222 42 q 229 35 231 21 q 233 7 234 0 q 234 -5 238 -22 q 242 -39 242 -51 q 230 -51 210 -48 q 190 -44 182 -43 q 152 -37 147 -37 l 135 -26 l 135 42 q 135 49 188 49 z m 213 -14 q 213 -3 206 8 q 198 18 188 18 q 183 18 174 14 q 166 10 160 10 l 160 -7 l 179 -7 l 179 -14 z"},"<":{"x_min":0,"x_max":427,"ha":427,"o":"m 29 244 q 80 303 116 351 q 153 399 177 448 l 190 448 q 214 448 236 443 q 257 438 257 423 q 239 398 192 329 q 145 260 145 253 l 145 250 q 145 227 152 225 l 238 102 q 246 89 248 84 q 251 78 251 68 q 251 56 224 48 q 196 40 182 40 q 176 40 114 120 q 51 200 36 225 l 35 227 l 36 232 l 29 232 z m 183 398 q 183 398 183 398 q 183 397 184 397 q 187 397 193 401 q 199 405 201 411 l 195 417 q 189 412 183 398 z m 134 325 q 148 325 166 342 q 183 358 183 368 l 183 375 q 168 375 155 358 q 142 342 134 325 z m 104 270 l 115 270 l 134 300 l 131 301 q 119 301 112 292 q 104 282 104 270 z m 64 230 q 66 230 78 230 q 90 229 100 232 q 109 236 109 244 q 109 250 106 256 q 103 262 96 263 q 82 263 73 252 q 64 242 64 230 z m 77 207 q 90 207 96 210 q 102 214 109 225 q 89 225 77 207 z m 106 175 q 117 175 126 181 q 134 187 134 197 q 134 206 133 210 q 132 214 127 220 q 126 219 114 214 q 101 209 96 201 l 121 201 q 106 192 106 175 z m 127 164 l 134 163 q 140 163 146 166 q 153 168 153 173 q 153 176 150 180 q 146 183 143 183 q 136 183 132 174 q 128 165 127 164 z m 146 152 l 142 152 q 131 152 127 146 l 134 139 z m 169 94 q 173 90 178 84 q 182 78 183 78 l 208 90 l 189 90 q 191 92 193 98 q 195 105 195 109 q 194 113 180 130 q 167 146 165 146 q 151 146 139 133 q 141 126 154 126 q 162 126 164 127 l 152 115 q 157 110 169 94 z"},"'":{"x_min":0,"x_max":193,"ha":193,"o":"m 21 603 q 21 634 30 648 q 38 662 65 662 q 82 662 102 658 q 121 653 121 643 q 121 597 107 505 q 99 453 96 428 q 95 419 95 403 q 95 387 88 380 q 82 372 65 372 q 20 372 20 497 q 20 520 21 536 q 22 552 22 561 z m 47 570 q 64 570 78 582 q 93 593 93 610 q 93 627 80 630 q 67 633 40 633 q 40 617 44 602 q 49 588 53 589 q 53 584 50 578 q 48 571 47 570 z m 59 539 q 75 539 80 547 q 84 555 84 575 q 71 573 47 545 q 49 541 52 540 q 55 539 59 539 z m 59 410 q 63 414 74 467 q 75 475 76 480 q 77 486 78 489 q 78 495 74 500 q 71 504 65 504 q 63 504 59 502 q 66 510 70 516 q 73 522 73 530 q 58 530 52 526 q 46 523 45 516 q 44 508 44 489 l 59 489 q 52 482 52 467 l 53 452 q 54 442 56 429 q 58 416 59 410 z"},"=":{"x_min":0,"x_max":526,"ha":526,"o":"m 141 278 q 93 276 71 276 q 62 276 62 291 q 62 310 64 318 q 65 327 73 341 q 74 336 78 326 q 82 316 86 316 q 88 317 95 320 q 102 323 109 327 q 101 327 95 330 q 89 334 89 341 l 104 347 l 341 347 l 392 337 l 396 331 l 382 331 q 382 325 384 312 q 387 300 387 293 q 387 282 384 278 q 381 275 371 271 q 329 281 264 281 l 213 281 q 175 281 141 278 z m 104 312 l 116 310 l 120 310 q 136 310 139 321 q 137 323 130 325 q 123 327 118 327 q 114 325 109 320 q 104 314 104 312 z m 295 323 q 259 323 259 306 l 321 306 l 337 321 l 319 322 z m 164 306 q 173 306 184 310 q 195 314 200 321 l 149 321 l 139 312 l 145 311 q 153 311 159 317 q 159 316 164 306 z m 247 321 q 231 321 216 318 q 200 315 195 306 l 202 306 q 220 306 238 308 q 256 311 256 318 l 255 321 z m 337 306 l 363 306 q 363 317 354 317 q 344 317 337 306 z m 76 199 q 76 214 80 222 q 84 230 98 230 l 177 228 l 250 226 l 256 226 q 259 225 281 220 q 303 215 312 215 q 319 215 330 217 q 340 219 344 220 q 366 226 377 226 q 386 226 390 220 q 393 214 393 198 q 393 166 386 154 q 379 143 351 143 l 326 144 q 319 144 292 149 q 281 150 271 152 q 261 154 255 154 l 183 155 l 109 154 q 92 154 85 159 q 78 164 77 172 q 76 180 76 199 z m 139 185 l 149 185 q 160 186 176 189 q 193 192 195 194 l 195 202 q 172 202 160 200 q 149 197 139 185 z m 111 185 q 115 186 122 189 q 129 192 134 194 q 134 202 102 202 q 102 185 111 185 z m 205 190 l 214 189 q 231 189 231 201 q 228 201 219 196 q 210 192 205 190 z m 246 189 q 253 189 255 194 l 250 200 l 240 190 z m 306 190 q 301 195 298 195 l 296 194 l 296 190 z m 346 174 q 368 174 368 185 q 368 191 364 193 q 360 195 351 195 q 345 195 328 191 q 312 187 310 185 l 310 180 q 317 180 328 177 q 340 174 346 174 z m 266 185 l 282 185 l 282 191 q 268 191 266 185 z"},"a":{"x_min":0,"x_max":500,"ha":500,"o":"m 413 77 q 434 71 444 64 q 454 58 454 45 q 454 2 429 -12 q 398 -2 386 0 q 374 2 341 26 q 324 38 322 38 q 314 38 300 28 q 285 18 281 18 q 257 7 238 1 q 219 -5 198 -5 q 159 -5 119 11 q 79 27 52 60 q 25 92 25 140 q 25 153 32 182 q 40 210 46 223 q 65 250 101 263 q 137 276 195 286 q 241 295 261 302 q 281 310 281 325 q 281 355 262 376 q 242 396 207 396 q 193 396 180 392 q 167 388 146 379 q 116 365 102 365 q 76 365 76 418 q 76 454 105 466 q 134 477 180 477 q 189 477 204 475 q 218 473 225 472 q 252 467 269 467 l 292 468 q 317 468 317 449 q 329 449 335 446 q 341 442 341 431 q 369 431 381 385 q 393 339 393 299 q 393 272 385 222 q 377 172 377 148 q 377 142 379 130 q 381 119 381 113 l 380 104 l 386 93 q 386 87 392 84 q 398 81 413 77 z m 227 429 q 240 424 256 424 q 256 447 245 447 q 241 447 236 446 q 232 444 227 444 l 201 445 q 168 445 150 442 q 132 440 102 430 q 102 426 104 418 q 107 410 109 408 q 120 408 144 416 q 169 423 176 433 l 186 425 q 187 425 192 429 q 197 433 201 433 q 213 433 227 429 z m 312 423 q 312 433 285 433 q 276 433 269 426 q 262 418 262 408 l 272 407 q 282 407 297 412 q 312 416 312 423 z m 300 381 q 300 378 304 374 q 308 370 313 370 q 327 370 332 374 q 338 378 338 388 q 338 395 332 404 q 327 413 320 413 z m 311 336 q 330 336 349 365 q 346 364 335 361 q 324 358 318 352 q 311 345 311 336 z m 352 343 q 346 343 334 336 q 323 328 318 321 l 355 315 q 355 317 358 322 q 361 327 361 329 q 361 333 358 338 q 354 343 352 343 z m 329 303 l 303 309 l 294 298 z m 342 260 q 336 250 327 246 q 322 243 320 239 q 317 235 317 223 q 317 209 322 194 q 326 176 326 165 q 326 155 323 141 q 345 146 355 185 q 365 224 365 268 q 365 294 362 304 q 352 304 332 295 q 313 286 300 278 q 302 272 308 270 q 313 268 325 266 q 337 263 342 260 z m 251 260 q 256 258 266 256 q 275 254 281 253 q 284 254 290 256 q 296 258 300 260 q 295 263 286 266 q 277 270 273 271 q 267 271 260 268 q 253 265 251 260 z m 223 269 l 195 255 l 232 260 z m 116 204 l 89 204 q 93 210 104 215 q 116 220 129 224 q 150 231 163 238 q 176 244 182 253 l 178 253 q 159 253 146 250 q 134 247 133 235 q 125 232 112 228 q 98 223 90 216 q 81 210 77 199 q 79 196 89 191 q 99 186 102 186 q 104 186 110 194 q 116 201 116 204 z m 294 134 l 294 138 q 294 184 284 210 q 275 236 239 236 q 234 236 224 232 q 214 227 210 227 q 199 227 182 215 q 164 203 158 199 q 152 195 148 186 q 143 178 139 170 q 133 156 128 148 q 122 141 113 141 q 113 110 129 92 q 145 74 176 74 q 192 74 221 82 q 250 90 272 104 q 294 117 294 134 z m 58 166 q 65 166 72 170 q 79 174 84 179 q 80 181 74 183 q 69 185 65 186 q 62 186 60 178 q 58 170 58 166 z m 99 165 q 99 166 94 166 q 85 166 74 163 q 62 160 59 155 l 96 155 q 99 158 99 165 z m 328 122 q 341 122 346 127 q 351 132 351 145 q 343 145 336 138 q 328 130 328 122 z m 52 133 l 53 130 q 56 130 61 133 q 66 136 66 138 l 65 143 q 62 143 57 139 q 52 135 52 133 z m 65 117 q 86 117 86 132 q 73 132 65 117 z m 328 93 q 332 95 340 102 q 348 108 348 111 q 348 114 344 114 q 338 114 330 110 q 321 105 318 100 q 319 98 322 96 q 325 93 328 93 z m 85 109 q 75 109 66 105 q 56 101 53 93 q 54 89 60 84 q 65 80 68 79 q 75 79 80 91 q 85 103 85 109 z m 347 66 q 364 66 364 92 q 358 92 349 87 q 340 82 340 75 q 340 72 342 69 q 345 66 347 66 z m 99 89 q 86 89 84 75 q 99 77 99 89 z m 301 78 l 300 87 q 297 86 292 81 q 288 76 287 74 q 287 72 288 70 q 289 69 289 69 l 275 69 l 275 48 q 285 48 293 58 q 301 67 301 78 z m 263 63 q 247 63 230 52 q 213 42 213 26 l 256 37 q 258 37 260 48 q 262 58 263 63 z m 366 55 l 351 55 q 351 46 358 42 q 366 47 366 55 z m 395 46 q 390 54 386 54 q 381 54 378 49 q 375 44 375 39 q 392 39 395 46 z m 150 30 q 150 35 142 43 q 135 51 131 51 q 124 51 120 43 q 124 41 134 36 q 145 30 150 30 z m 194 37 l 189 38 q 177 38 170 26 q 183 18 185 18 q 189 18 192 24 q 194 31 194 37 z m 424 16 q 424 25 422 31 q 421 37 414 37 q 406 37 398 34 q 389 31 386 26 q 386 16 424 16 z"},"L":{"x_min":0,"x_max":477,"ha":477,"o":"m 81 308 q 68 347 68 463 l 69 573 q 62 578 61 592 q 60 605 60 633 q 60 646 62 648 l 75 660 l 155 660 l 162 654 q 163 653 169 613 l 173 592 q 180 547 180 472 q 180 421 170 321 q 160 221 160 170 q 160 151 161 138 q 162 125 162 123 l 173 110 q 167 109 167 101 q 167 96 168 92 q 170 88 170 85 q 183 84 204 84 q 225 84 246 83 l 310 81 q 320 73 346 73 q 373 73 411 81 q 443 87 462 87 q 462 77 466 59 q 467 55 468 48 q 469 40 469 34 q 469 25 459 16 q 449 6 445 6 l 408 12 q 375 -11 320 -11 q 305 -11 279 -9 l 246 -8 l 188 -9 q 135 -9 100 2 q 65 12 65 42 l 65 142 l 60 142 q 62 161 68 216 q 74 272 81 308 z m 111 561 q 98 541 98 526 q 125 526 138 530 q 150 535 150 556 q 150 636 131 636 q 127 636 94 629 q 96 592 107 592 q 110 592 112 593 q 114 594 116 594 q 120 594 123 587 q 121 581 111 561 z m 99 512 l 105 511 q 111 511 114 512 q 117 513 119 518 l 116 518 q 105 518 99 512 z m 98 442 q 98 428 99 425 q 124 433 137 460 q 150 487 150 515 q 136 515 122 502 q 108 490 105 488 q 105 480 114 476 q 124 472 124 466 l 123 463 q 108 463 103 459 q 98 455 98 442 z m 119 394 q 141 394 147 406 q 153 417 153 444 l 143 444 l 99 396 q 105 394 119 394 z m 124 379 l 123 382 l 99 376 l 99 369 q 107 369 116 371 q 124 373 124 379 z m 112 345 l 143 345 l 143 372 q 138 372 126 360 q 115 348 112 345 z m 123 326 l 105 326 l 105 312 q 112 312 117 318 q 122 325 123 326 z m 110 239 q 105 232 102 224 q 98 216 98 208 q 128 208 136 226 q 144 243 144 277 l 143 321 q 139 318 128 310 q 117 303 111 294 q 105 285 105 274 q 105 270 112 268 q 120 265 120 262 q 120 255 116 248 q 111 240 110 239 z m 94 105 q 94 97 99 67 q 118 77 130 92 q 116 98 112 105 q 118 105 124 108 q 131 111 131 113 q 131 117 123 123 q 123 126 128 136 q 133 146 133 154 l 105 154 q 125 157 132 169 q 138 181 138 204 q 113 204 102 196 q 91 189 89 176 q 87 162 87 129 q 87 125 90 116 q 94 107 94 105 z m 137 67 q 137 70 134 75 q 132 80 130 81 l 99 55 q 137 55 137 67 z m 113 30 q 131 30 139 34 q 147 38 155 55 l 149 56 q 133 56 118 52 q 104 48 99 37 q 100 30 113 30 z m 192 24 q 201 24 212 36 q 222 48 223 49 l 218 49 q 203 49 192 42 l 192 53 q 147 53 147 34 q 160 34 174 32 q 189 29 192 24 z m 227 22 q 256 22 266 37 q 267 33 272 28 q 278 24 280 24 q 288 24 296 34 q 305 45 305 53 q 227 53 227 22 z m 307 23 q 310 23 320 27 q 329 31 334 31 q 335 30 337 28 q 339 25 340 24 q 361 24 400 32 q 440 39 440 50 q 419 50 379 46 q 337 42 315 42 l 297 24 z"},"3":{"x_min":0,"x_max":528,"ha":528,"o":"m 456 109 l 457 95 q 457 81 436 56 q 415 30 388 10 q 361 -10 343 -10 l 244 -12 q 206 -12 180 -11 q 153 -10 148 -10 q 115 -6 80 2 q 44 9 44 15 l 44 20 l 30 20 q 30 80 68 132 l 74 133 q 79 133 88 123 q 98 113 100 113 q 103 113 107 116 q 111 118 111 119 q 175 82 238 82 q 295 82 324 102 q 352 121 352 172 q 352 198 343 218 q 334 239 315 267 q 318 270 318 272 q 318 282 292 290 q 266 298 218 309 q 195 314 178 319 q 160 324 160 327 l 161 329 q 160 329 148 323 q 130 326 120 330 q 111 335 111 344 q 111 354 120 380 q 130 406 136 409 q 139 409 149 408 q 159 408 174 408 q 236 408 285 421 q 334 434 334 471 q 334 506 316 533 q 297 560 265 575 q 253 577 226 577 q 200 577 160 566 q 155 565 134 560 q 113 555 94 555 q 94 567 81 589 q 67 615 67 629 q 67 638 108 647 q 150 656 202 662 q 254 669 273 669 q 349 669 390 615 q 432 561 432 483 q 432 459 426 447 l 413 426 q 383 382 383 368 q 383 365 394 358 q 404 351 407 348 q 447 312 458 266 q 469 219 469 146 q 469 129 462 122 q 456 114 456 109 z m 265 637 q 265 640 256 640 q 247 640 247 638 q 247 635 256 635 q 264 635 265 637 z m 290 600 q 306 602 328 607 q 350 612 352 612 q 349 617 345 621 q 341 625 336 625 q 319 624 304 616 q 290 609 290 600 z m 181 616 q 168 615 158 612 q 149 609 142 600 l 159 600 q 170 600 176 603 q 181 606 181 616 z m 104 606 q 104 612 99 612 q 94 612 94 606 q 94 600 99 600 q 104 600 104 606 z m 228 612 l 210 612 q 212 611 216 609 q 219 607 222 607 q 224 607 226 609 q 228 611 228 612 z m 352 525 q 359 507 363 502 l 358 489 l 370 483 q 363 483 363 471 l 399 458 q 404 458 408 484 q 413 511 413 521 q 413 534 404 534 q 401 534 398 533 q 394 532 391 532 q 384 532 383 539 q 386 538 391 538 q 403 538 403 553 q 403 563 402 563 l 370 600 l 364 601 q 356 601 338 597 q 313 592 300 592 q 300 588 309 584 q 318 580 328 578 q 337 576 340 575 l 327 570 q 337 564 352 525 z m 178 582 q 178 584 176 586 q 175 589 173 589 q 171 589 170 586 q 168 584 168 582 q 168 575 173 575 q 178 575 178 582 z m 439 125 q 439 137 432 144 l 452 144 q 452 205 446 244 q 440 282 416 308 q 391 335 341 335 q 329 335 322 334 q 323 334 336 337 q 349 340 352 348 q 346 354 345 354 q 339 354 336 352 q 334 349 333 348 l 296 360 q 326 367 358 390 q 390 413 390 440 q 390 447 379 454 q 368 461 360 461 q 360 419 303 397 q 308 393 308 385 q 308 380 302 377 q 296 374 284 370 q 266 364 259 360 l 265 354 l 228 354 l 235 360 l 210 360 l 222 373 l 191 373 l 191 383 q 141 383 141 363 q 141 350 162 346 q 183 343 205 342 q 227 342 235 341 q 256 336 282 322 q 302 312 316 307 q 330 302 345 302 q 345 294 342 291 q 340 288 340 286 q 340 283 342 280 q 344 276 345 274 l 358 279 l 352 286 l 395 286 q 394 281 390 280 q 387 279 381 279 l 378 279 q 362 279 358 267 q 364 266 371 218 q 374 192 377 187 q 379 182 390 174 q 401 166 407 163 l 383 163 l 383 107 q 377 102 363 82 l 363 95 q 355 90 331 75 q 307 60 296 45 l 296 59 q 287 59 275 55 q 263 51 256 51 q 251 52 238 54 q 225 57 216 58 q 204 58 188 46 q 171 34 171 20 q 178 20 186 23 q 194 26 196 27 q 210 33 216 33 l 216 13 q 237 13 256 20 q 276 27 278 45 q 281 42 282 34 q 283 26 285 20 q 287 15 293 15 q 310 15 316 20 q 322 24 326 34 q 329 45 333 51 l 340 45 q 348 53 358 70 l 358 64 q 354 55 350 48 q 347 42 346 38 q 344 33 344 22 q 360 22 382 40 q 405 57 422 80 q 439 103 439 119 z m 247 378 l 255 378 q 271 378 278 385 l 269 385 q 261 385 256 384 q 252 383 247 378 z m 404 236 l 395 237 q 395 242 398 247 q 402 252 407 252 l 407 243 l 420 243 q 418 236 404 236 z m 389 218 q 394 217 406 214 q 419 210 426 206 l 412 206 q 402 206 395 208 q 388 211 383 218 z m 413 181 l 407 175 l 389 193 q 405 193 413 181 z m 85 33 q 92 33 102 42 q 113 51 117 61 l 99 61 q 101 68 111 73 q 121 78 124 82 q 120 89 108 94 q 96 100 93 101 q 79 101 70 80 q 62 58 62 42 q 62 33 85 33 z m 389 101 q 403 80 403 79 l 402 77 q 394 80 391 84 q 388 88 388 95 z m 161 27 l 191 58 q 186 60 176 64 q 167 69 161 70 q 147 70 128 52 q 109 34 109 20 q 138 20 156 44 q 153 37 153 27 z m 161 51 l 156 44 z m 111 2 l 111 8 l 87 8 z"},";":{"x_min":0,"x_max":278,"ha":278,"o":"m 190 441 l 190 374 l 178 361 l 142 359 q 118 356 104 356 q 102 355 98 352 q 95 350 92 349 l 89 349 q 87 349 84 350 q 80 352 80 356 l 80 454 q 83 454 108 458 q 134 461 154 461 q 171 461 180 457 q 190 453 190 441 z m 110 385 q 119 385 134 402 q 148 418 148 430 q 134 430 128 426 q 122 421 116 412 q 107 398 98 393 q 100 385 110 385 z m 147 386 l 154 385 q 167 385 167 402 l 166 411 q 161 407 156 400 q 150 392 147 386 z m 60 -77 q 59 -77 55 -71 q 66 -55 73 -30 q 80 -6 80 13 q 80 16 76 19 q 71 22 67 22 l 67 120 l 172 120 q 174 120 179 92 q 184 65 185 51 q 185 33 160 -3 q 134 -39 116 -52 q 104 -61 91 -70 q 78 -80 73 -83 l 67 -83 l 67 -76 q 64 -76 62 -76 q 61 -77 60 -77 z m 116 60 q 128 60 136 70 q 145 80 145 94 q 113 94 104 65 l 129 78 l 130 74 q 129 72 124 66 q 120 60 116 60 z m 84 61 q 84 59 86 56 q 89 53 92 53 q 98 62 98 72 q 98 82 98 83 q 93 81 89 74 q 85 68 85 61 z m 110 10 l 116 9 q 122 9 128 16 q 134 22 139 30 q 152 49 160 49 q 162 49 166 47 l 160 83 q 158 83 144 66 q 129 50 123 41 l 129 34 q 114 23 110 10 z m 98 -21 l 101 -22 q 103 -21 110 -18 q 116 -14 116 -9 q 102 -16 98 -21 z"},"J":{"x_min":0,"x_max":281,"ha":281,"o":"m 94 -62 l 95 -9 q 95 20 90 57 q 86 99 86 120 q 86 145 88 158 q 89 171 94 191 l 87 641 q 87 645 92 652 q 96 658 100 660 q 104 659 130 659 q 150 659 162 663 q 175 667 183 667 q 188 667 193 660 q 198 653 198 648 q 197 642 195 634 q 193 627 192 623 l 192 570 q 192 521 198 481 q 192 474 192 461 l 193 447 q 193 441 192 439 q 192 436 186 414 q 180 390 180 388 q 180 384 184 374 q 188 365 188 353 q 188 340 184 338 q 180 335 180 333 q 181 331 184 328 q 186 324 187 321 q 187 316 183 303 q 179 290 179 266 q 179 207 192 204 l 192 99 l 187 92 l 192 85 q 190 77 189 66 q 188 54 187 49 l 187 43 q 188 35 190 22 q 192 8 192 0 q 192 -97 158 -127 q 125 -157 94 -160 q 63 -164 63 -167 l 7 -167 l 7 -111 q 7 -110 28 -105 q 48 -100 68 -90 q 88 -79 94 -62 z m 175 536 q 175 555 167 595 q 162 620 162 630 l 106 641 l 105 630 q 105 602 119 602 q 124 602 130 605 q 128 599 123 588 q 118 577 117 574 l 134 574 q 134 568 124 558 q 114 547 112 536 l 119 536 l 155 574 l 155 562 l 119 512 l 119 499 q 142 499 158 508 q 175 516 175 536 z m 118 472 l 119 463 l 149 493 q 133 492 126 488 q 118 484 118 472 z m 123 441 q 123 439 124 439 q 154 440 164 447 q 174 454 174 481 q 173 482 171 487 q 169 492 168 493 q 154 480 138 464 q 123 448 123 441 z m 116 398 q 126 398 141 408 q 156 419 156 428 l 155 431 q 130 429 123 424 q 116 419 116 398 z m 144 363 l 147 363 q 162 363 162 370 l 162 414 q 157 409 140 394 q 124 378 124 370 q 124 365 131 364 q 138 363 144 363 z m 157 345 q 157 350 155 352 l 124 345 l 124 320 q 135 320 146 328 q 157 335 157 345 z m 116 226 q 141 226 150 258 q 159 290 159 323 q 150 323 144 316 q 137 309 132 301 q 126 293 124 290 q 129 281 149 277 q 129 277 122 261 q 116 245 116 226 z m 130 182 q 128 182 126 183 q 125 184 123 184 q 117 184 117 170 q 144 170 158 192 q 171 215 171 244 q 156 244 143 232 q 130 220 130 204 l 138 204 q 138 182 130 182 z m 168 148 l 168 180 q 155 180 143 168 q 131 157 119 142 l 124 135 q 130 135 149 140 q 168 145 168 148 z m 116 102 q 139 102 155 124 l 141 125 q 126 125 121 120 q 116 116 116 102 z m 124 85 l 124 71 q 145 71 152 73 q 160 75 162 83 q 164 91 164 112 q 159 112 142 101 q 124 90 124 85 z m 130 -37 q 137 -35 150 -26 q 162 -16 162 -9 q 162 -6 150 -2 q 139 2 137 6 q 145 4 148 4 q 159 4 162 12 q 164 20 164 38 q 156 38 150 30 q 143 22 141 22 l 137 24 q 139 31 144 36 q 149 41 150 42 q 163 53 163 64 q 151 64 138 62 q 124 60 124 56 l 125 30 q 125 14 122 4 q 119 -7 119 -12 q 119 -15 123 -24 q 127 -33 130 -37 z m 137 -50 q 152 -50 157 -48 q 162 -45 162 -35 q 145 -35 137 -50 z m 137 -86 q 139 -87 142 -88 q 145 -88 146 -88 q 162 -88 162 -77 q 162 -74 159 -74 q 151 -74 146 -76 q 141 -79 137 -86 z m 86 -125 q 86 -126 87 -126 q 90 -126 110 -117 q 132 -107 137 -106 l 122 -105 q 86 -105 86 -125 z"},"V":{"x_min":0,"x_max":630,"ha":630,"o":"m 530 428 q 530 413 515 379 q 509 364 504 348 q 498 332 498 320 q 498 314 499 311 q 486 284 474 251 q 472 246 460 217 q 449 188 432 163 q 425 154 413 108 q 405 78 400 64 q 394 49 387 49 q 387 19 371 10 q 355 0 335 -2 q 315 -5 314 -9 l 268 -9 q 268 -5 264 -2 q 260 0 256 1 q 253 2 252 3 q 237 10 234 15 q 227 48 214 79 q 201 110 178 155 q 166 177 161 188 q 149 213 142 238 q 134 263 123 310 q 114 350 106 376 q 99 403 87 428 q 74 441 66 462 q 57 484 51 505 q 45 526 43 534 q 40 545 34 560 q 29 575 24 589 l 13 620 q 8 622 6 625 q 5 628 5 633 q 5 639 12 646 q 18 652 25 652 l 92 652 q 95 652 96 647 q 98 642 98 637 q 98 614 108 588 q 117 563 128 542 q 138 521 141 515 q 144 509 174 421 q 220 285 254 196 q 289 108 306 108 q 310 108 340 186 q 371 263 371 271 l 370 275 q 388 328 426 434 q 476 574 499 644 q 502 654 518 656 q 535 658 561 658 q 579 658 589 656 q 599 653 599 644 q 577 572 561 526 q 545 480 524 435 q 526 435 528 432 q 530 430 530 428 z m 513 585 q 506 571 502 560 q 498 550 498 539 q 509 539 526 548 q 543 557 543 567 q 543 571 538 574 q 532 576 530 577 q 533 584 543 584 l 549 583 q 564 613 564 626 l 526 626 q 526 613 520 600 q 514 587 513 585 z m 67 546 q 72 546 80 552 q 88 557 88 562 q 87 564 82 570 q 77 576 73 577 q 78 578 79 581 q 80 584 80 589 q 80 600 72 611 q 65 622 55 622 q 53 622 49 622 q 45 621 43 620 q 43 611 53 583 q 63 555 67 546 z m 73 518 l 79 518 q 105 518 105 531 q 105 533 103 540 q 101 546 98 552 q 73 543 73 518 z m 519 508 q 528 508 533 517 q 538 526 538 536 l 537 546 q 524 538 512 528 q 499 519 494 515 q 510 508 519 508 z m 89 489 q 99 489 104 495 q 109 501 109 511 q 81 511 73 503 q 75 500 81 495 q 87 490 89 489 z m 471 477 q 489 477 506 496 q 502 498 497 500 q 492 502 488 503 q 471 503 471 477 z m 130 428 q 123 421 123 404 l 149 404 q 149 423 140 432 q 130 442 129 444 q 130 446 132 451 q 133 456 135 460 l 117 496 q 110 491 104 483 q 98 475 98 468 q 98 462 106 458 q 115 454 117 453 q 115 453 110 448 q 105 444 105 442 q 105 433 109 430 q 113 427 122 427 q 128 427 130 428 z m 518 485 q 487 470 463 442 q 467 442 480 435 q 492 428 496 428 q 504 428 511 454 q 518 479 518 485 z m 494 417 q 486 418 474 422 q 461 427 459 428 q 454 428 450 422 q 447 417 444 406 q 440 395 437 392 q 449 392 468 399 q 487 406 494 417 z m 494 398 q 491 398 472 389 q 454 380 445 373 q 445 366 457 366 q 475 366 480 370 q 485 374 488 384 q 490 393 494 398 z m 161 353 l 173 354 q 151 376 151 392 l 129 392 q 129 376 137 364 q 145 353 161 353 z m 433 379 q 433 373 437 373 q 443 373 443 379 q 443 385 437 385 q 433 385 433 379 z m 426 361 q 420 350 420 333 q 463 350 463 354 q 433 361 426 361 z m 477 344 q 449 344 426 324 q 426 316 440 316 q 465 316 471 320 q 477 325 477 344 z m 151 318 q 155 300 161 293 q 173 293 176 300 q 180 308 180 321 q 180 335 176 339 q 171 343 162 343 l 141 342 q 147 334 151 318 z m 184 261 l 204 262 q 201 291 191 305 q 182 298 174 289 q 166 280 166 272 q 166 261 184 261 z m 405 278 q 417 278 428 284 q 440 289 456 299 q 432 305 425 305 q 416 305 410 297 q 405 289 405 278 z m 457 280 l 456 287 q 454 286 428 276 q 401 265 401 259 q 401 256 408 250 q 414 245 420 244 l 411 244 q 396 244 389 250 q 381 243 381 230 l 382 213 q 413 226 435 242 q 457 258 457 280 z m 189 200 q 195 200 206 196 q 218 192 222 192 l 222 226 l 197 226 q 207 228 207 250 l 170 250 q 170 238 175 223 q 179 211 179 202 l 179 194 q 182 200 189 200 z m 433 218 l 432 226 l 382 194 l 382 184 q 402 184 418 192 q 433 200 433 218 z m 241 143 q 241 155 235 168 q 229 182 220 182 q 196 182 196 173 q 196 156 210 150 q 223 143 241 143 z m 370 168 q 375 168 382 175 l 370 175 z m 407 170 l 370 157 l 391 156 q 399 156 403 159 q 407 162 407 170 z m 382 132 l 382 139 l 358 139 l 358 120 z m 261 53 l 268 53 q 282 53 289 59 q 269 70 246 132 l 216 132 q 221 120 232 98 q 244 77 246 72 q 246 60 250 56 q 253 53 261 53 z m 382 113 l 376 114 q 367 114 362 107 q 356 100 356 91 q 366 91 373 97 q 380 103 382 113 z m 365 84 q 363 86 363 86 q 361 86 348 74 q 336 62 321 53 l 321 45 q 332 45 348 59 q 365 73 365 84 z m 321 65 l 300 54 q 295 51 279 43 q 263 35 264 31 q 264 28 266 25 q 269 22 274 22 q 284 22 294 33 q 305 44 312 54 q 319 63 321 65 z m 365 61 l 364 65 l 352 53 q 355 53 360 56 q 365 59 365 61 z m 352 27 l 352 35 l 327 27 z"},"\"":{"x_min":0,"x_max":399,"ha":399,"o":"m 22 603 q 22 634 30 648 q 39 662 66 662 q 83 662 102 658 q 122 653 122 643 q 122 597 108 505 q 100 453 97 428 q 96 419 96 403 q 96 387 90 380 q 83 372 66 372 q 21 372 21 497 q 21 520 22 536 q 23 552 23 561 z m 202 603 q 202 634 210 648 q 219 662 246 662 q 263 662 282 658 q 302 653 302 643 q 302 597 288 505 q 280 453 277 428 q 276 419 276 403 q 276 387 270 380 q 263 372 246 372 q 201 372 201 497 q 201 520 202 536 q 203 552 203 561 z m 48 570 q 65 570 80 582 q 94 593 94 610 q 94 627 81 630 q 68 633 41 633 q 41 617 46 602 q 50 588 54 589 q 54 584 52 578 q 49 571 48 570 z m 228 570 q 245 570 260 582 q 274 593 274 610 q 274 627 261 630 q 248 633 221 633 q 221 617 226 602 q 230 588 234 589 q 234 584 232 578 q 229 571 228 570 z m 60 539 q 76 539 80 547 q 85 555 85 575 q 72 573 48 545 q 50 541 53 540 q 56 539 60 539 z m 240 539 q 256 539 260 547 q 265 555 265 575 q 252 573 228 545 q 230 541 233 540 q 236 539 240 539 z m 60 410 q 64 414 75 467 q 76 475 77 480 q 78 486 79 489 q 79 495 76 500 q 72 504 66 504 q 64 504 60 502 q 67 510 70 516 q 74 522 74 530 q 59 530 53 526 q 47 523 46 516 q 45 508 45 489 l 60 489 q 53 482 53 467 l 54 452 q 55 442 57 429 q 59 416 60 410 z m 240 410 q 244 414 255 467 q 256 475 257 480 q 258 486 259 489 q 259 495 256 500 q 252 504 246 504 q 244 504 240 502 q 247 510 250 516 q 254 522 254 530 q 239 530 233 526 q 227 523 226 516 q 225 508 225 489 l 240 489 q 233 482 233 467 l 234 452 q 235 442 237 429 q 239 416 240 410 z"},"7":{"x_min":0,"x_max":482,"ha":482,"o":"m 477 642 l 477 586 l 373 389 q 370 373 361 358 q 352 342 351 339 q 344 327 338 314 q 332 302 330 290 q 321 275 293 221 q 265 167 249 136 q 238 112 228 86 q 217 58 209 40 q 201 23 188 6 q 188 2 189 0 q 190 -3 194 -6 l 181 -18 l 114 -18 q 104 -18 102 -14 q 100 -9 100 1 l 101 12 l 244 352 q 255 417 298 518 l 293 537 q 292 538 220 544 q 149 549 129 549 q 124 549 95 548 q 66 548 46 552 q 27 557 27 567 q 27 585 34 604 q 40 628 40 639 l 39 648 q 59 653 79 653 q 142 653 202 650 q 284 648 323 648 q 356 648 387 651 q 427 653 447 653 q 452 652 464 648 q 477 645 477 642 z m 280 611 q 276 610 268 610 q 256 610 232 614 q 226 615 216 616 q 205 617 196 617 q 184 617 164 607 q 148 598 138 598 q 152 607 152 619 q 130 619 104 616 q 78 614 70 611 l 70 616 l 52 616 l 52 586 q 52 586 52 586 q 53 587 54 587 q 60 586 75 582 q 90 578 97 578 q 97 578 102 582 q 107 587 126 592 l 120 580 l 212 580 q 216 583 222 588 q 229 592 231 592 q 233 592 238 589 q 242 586 246 586 q 253 586 264 594 q 274 603 280 611 z m 452 616 l 412 616 q 412 610 419 609 q 426 608 430 606 q 435 605 435 599 q 435 587 427 578 q 419 569 403 555 q 426 555 439 573 q 452 591 452 616 z m 353 580 q 372 585 382 591 q 393 597 403 611 q 401 612 388 612 q 373 612 363 604 q 353 596 353 580 z m 322 505 q 343 505 355 520 q 367 534 367 555 l 360 555 q 351 555 336 536 q 322 517 322 505 z m 403 506 q 355 506 348 488 l 364 489 q 383 489 392 481 q 395 502 403 506 z m 302 450 q 320 450 330 463 q 304 463 302 450 z m 369 453 q 351 453 330 438 q 333 436 341 434 q 349 432 353 432 q 360 433 364 440 q 369 446 369 453 z m 286 389 q 311 399 330 414 l 293 414 q 290 414 288 404 q 286 394 286 389 z m 343 396 q 339 396 324 388 q 309 379 298 370 q 299 364 310 364 q 324 364 334 374 q 343 383 343 396 z m 312 334 q 309 333 302 328 q 294 323 288 322 q 282 320 275 320 q 279 327 290 334 q 302 340 305 346 l 275 346 q 271 346 268 332 q 266 319 266 312 l 285 311 q 299 311 306 316 q 312 321 312 334 z m 260 242 q 277 255 286 265 q 294 275 294 290 l 279 290 q 279 297 277 300 q 275 303 268 303 q 259 303 254 297 q 249 291 249 281 q 249 272 252 267 q 254 262 262 259 q 249 259 241 248 q 233 238 229 226 q 225 214 225 210 l 231 204 q 206 193 206 173 q 207 171 208 169 q 210 167 212 166 q 205 165 188 134 q 172 104 158 68 q 144 33 144 22 q 144 15 148 14 q 153 12 161 12 q 174 12 178 23 q 183 34 186 57 q 189 77 193 88 q 197 100 206 105 l 200 111 q 216 120 216 136 l 206 136 q 213 141 218 148 q 224 156 228 164 q 240 184 249 192 l 244 198 q 254 204 261 217 q 268 230 268 241 q 253 229 237 222 q 246 233 260 242 z"},"S":{"x_min":0,"x_max":560,"ha":560,"o":"m 116 -3 q 113 -3 111 -4 q 109 -5 107 -5 q 81 -5 62 14 q 42 32 33 56 q 48 56 54 68 q 61 81 67 103 q 71 124 76 124 l 162 74 q 164 74 168 75 q 173 76 180 76 q 192 76 193 70 l 217 71 q 235 71 243 67 q 251 63 255 63 q 315 63 372 84 q 428 106 428 158 q 428 180 415 207 q 402 234 384 241 l 113 359 q 75 375 57 410 q 39 446 39 492 q 39 513 48 532 q 56 550 66 566 q 77 581 81 587 q 112 628 168 645 q 225 662 290 662 q 298 662 314 658 q 331 655 360 655 q 385 651 418 644 q 452 638 453 637 l 471 618 l 471 544 q 471 539 462 526 q 453 512 449 512 q 438 517 397 537 q 351 560 322 572 q 294 583 264 583 q 209 583 164 560 q 120 536 120 485 q 120 470 136 450 q 151 431 172 416 q 193 402 205 402 l 218 403 q 244 395 275 374 q 299 357 320 349 q 340 341 372 341 q 406 334 440 312 q 475 290 498 258 q 521 227 521 193 q 521 178 517 164 q 513 151 512 148 q 506 135 503 118 q 490 70 484 54 q 477 39 460 29 q 443 19 403 13 q 402 12 400 10 q 398 8 397 7 q 363 -6 334 -12 q 305 -19 274 -19 q 238 -19 192 -14 q 146 -10 120 -5 q 118 -3 116 -3 z m 440 556 l 453 605 q 453 613 384 625 q 316 637 286 637 q 284 636 282 632 q 279 629 279 627 q 279 617 294 617 l 299 617 q 315 617 316 625 q 318 616 325 610 q 332 604 340 604 q 347 604 350 606 q 352 607 353 612 l 372 594 l 391 612 l 391 592 q 394 593 402 596 q 411 600 421 605 l 428 604 q 428 599 424 589 q 421 579 421 575 q 421 567 425 563 q 429 559 440 556 z m 248 618 q 254 618 262 622 q 270 625 270 630 q 265 630 255 628 q 245 627 236 625 q 238 623 242 621 q 246 619 248 618 z m 138 595 q 138 593 146 593 q 156 593 172 602 q 189 610 189 619 q 176 619 157 612 q 138 604 138 595 z m 402 583 l 403 581 l 415 594 l 412 594 q 409 593 406 590 q 402 586 402 583 z m 94 542 q 108 542 116 553 q 125 564 125 581 q 113 577 104 566 q 94 554 94 542 z m 76 525 l 100 525 l 100 534 q 78 534 76 525 z m 81 493 q 88 493 92 500 q 96 506 96 513 l 69 513 q 69 506 72 500 q 76 493 81 493 z m 79 457 q 90 457 90 477 l 68 477 q 68 457 79 457 z m 81 445 q 87 445 92 448 q 96 450 96 455 l 95 457 l 76 446 z m 81 427 l 95 427 l 95 433 l 81 433 z m 100 414 l 107 413 q 117 413 120 420 q 118 424 115 426 q 112 428 110 428 q 108 428 104 424 q 101 419 100 414 z m 111 398 q 111 396 117 394 q 123 391 125 389 q 140 389 140 409 q 131 409 122 406 q 112 403 112 399 z m 144 385 l 171 385 q 171 390 165 394 q 159 397 153 397 q 148 397 146 392 q 145 387 144 385 z m 200 359 q 202 359 207 364 q 212 368 212 371 l 205 377 l 174 371 q 177 368 186 364 q 196 359 200 359 z m 251 350 q 251 366 217 366 q 217 354 226 352 q 234 350 251 350 z m 305 321 l 311 322 q 285 334 279 334 q 292 321 305 321 z m 348 303 l 353 310 l 340 310 z m 403 270 l 403 279 l 397 279 q 399 281 401 284 q 403 287 403 289 q 403 304 381 304 l 376 304 q 361 304 360 297 q 368 287 380 278 q 392 270 403 270 z m 413 261 l 456 261 q 456 273 431 273 q 413 273 413 261 z m 450 201 q 459 201 468 206 q 477 212 483 219 q 489 226 489 228 q 489 238 481 243 q 473 248 464 248 q 458 247 446 243 q 434 239 434 236 l 434 229 l 464 217 q 450 215 450 201 z m 472 173 q 491 173 494 182 q 498 190 498 213 q 488 213 473 202 q 458 192 458 183 q 458 173 472 173 z m 450 109 q 468 109 476 123 q 485 137 485 157 q 478 157 468 152 q 458 146 458 140 q 458 134 464 124 q 450 122 450 109 z m 310 12 l 313 12 q 327 12 329 20 q 385 28 422 42 q 460 56 464 94 q 457 100 445 100 q 441 100 433 83 q 426 67 418 58 q 411 49 400 49 q 398 49 393 52 q 388 56 384 56 q 370 56 344 52 q 337 51 329 50 q 321 49 313 49 q 295 49 292 50 q 289 48 284 44 q 280 41 279 38 q 279 27 289 20 q 299 12 310 12 z m 107 25 q 114 25 120 30 q 126 36 126 48 l 125 50 l 100 38 l 95 40 l 95 44 q 97 45 110 50 q 122 56 125 63 q 124 65 118 68 q 113 70 108 70 q 98 70 92 60 q 87 50 87 42 q 87 32 92 28 q 97 25 107 25 z m 130 26 l 144 26 l 138 31 q 145 36 151 44 q 157 52 157 56 q 143 56 136 48 q 130 39 130 26 z m 182 19 q 193 19 200 29 q 207 39 207 51 q 157 51 157 26 q 160 25 166 22 q 173 19 182 19 z m 215 13 l 267 13 q 268 14 270 16 q 272 18 273 20 q 273 34 267 39 q 261 44 248 44 q 227 44 221 38 q 215 31 215 13 z m 314 32 q 316 32 322 26 l 311 26 l 311 31 z"},"}":{"x_min":0,"x_max":320,"ha":320,"o":"m 239 311 q 239 304 236 302 q 234 300 228 300 q 220 300 206 286 q 193 271 182 251 q 172 231 172 215 q 172 211 174 205 q 177 199 177 197 q 176 196 174 194 q 172 192 172 183 q 172 166 177 147 q 174 146 171 141 q 168 136 167 133 l 167 41 q 167 24 146 9 q 126 -6 99 -15 q 72 -24 56 -25 l 20 -30 q 13 -27 11 -24 q 9 -21 9 -15 q 9 8 14 14 q 19 19 38 19 q 38 30 47 30 l 61 29 q 71 29 84 39 q 97 49 107 61 q 117 73 117 76 l 117 228 q 125 244 139 274 q 153 305 153 309 q 153 317 135 344 q 118 372 109 390 q 100 407 100 424 q 100 439 106 469 q 112 499 112 515 q 112 555 88 572 q 63 590 26 599 q 4 604 4 609 q 4 614 8 620 q 11 625 16 627 q 11 632 8 637 q 4 642 4 647 q 4 663 25 663 l 76 658 q 77 656 88 650 q 99 645 106 643 l 101 653 q 106 653 112 649 q 118 645 121 643 l 117 638 q 148 615 158 594 q 167 574 167 529 q 167 453 180 404 q 192 354 238 319 z m 56 653 q 60 651 64 651 q 71 651 71 653 q 71 655 64 655 q 56 655 56 653 z m 128 632 q 128 634 129 636 q 130 638 132 638 q 136 638 136 632 q 136 627 132 627 q 130 627 129 628 q 128 630 128 632 z m 113 581 q 131 569 137 556 l 136 532 q 136 518 137 508 q 138 497 142 497 q 148 502 148 515 l 147 529 q 147 555 142 561 q 142 563 144 565 q 145 567 146 567 q 137 572 137 576 l 138 582 q 138 608 110 618 q 83 628 54 628 l 25 627 q 39 618 58 614 q 76 609 93 609 q 92 610 92 612 q 92 614 93 616 q 94 618 96 618 q 100 618 100 612 q 100 607 96 607 l 94 608 q 95 598 100 592 q 104 586 113 581 z m 128 612 q 128 610 129 608 q 130 607 132 607 q 136 607 136 612 q 136 618 132 618 q 130 618 129 616 q 128 614 128 612 z m 50 602 q 50 604 48 606 q 47 607 45 607 q 42 607 42 602 q 42 597 45 597 q 50 597 50 602 z m 121 603 q 121 600 117 600 q 115 600 111 602 q 111 605 117 605 q 121 605 121 603 z m 148 572 q 148 567 152 567 q 156 567 156 572 q 156 578 152 578 q 148 578 148 572 z m 142 487 q 138 487 134 485 q 131 483 131 479 q 131 475 135 470 q 139 466 139 461 l 146 461 l 146 486 z m 164 369 q 164 380 158 390 q 152 399 142 400 q 149 400 153 406 q 157 413 157 420 q 157 424 152 436 q 146 447 146 453 q 138 453 132 448 q 126 442 126 435 q 126 430 132 425 q 131 422 130 419 q 128 416 127 413 q 127 398 138 384 q 149 369 164 369 z m 203 311 q 203 316 182 342 q 162 368 157 368 l 157 355 l 187 314 l 187 299 q 203 305 203 311 z m 178 286 l 177 288 q 170 283 163 272 q 156 262 156 254 l 157 247 q 160 255 168 269 q 177 283 178 286 z m 186 273 q 186 278 182 278 q 178 278 178 273 q 178 269 182 269 q 186 269 186 273 z m 141 215 l 142 208 q 147 210 150 219 q 152 228 152 233 l 152 236 l 152 238 q 141 231 141 215 z m 118 223 q 118 219 121 219 q 126 219 126 223 q 126 228 121 228 q 118 228 118 223 z m 149 180 q 149 183 146 183 q 144 181 144 180 q 144 177 146 177 q 149 177 149 180 z m 141 167 q 141 160 146 157 l 146 167 z m 146 147 q 143 147 143 142 q 143 137 146 137 q 151 137 151 142 q 151 144 150 146 q 148 147 146 147 z m 141 117 q 141 113 144 108 q 146 104 146 101 l 146 117 z m 153 90 q 136 90 136 63 q 136 52 142 51 q 147 52 150 67 q 153 82 153 90 z m 161 71 q 161 76 157 76 q 155 76 154 74 q 153 73 153 71 q 153 66 157 66 q 161 66 161 71 z m 142 37 q 142 46 134 46 q 126 46 120 36 q 114 27 106 26 l 117 25 q 125 25 134 28 q 142 31 142 37 z m 107 12 q 107 21 96 21 q 93 21 80 15 q 68 9 66 3 q 66 -2 71 -4 q 76 -7 81 -7 l 81 0 l 106 10 z m 56 -4 l 56 0 l 36 0 l 36 -4 z"},"Z":{"x_min":0,"x_max":542,"ha":542,"o":"m 73 93 q 94 118 105 137 q 130 183 162 234 q 194 285 202 298 q 211 313 248 374 q 286 434 315 489 q 327 511 334 531 q 340 551 340 562 q 340 598 284 598 q 227 598 167 593 q 101 589 65 589 q 64 589 60 589 q 55 589 55 593 l 55 642 q 55 644 60 646 q 64 649 67 649 q 73 649 80 648 q 88 647 92 646 q 110 641 131 641 q 165 641 184 649 l 444 648 q 449 649 466 652 q 484 656 484 657 q 486 657 491 650 q 496 642 498 637 l 499 634 l 498 631 q 471 603 451 574 q 431 546 399 494 q 397 490 382 465 q 378 458 374 448 q 369 438 367 434 q 355 407 347 394 q 339 381 326 372 l 258 248 q 252 248 228 214 q 205 179 182 141 q 159 103 159 97 q 159 80 262 80 q 298 80 350 82 q 357 74 374 74 q 391 75 394 75 q 397 75 400 82 l 474 82 q 488 82 488 36 q 488 18 484 6 q 480 -5 467 -5 q 444 -5 400 1 q 358 7 339 7 q 306 7 273 4 q 195 1 177 1 l 123 2 l 116 7 l 61 7 q 60 3 53 -1 q 46 -5 43 -5 q 37 -5 30 2 q 24 8 24 15 q 24 24 36 42 q 47 59 73 93 z m 370 613 l 376 613 q 385 613 394 618 q 393 625 383 625 q 365 625 332 618 z m 407 593 l 431 606 l 431 613 l 420 606 l 425 618 l 420 619 q 412 619 408 616 q 404 613 400 606 q 407 602 407 593 z m 397 562 q 406 562 410 566 q 413 570 413 578 l 412 589 l 388 563 z m 365 524 q 375 524 386 530 q 396 535 396 544 q 382 544 374 540 q 365 537 365 524 z m 362 498 q 369 498 374 502 q 380 505 380 509 q 380 512 378 514 q 371 514 366 510 q 362 505 362 498 z m 337 455 q 347 455 350 460 q 353 465 355 476 q 357 487 363 489 q 362 490 360 490 q 359 490 358 490 q 348 490 342 479 q 337 468 337 455 z m 319 433 l 320 426 q 340 435 340 448 q 333 448 326 444 q 319 440 319 433 z m 322 417 q 307 417 234 298 q 228 289 218 276 q 209 263 203 255 l 203 242 q 213 245 242 284 q 271 322 296 364 q 322 407 322 417 z m 190 220 l 191 217 q 205 219 205 231 q 200 231 195 228 q 190 225 190 220 z m 171 193 l 172 186 q 177 189 180 194 q 182 200 184 206 l 181 206 q 176 206 174 202 q 171 198 171 193 z m 152 155 l 167 155 l 167 169 q 161 169 156 165 q 152 161 152 155 z m 135 131 l 148 143 l 145 144 q 142 144 138 140 q 135 136 135 131 z m 123 112 l 129 112 l 129 119 z m 105 76 l 123 93 l 116 100 l 98 82 z m 83 44 q 94 44 116 50 q 116 54 112 56 q 109 57 107 57 q 101 57 92 54 q 83 51 83 44 z m 378 52 q 347 52 345 39 l 394 39 q 401 39 401 51 z m 159 33 q 167 34 187 36 q 207 38 215 44 q 208 51 195 51 q 179 51 172 48 q 165 46 159 33 z m 105 33 q 155 33 167 50 l 151 51 q 137 51 128 47 q 118 43 105 33 z m 220 31 q 251 31 292 36 q 332 40 339 50 l 234 50 q 229 50 224 43 q 220 36 220 31 z m 407 39 l 425 39 l 425 47 q 408 47 407 39 z"},"x":{"x_min":0,"x_max":513,"ha":513,"o":"m 76 128 q 115 203 147 247 q 142 254 125 284 q 108 314 104 321 q 97 333 84 347 q 71 361 68 364 q 39 397 25 417 q 11 437 11 461 q 11 482 63 482 q 87 482 91 481 l 239 333 l 314 499 l 317 500 q 320 500 326 494 q 381 489 418 475 q 424 473 424 466 q 425 459 431 457 q 423 447 414 430 q 405 414 401 408 q 393 391 384 378 q 376 364 371 364 q 368 364 368 357 q 367 350 363 350 l 357 351 q 354 338 346 328 q 337 318 321 304 q 305 291 296 280 q 288 269 288 256 q 309 216 332 180 q 356 144 374 118 q 393 92 398 85 q 427 46 439 27 q 451 8 451 -3 q 451 -19 431 -19 q 428 -19 417 -16 q 406 -12 400 -12 l 363 -15 q 355 -15 339 -6 q 323 4 323 15 q 316 23 298 48 q 280 73 277 80 q 268 98 262 112 q 227 186 223 186 q 217 186 208 168 q 199 149 181 106 q 156 46 139 14 q 122 -19 107 -19 l 11 -7 l 11 19 q 31 48 51 84 q 71 119 76 128 z m 376 420 q 377 425 383 436 q 389 447 389 449 l 388 451 q 383 451 376 447 q 370 443 363 443 l 359 443 q 346 443 344 450 l 351 457 l 325 457 q 325 439 338 432 q 351 426 376 420 z m 85 395 q 87 397 96 405 q 104 413 104 415 q 104 419 100 422 q 96 424 89 426 q 82 427 80 431 q 86 437 86 441 q 86 451 61 451 l 48 450 q 50 446 61 424 q 72 403 85 395 z m 307 333 l 310 333 q 313 333 332 354 q 351 376 351 380 q 351 385 346 387 q 340 389 336 392 q 332 394 332 401 q 333 403 334 404 q 336 406 337 407 q 342 407 350 404 q 359 401 363 401 l 363 407 q 358 409 346 414 q 335 419 328 421 l 326 420 l 282 345 q 288 343 296 340 q 303 336 307 333 z m 110 382 q 119 382 135 388 q 129 396 120 402 q 112 407 112 408 q 110 408 104 402 q 97 395 97 393 q 97 392 98 392 q 98 382 110 382 z m 135 333 q 144 333 161 337 q 178 341 178 348 q 178 350 168 360 q 159 371 157 371 q 152 371 140 358 q 127 344 127 342 q 127 340 130 336 q 132 333 135 333 z m 128 370 l 110 370 l 110 356 q 120 356 128 370 z m 154 303 q 156 303 180 302 q 203 302 203 318 q 203 320 198 326 q 194 332 190 333 q 165 316 154 303 z m 264 286 q 264 271 273 271 q 281 271 293 291 q 305 311 305 324 q 283 324 274 317 q 264 310 264 289 z m 175 271 q 184 271 195 282 q 206 293 209 296 l 205 296 q 198 296 181 293 q 164 290 164 284 q 164 279 167 275 q 170 271 175 271 z m 222 266 q 222 270 220 273 q 218 276 215 277 l 202 266 z m 239 222 q 245 216 246 216 q 258 216 261 218 q 264 220 264 228 q 264 240 259 247 q 250 246 244 240 q 239 233 239 225 z m 138 157 q 120 148 116 142 q 146 142 160 154 q 174 166 186 192 q 195 209 202 220 q 210 231 221 241 l 199 241 q 199 230 192 222 q 184 215 170 207 q 155 199 148 192 q 140 185 140 173 l 159 173 q 154 165 138 157 z m 302 165 q 302 191 290 191 q 282 191 276 186 q 270 180 270 173 q 270 167 278 166 q 285 165 302 165 z m 280 141 q 288 141 292 144 q 296 146 296 154 q 289 153 284 150 q 280 146 280 141 z m 301 117 l 337 111 l 338 117 q 338 126 330 136 q 323 147 314 154 q 300 136 300 123 z m 135 105 q 141 105 144 108 q 148 111 148 117 l 110 117 q 119 105 135 105 z m 319 80 q 324 82 328 88 q 331 93 332 95 q 332 106 305 106 q 305 88 319 80 z m 363 18 q 393 18 393 37 l 370 37 q 370 40 369 41 q 368 42 368 43 q 368 45 376 49 q 373 54 369 68 q 365 80 362 86 q 359 93 354 93 q 351 93 342 84 q 332 74 332 71 q 332 59 347 57 q 362 55 363 55 q 361 48 347 48 l 337 49 q 337 18 363 18 z m 75 48 q 75 33 84 33 q 92 33 104 53 q 116 73 116 86 q 94 86 84 79 q 75 72 75 51 z m 119 30 l 111 30 l 111 19 q 119 22 119 30 z"},")":{"x_min":0,"x_max":289,"ha":289,"o":"m 274 361 q 274 302 266 212 q 257 123 238 39 q 218 -45 187 -83 q 174 -109 165 -121 q 156 -133 140 -133 q 126 -133 107 -126 q 85 -120 76 -120 q 75 -120 72 -122 q 70 -125 70 -127 l 69 -120 q 69 -117 73 -110 q 77 -104 77 -100 l 76 -96 q 78 -97 82 -100 q 86 -102 89 -102 q 93 -102 97 -91 q 101 -80 104 -71 q 106 -62 107 -58 q 115 -27 122 -9 q 129 9 138 9 l 145 9 q 145 44 154 86 q 163 127 164 133 q 175 181 175 194 l 181 194 q 175 206 175 220 q 175 228 181 232 l 174 277 q 156 395 138 472 q 120 548 83 619 q 80 625 70 640 q 60 655 56 666 q 51 676 51 692 q 51 701 73 708 q 95 715 122 720 q 148 724 158 724 q 161 724 172 712 q 183 699 187 694 q 195 680 208 654 q 221 628 224 619 q 250 535 261 482 q 272 430 274 361 z m 89 676 l 138 656 l 138 669 l 169 669 q 165 672 160 682 q 154 691 150 696 q 145 700 138 700 q 133 700 110 690 q 87 681 87 678 q 87 678 88 677 q 88 676 89 676 z m 163 552 l 157 546 q 163 540 190 521 q 216 502 218 502 l 226 502 q 226 516 216 524 q 205 533 192 538 q 180 544 175 546 l 200 546 q 181 557 166 570 q 150 583 141 592 q 132 602 130 605 l 131 607 q 147 603 158 602 q 168 601 181 601 q 180 607 153 623 q 126 639 101 651 q 101 640 110 617 q 119 594 134 574 q 148 555 163 552 z m 163 637 q 170 631 177 626 q 184 622 187 619 l 188 622 q 188 629 179 633 q 170 637 163 637 z m 178 582 l 169 582 l 212 552 q 212 566 202 574 q 193 582 178 582 z m 150 539 q 150 514 177 490 q 204 465 237 447 l 238 453 q 238 464 232 468 q 227 473 216 476 q 198 480 194 490 l 212 490 q 193 514 150 539 z m 212 434 l 224 435 q 224 442 208 455 q 192 468 175 478 q 175 451 182 442 q 189 434 212 434 z m 224 243 l 237 250 l 238 263 q 238 277 234 282 q 231 288 218 293 q 227 294 232 301 q 237 308 237 318 q 237 325 232 326 q 227 328 224 330 q 221 331 221 338 q 224 338 227 336 q 230 335 232 335 q 234 335 237 341 l 200 380 l 200 383 q 205 383 210 378 q 216 372 217 371 q 231 353 244 353 q 244 363 241 366 q 238 370 230 374 q 222 379 218 385 l 231 385 q 231 398 214 410 q 197 423 181 428 q 181 392 191 368 q 201 344 224 311 q 222 311 215 314 q 208 318 205 318 q 204 318 202 316 q 200 313 200 311 q 200 304 203 290 q 206 277 206 263 q 206 250 205 240 q 204 231 203 224 q 199 198 199 184 q 199 174 202 168 q 205 161 205 158 q 203 142 191 106 q 174 63 174 36 q 174 26 175 22 l 138 -46 q 139 -46 139 -49 l 126 -80 l 112 -110 q 119 -110 122 -107 q 126 -104 130 -97 q 133 -90 138 -90 q 140 -90 144 -92 q 148 -93 150 -95 q 148 -93 148 -90 q 148 -82 164 -64 q 180 -48 181 -40 q 182 -32 186 -26 q 189 -21 192 -17 q 195 -13 198 -8 q 200 -4 200 4 q 200 6 198 10 q 197 15 194 15 q 207 21 211 37 q 215 53 216 80 q 216 113 224 120 q 226 124 228 130 q 230 136 231 139 q 230 141 228 145 q 225 149 224 151 q 224 159 230 183 q 238 209 238 223 l 237 237 z m 237 416 l 224 416 l 237 404 z"},"&":{"x_min":0,"x_max":580,"ha":580,"o":"m 90 308 q 95 312 104 320 q 114 328 120 336 q 126 345 126 355 q 126 364 120 372 q 115 380 103 393 q 101 395 94 404 q 86 412 83 420 q 75 440 70 466 q 64 492 64 512 q 64 572 92 600 q 119 629 176 641 q 190 644 204 650 q 232 660 249 660 q 296 660 317 654 q 322 654 336 646 q 349 639 354 639 q 354 633 358 625 q 363 617 368 609 q 386 585 386 568 q 386 558 382 552 q 379 546 379 543 q 380 541 382 538 q 385 534 386 531 q 386 506 379 490 q 372 474 358 454 q 344 435 335 414 l 268 346 q 256 346 249 339 q 242 332 242 321 q 242 316 253 306 q 264 297 273 290 q 282 284 286 281 q 326 253 349 231 q 372 209 372 189 q 379 189 384 186 q 389 182 395 175 q 396 174 402 168 q 408 162 416 160 l 453 296 q 452 298 452 302 q 452 314 466 318 q 480 322 495 324 q 510 325 515 326 l 509 334 q 521 334 525 329 q 529 324 531 314 q 533 300 540 296 q 533 295 533 286 l 534 270 q 534 260 527 259 l 534 253 q 527 248 516 214 q 505 181 505 170 q 501 170 500 160 q 498 151 498 149 q 495 132 491 122 q 487 113 480 113 q 480 83 484 74 q 488 64 499 58 q 508 52 514 47 q 520 42 527 31 q 533 21 533 15 q 533 8 526 6 q 519 3 502 1 q 478 -1 472 -6 q 461 -6 449 16 q 443 27 438 32 q 433 37 426 37 q 416 37 393 22 q 371 8 361 7 q 249 -13 222 -13 q 173 -13 128 7 q 83 27 55 64 q 27 102 27 151 q 27 196 43 236 q 59 277 90 308 z m 211 352 q 214 352 244 372 q 274 392 287 401 l 300 417 q 319 444 323 444 q 324 445 328 454 q 333 464 335 469 q 341 480 350 487 q 361 494 361 504 q 361 507 358 514 q 355 520 355 525 q 355 535 358 547 q 361 568 361 571 q 361 589 356 598 q 351 608 335 611 q 343 615 343 620 q 343 629 324 632 q 305 636 284 636 q 263 637 257 637 l 257 630 q 299 620 310 610 q 320 600 320 584 q 321 573 324 568 q 326 562 335 555 l 336 534 q 336 519 332 509 q 327 499 319 488 q 312 479 309 472 q 306 466 306 457 l 300 463 l 287 444 l 293 439 q 288 434 282 426 q 276 417 274 414 l 195 376 l 182 364 q 190 352 211 352 z m 227 629 q 227 623 231 623 q 236 623 236 629 q 236 636 231 636 q 227 636 227 629 z m 179 406 l 188 407 q 245 435 279 466 q 313 496 313 542 q 313 562 301 584 q 289 605 269 605 q 260 605 240 601 q 235 600 228 599 q 222 598 213 598 l 210 598 q 202 598 200 605 q 198 596 192 590 q 187 585 176 579 q 160 571 157 562 q 154 543 147 516 q 140 488 139 482 q 139 463 152 434 q 164 406 179 406 z m 102 562 l 115 562 l 115 568 q 107 568 102 562 z m 108 512 q 104 518 100 518 q 96 518 95 518 l 95 506 z m 121 425 q 121 423 122 422 q 124 420 126 420 q 128 420 130 422 q 131 423 131 425 q 131 431 126 431 q 121 431 121 425 z m 146 382 q 146 376 152 376 q 154 376 155 378 q 156 380 156 382 q 156 389 152 389 q 146 389 146 382 z m 318 226 q 318 227 294 246 q 271 264 261 270 q 261 279 259 282 q 257 284 248 285 q 240 286 231 291 q 216 299 201 325 q 190 342 181 352 q 172 361 157 364 l 157 361 q 157 352 180 324 q 202 297 226 278 q 227 277 248 262 q 268 248 268 240 l 268 234 l 306 216 q 310 216 314 219 q 318 222 318 226 z m 90 259 l 90 253 l 115 253 l 108 265 q 109 264 112 264 q 122 264 132 276 q 143 288 150 304 q 157 319 157 326 q 142 316 116 290 q 90 263 90 259 z m 473 308 q 473 302 478 302 q 480 302 481 304 q 482 306 482 308 q 482 315 478 315 q 473 315 473 308 z m 448 143 q 455 143 464 148 q 473 153 478 160 l 466 173 q 468 172 472 172 q 483 172 487 187 q 491 202 491 216 q 491 218 488 220 q 485 222 483 222 q 501 229 509 252 q 517 275 517 299 q 495 299 488 296 q 480 294 478 286 q 477 279 477 253 l 491 253 q 483 249 470 232 q 458 214 458 205 q 458 204 462 202 q 465 199 466 198 q 466 191 462 185 q 459 179 454 173 q 441 160 441 148 q 441 147 444 145 q 446 143 448 143 z m 368 83 q 368 99 346 126 q 323 152 281 194 q 240 235 231 248 q 222 248 216 251 q 210 254 203 260 q 185 276 164 283 q 160 261 136 227 q 122 205 114 190 q 107 175 107 156 q 107 142 110 136 q 112 131 118 127 q 123 123 126 117 q 148 86 173 70 q 198 54 232 54 q 269 54 318 61 q 368 68 368 83 z m 76 218 q 84 218 90 222 q 95 226 95 234 l 102 228 l 102 244 q 86 244 81 239 q 76 234 76 218 z m 52 145 q 52 105 69 105 q 73 106 77 108 q 81 109 83 111 l 83 210 l 65 210 q 62 210 57 184 q 52 157 52 145 z m 317 191 l 324 191 l 324 198 z m 348 179 l 355 179 l 355 186 l 348 186 z m 386 130 l 398 130 l 392 135 z m 442 104 q 447 104 450 108 q 453 111 457 122 q 461 132 466 135 q 434 135 434 128 q 434 122 438 114 q 442 107 442 104 z m 115 49 q 117 50 122 53 q 127 56 127 59 q 127 62 120 72 q 113 82 111 82 q 109 82 106 80 q 102 77 102 74 l 102 80 q 102 99 95 99 q 84 99 80 96 q 76 94 76 87 q 76 76 90 64 q 103 53 115 49 z m 405 86 l 410 99 l 397 99 q 397 95 399 91 q 401 87 405 86 z m 169 24 q 173 24 175 30 q 177 36 177 39 q 164 39 154 37 q 144 35 144 31 q 150 29 157 27 q 164 25 169 24 z m 188 24 l 200 31 l 195 37 q 188 37 188 24 z m 493 23 q 493 37 471 37 q 471 28 477 26 q 483 23 493 23 z m 326 34 q 317 34 317 32 q 317 28 327 28 q 334 28 335 31 q 335 34 326 34 z m 200 19 l 210 18 q 227 18 227 33 q 210 33 200 19 z m 287 24 l 289 23 q 292 23 300 31 l 296 32 q 295 32 291 30 q 287 28 287 24 z m 260 18 l 263 18 q 272 18 274 24 l 243 24 q 245 18 252 18 q 259 18 260 18 z"},"_":{"x_min":0,"x_max":689,"ha":689,"o":""},"v":{"x_min":0,"x_max":524,"ha":524,"o":"m 84 267 q 73 274 65 289 q 57 304 52 318 q 47 331 46 334 q 45 334 27 377 q 27 388 18 414 q 9 439 8 445 q 8 464 43 464 l 66 463 q 77 463 90 442 q 102 421 111 395 q 120 369 120 359 q 144 292 174 222 q 205 151 232 118 l 237 125 q 243 146 253 168 q 263 191 266 197 q 283 230 293 260 l 301 285 q 356 463 361 463 l 435 463 l 441 458 q 441 365 406 268 q 371 170 311 50 q 308 45 305 32 q 302 18 298 9 q 295 0 286 -6 l 237 -7 q 213 -7 196 -2 q 180 4 170 20 q 131 183 84 267 z m 378 408 q 378 405 374 402 q 369 398 367 396 q 385 396 398 400 q 411 403 416 414 q 411 423 411 428 q 411 434 411 436 q 389 436 380 434 q 372 431 372 414 q 378 411 378 408 z m 103 308 q 103 322 92 354 q 82 386 67 411 q 52 436 40 436 q 40 425 52 393 q 65 361 80 334 q 96 308 103 308 z m 354 357 q 373 357 398 390 q 376 386 365 380 q 354 373 354 357 z m 355 334 l 381 333 q 393 333 396 338 q 398 344 398 365 q 370 357 355 334 z m 330 285 q 344 285 360 294 q 376 303 385 316 l 341 316 q 336 316 333 304 q 330 293 330 285 z m 120 267 q 116 286 108 290 l 108 281 q 108 274 110 270 q 112 267 120 267 z m 338 247 q 336 247 328 248 q 320 248 316 240 q 311 233 311 217 q 381 245 381 281 l 380 290 q 361 278 336 267 l 348 254 q 347 247 338 247 z m 139 199 l 152 199 q 152 210 143 230 q 134 249 126 254 l 126 245 q 127 237 131 218 q 135 199 139 199 z m 336 192 q 346 192 351 203 q 356 214 356 226 q 348 226 336 214 q 326 202 318 202 q 315 202 311 204 q 323 192 336 192 z m 165 172 q 165 190 158 192 q 156 191 154 187 q 151 183 151 180 q 151 176 156 174 q 162 172 165 172 z m 280 148 q 286 150 301 158 q 316 167 323 174 q 320 181 311 184 q 302 186 293 186 q 289 179 285 166 q 281 154 280 148 z m 172 136 q 172 149 168 155 q 164 161 153 166 l 152 159 q 152 136 172 136 z m 323 130 l 323 149 q 320 148 314 146 q 307 145 300 143 q 303 134 323 130 z m 196 104 q 196 112 194 122 q 191 131 185 131 q 176 131 176 118 q 176 110 181 107 q 186 104 196 104 z m 277 105 q 286 105 293 108 q 300 110 300 115 q 300 122 291 126 q 282 130 274 130 l 268 106 q 269 106 271 106 q 273 105 277 105 z m 210 31 q 224 31 246 38 q 269 46 274 56 l 276 52 q 276 51 270 46 q 265 42 263 38 l 268 31 q 279 39 292 64 q 306 88 306 101 q 300 99 285 93 q 270 87 263 81 l 274 69 q 269 68 255 60 q 241 50 235 50 q 230 51 222 55 q 213 59 206 63 q 208 64 210 66 q 212 68 213 69 q 213 85 210 90 q 207 95 194 95 l 182 94 q 184 87 188 69 q 192 51 198 41 q 203 31 210 31 z"},"O":{"x_min":0,"x_max":712,"ha":712,"o":"m 668 337 q 668 302 662 268 q 657 234 647 192 l 637 143 q 635 131 624 118 q 618 110 616 104 q 613 98 613 88 q 613 82 612 81 q 581 26 512 7 q 442 -12 365 -12 l 248 0 l 155 43 l 150 43 q 144 46 130 56 q 117 65 106 74 q 90 87 72 124 q 55 162 43 205 q 31 248 31 273 q 31 280 32 283 q 30 283 28 286 q 26 289 26 291 q 26 309 33 339 q 37 358 38 370 q 46 438 64 484 q 82 529 115 564 q 148 600 205 636 l 208 635 q 219 635 261 646 q 315 660 333 660 l 359 660 l 395 653 q 412 650 452 642 q 491 634 500 630 q 506 628 518 624 q 530 619 538 611 q 589 559 616 522 q 643 485 656 442 q 668 399 668 337 z m 167 575 q 168 573 171 567 q 174 561 182 555 q 189 549 201 549 q 215 549 224 562 q 221 563 216 568 q 211 572 211 574 q 211 577 213 580 q 215 584 217 587 q 223 587 230 583 q 237 579 247 579 q 262 579 270 584 q 277 588 285 605 q 286 597 300 597 q 313 597 333 601 q 353 605 353 617 q 353 616 356 611 q 358 606 359 605 q 358 605 358 604 q 358 604 358 604 q 362 605 368 608 q 375 610 380 612 q 381 609 388 603 q 395 597 406 591 q 418 585 433 585 q 438 585 444 587 q 449 589 451 593 q 459 572 482 558 q 506 544 538 531 q 538 523 542 514 q 547 506 554 506 q 562 506 568 512 q 575 518 575 525 q 575 536 556 536 l 496 598 q 480 614 417 622 q 354 630 316 630 q 299 630 289 626 q 279 623 279 611 q 277 615 272 619 q 266 623 264 623 q 260 623 232 608 q 203 593 193 587 l 205 577 l 167 577 z m 380 612 z m 556 186 l 557 262 q 557 330 554 372 q 552 413 537 458 q 522 502 489 531 q 488 530 485 530 q 480 530 437 545 q 385 563 377 563 q 370 563 362 560 q 354 557 352 556 q 340 549 329 549 q 323 549 318 552 q 312 556 307 556 q 256 556 212 521 q 169 486 144 434 q 118 382 118 334 q 118 323 124 275 q 131 227 140 188 q 149 148 157 148 l 170 149 q 174 149 177 142 q 180 136 180 130 q 182 125 194 112 q 205 100 207 97 q 216 97 220 95 q 224 93 227 88 q 231 79 241 74 q 251 69 262 67 q 274 65 277 65 q 303 63 315 56 l 355 55 q 418 55 456 65 q 493 75 517 103 q 541 131 556 186 z m 137 537 q 144 530 154 524 q 165 519 167 518 q 170 518 175 524 q 180 529 180 531 q 166 535 158 536 q 150 537 137 537 z m 105 499 q 120 499 137 506 q 136 509 128 514 q 120 518 118 518 q 114 518 110 510 q 105 503 105 499 z m 585 513 q 579 513 568 500 q 556 486 556 482 q 556 479 562 474 q 568 469 572 468 q 574 468 575 469 q 568 457 568 448 q 574 448 582 454 q 590 460 597 460 q 596 459 585 448 q 574 437 574 432 l 575 431 l 581 426 l 631 426 q 631 438 626 459 q 620 480 610 496 q 599 513 585 513 z m 79 437 q 95 437 106 444 q 104 448 97 452 q 90 457 88 457 q 79 457 79 437 z m 81 407 q 82 406 87 404 q 92 401 93 401 q 97 401 99 406 q 101 412 101 415 q 84 415 81 407 z m 581 401 q 584 401 594 406 q 605 410 612 414 q 609 414 592 414 q 575 415 569 407 q 570 406 575 404 q 580 401 581 401 z m 637 414 q 626 414 608 404 q 589 394 575 383 l 624 368 l 580 368 q 580 362 582 354 q 585 345 590 345 q 603 345 623 357 q 643 369 643 383 q 643 389 641 398 q 639 408 637 414 z m 57 352 l 63 351 q 70 351 80 356 q 89 360 89 368 q 89 374 80 379 q 71 384 65 384 q 65 361 57 352 z m 626 314 q 649 314 649 326 l 649 331 q 649 352 641 352 q 630 352 612 342 q 594 331 587 322 q 594 314 609 314 l 619 314 z m 56 276 q 69 276 76 285 q 83 294 83 307 q 67 306 62 298 q 56 291 56 276 z m 644 287 l 643 302 l 577 287 l 600 265 q 595 265 588 262 q 580 259 580 256 q 580 253 585 250 q 590 248 594 248 q 598 248 608 250 q 618 253 624 253 q 621 247 605 243 q 595 241 590 238 q 586 236 586 229 q 586 224 590 221 q 594 218 594 216 q 594 213 590 206 q 586 200 586 196 q 603 196 605 204 q 606 202 608 200 q 610 199 612 198 q 631 198 638 228 q 644 257 644 287 z m 69 248 l 81 247 q 90 247 95 250 q 100 252 100 259 q 100 272 93 272 q 86 272 80 265 q 75 258 69 248 z m 113 198 l 113 204 q 104 204 100 198 z m 619 187 q 602 187 591 179 q 580 171 580 155 l 600 155 q 597 150 588 147 q 580 144 574 142 q 568 139 568 132 q 568 130 587 111 q 565 110 560 108 q 554 105 551 97 q 551 96 548 90 q 546 83 538 74 q 525 60 502 48 q 480 37 457 31 q 497 31 534 52 q 572 74 596 110 q 619 146 619 187 z m 100 160 q 99 162 97 164 q 95 166 93 167 q 90 166 86 164 q 83 162 81 160 q 88 157 88 148 z m 110 141 q 125 141 125 151 l 124 155 q 118 154 114 150 q 110 147 110 141 z m 150 117 l 117 117 q 117 111 126 98 q 135 85 139 85 q 150 85 150 117 z m 180 81 l 167 81 l 167 73 q 177 73 180 81 z m 276 45 l 270 45 q 250 45 248 37 q 249 35 251 34 q 253 32 255 31 q 262 31 269 34 q 276 38 276 45 z m 390 12 l 414 24 l 390 24 z"},"(":{"x_min":0,"x_max":289,"ha":289,"o":"m 248 -100 q 248 -104 252 -110 q 256 -117 256 -120 l 255 -127 q 255 -125 252 -122 q 250 -120 249 -120 q 240 -120 218 -126 q 199 -133 185 -133 q 169 -133 160 -121 q 151 -109 138 -83 q 107 -45 88 39 q 68 123 60 212 q 51 302 51 361 q 53 430 64 482 q 75 535 101 619 q 104 628 117 654 q 130 680 138 694 q 142 699 154 712 q 165 724 167 724 q 177 724 204 720 q 230 715 252 708 q 274 701 274 692 q 274 676 270 666 q 265 655 255 640 q 245 625 242 619 q 205 548 187 472 q 169 395 151 277 l 144 232 q 150 228 150 220 q 150 206 144 194 l 150 194 q 150 181 161 133 q 162 127 171 86 q 180 44 180 9 l 187 9 q 196 9 203 -9 q 210 -27 218 -58 q 219 -62 223 -76 q 227 -90 230 -96 q 233 -102 236 -102 q 239 -102 243 -100 q 247 -97 249 -96 z m 156 669 l 187 669 l 187 656 l 236 676 q 237 676 238 677 q 238 678 238 678 q 238 681 215 690 q 192 700 187 700 q 180 700 176 696 q 172 691 166 682 q 160 672 156 669 z m 99 502 l 107 502 q 109 502 136 521 q 162 540 168 546 l 162 552 q 177 555 192 574 q 206 594 215 617 q 224 640 224 651 q 199 639 172 623 q 145 607 144 601 q 157 601 168 602 q 178 603 194 607 l 195 605 q 193 602 184 592 q 175 583 160 570 q 144 557 125 546 l 150 546 q 145 544 130 538 q 116 531 108 522 q 99 514 99 502 z m 137 622 l 138 619 q 141 622 148 626 q 155 631 162 637 q 155 637 146 633 q 137 629 137 622 z m 113 552 l 156 582 l 147 582 q 132 582 122 574 q 113 566 113 552 z m 109 476 q 98 473 92 468 q 87 464 87 453 l 88 447 q 121 465 148 490 q 175 514 175 539 q 132 514 113 490 l 131 490 q 127 480 109 476 z m 101 435 l 113 434 q 136 434 143 442 q 150 451 150 478 q 133 468 117 455 q 101 442 101 435 z m 213 -110 l 200 -80 l 186 -49 q 186 -46 187 -46 l 150 22 q 151 26 151 36 q 151 63 134 106 q 122 142 120 158 q 120 161 123 168 q 126 174 126 184 q 126 193 125 206 q 124 218 123 224 q 119 250 119 263 q 119 277 122 290 q 125 304 125 311 q 125 313 123 316 q 121 318 120 318 q 117 318 110 314 q 103 311 101 311 q 124 344 134 368 q 144 392 144 428 q 128 423 111 410 q 94 398 94 385 l 107 385 q 103 379 96 375 q 88 371 84 368 q 81 364 81 353 q 94 353 108 371 q 109 372 114 378 q 120 383 125 383 l 125 380 l 88 341 q 91 335 93 335 q 95 335 98 336 q 101 338 104 338 q 104 333 102 331 q 100 329 94 327 q 88 325 88 318 q 88 308 93 301 q 98 294 107 293 q 94 288 90 282 q 87 277 87 263 l 88 250 l 101 243 l 88 237 l 87 223 q 87 209 95 183 q 101 159 101 151 q 100 149 98 145 q 95 141 94 139 q 95 136 97 130 q 99 124 101 120 q 109 113 109 80 q 110 53 114 37 q 118 21 131 15 q 128 15 126 10 q 125 6 125 4 q 125 -4 128 -8 q 130 -13 133 -17 q 136 -21 140 -26 q 143 -32 144 -40 q 145 -48 161 -64 q 177 -82 177 -90 q 177 -93 175 -95 q 177 -93 181 -92 q 185 -90 187 -90 q 192 -90 195 -96 q 198 -102 202 -106 q 205 -110 213 -110 z m 101 416 l 88 416 l 88 404 z"},"C":{"x_min":0,"x_max":567,"ha":567,"o":"m 548 79 q 548 50 542 26 q 537 3 529 3 l 511 4 q 458 -5 420 -10 q 383 -15 344 -15 l 320 -14 q 317 -19 304 -23 q 292 -27 283 -27 q 213 -22 154 24 q 94 69 58 137 q 23 205 23 275 q 23 377 67 465 q 111 553 190 606 q 270 659 372 659 q 423 659 458 655 q 492 651 520 630 q 548 610 548 566 q 548 559 544 550 q 540 541 533 541 q 522 541 507 546 q 492 550 477 555 q 450 564 434 568 q 419 572 403 572 q 369 572 336 564 q 303 556 264 541 q 188 513 161 440 q 134 367 134 269 l 135 244 q 145 241 149 199 q 151 181 153 177 q 181 112 250 89 q 320 66 410 66 q 428 66 446 72 q 463 77 491 89 q 519 103 530 103 q 538 103 543 98 q 548 92 548 79 z m 424 614 q 432 614 440 618 q 447 622 447 629 q 437 628 430 621 q 424 614 424 614 z m 467 608 l 479 608 q 473 598 473 587 q 483 587 491 593 q 499 599 499 608 q 499 617 492 622 q 486 628 477 628 q 474 628 470 620 q 467 613 467 608 z m 325 627 q 325 619 339 608 l 357 627 z m 382 620 q 390 620 394 627 l 382 627 z m 412 627 l 388 603 l 394 602 q 402 602 407 610 q 412 618 412 627 z m 459 622 q 450 622 442 610 q 435 599 435 591 q 446 591 453 600 q 460 609 462 621 z m 258 597 l 264 584 q 313 619 313 621 l 302 621 q 294 621 276 610 q 258 600 258 597 z m 363 616 q 356 616 352 611 q 349 606 344 597 l 351 596 q 362 596 370 615 z m 317 603 q 303 603 277 572 q 299 573 320 603 z m 505 581 q 505 571 518 571 l 518 603 q 512 599 508 593 q 505 587 505 581 z m 195 557 q 205 557 214 566 q 223 576 223 586 q 211 586 203 578 q 195 570 195 557 z m 239 584 l 222 559 q 240 577 240 581 z m 116 484 q 131 494 150 500 q 162 505 168 509 q 173 513 176 524 q 178 535 178 559 l 116 498 z m 97 457 l 98 454 q 101 455 110 460 q 119 464 126 470 q 132 475 132 481 q 121 481 109 474 q 97 466 97 457 z m 136 457 l 135 460 q 126 458 118 450 q 110 443 104 436 q 106 435 108 434 q 111 434 113 434 q 123 434 130 440 q 136 447 136 457 z m 72 387 l 111 411 l 111 417 l 79 417 q 72 417 72 395 z m 72 368 q 95 368 106 372 q 116 375 116 393 q 116 394 114 396 q 112 398 111 399 q 105 399 93 390 q 81 380 72 368 z m 60 318 l 61 307 q 82 320 98 332 q 113 345 113 358 q 85 358 72 350 q 60 343 60 318 z m 112 322 q 112 330 111 332 q 84 321 72 307 l 89 306 q 112 306 112 322 z m 65 262 q 72 262 84 272 q 96 283 104 293 l 52 293 l 52 287 q 52 262 65 262 z m 101 276 q 92 276 80 266 q 68 255 67 244 q 89 244 100 248 q 111 252 111 269 q 111 271 107 273 q 103 275 101 276 z m 67 201 l 79 201 l 111 232 l 111 239 q 61 239 61 226 q 61 219 64 210 q 66 201 67 201 z m 511 60 q 428 34 388 34 q 377 34 331 41 q 311 45 232 69 q 212 75 184 83 q 156 91 153 91 l 165 102 q 162 109 158 109 q 155 109 152 108 q 149 107 146 107 q 146 124 142 132 q 139 140 122 140 q 131 145 135 158 q 118 158 118 180 l 98 180 q 104 184 113 188 q 122 192 122 196 q 122 200 120 208 q 118 215 116 220 q 106 218 92 206 q 79 195 79 186 q 81 178 86 164 q 90 151 93 145 q 100 145 111 153 q 109 152 106 148 q 104 143 104 140 q 104 98 135 78 q 166 57 198 47 q 230 37 239 34 l 240 34 q 244 34 250 37 q 255 40 258 41 q 257 29 298 23 q 338 17 363 17 q 403 17 448 24 q 494 30 511 41 z m 111 153 z"},"W":{"x_min":0,"x_max":918,"ha":918,"o":"m 886 608 q 878 576 872 534 q 866 493 866 463 q 866 447 867 441 l 831 317 l 821 280 q 787 160 760 78 q 733 -5 717 -5 q 702 -5 672 3 q 639 10 629 10 q 629 14 624 20 q 618 25 615 27 l 584 126 q 585 128 585 132 q 585 145 569 175 q 563 188 558 202 q 552 215 552 224 q 552 229 553 231 l 503 392 q 503 397 506 399 q 508 401 510 403 l 498 410 q 497 413 482 458 q 466 504 457 504 q 451 504 430 403 l 419 364 q 319 3 288 3 q 280 3 259 8 q 238 12 238 16 q 237 16 229 12 q 221 8 211 8 q 198 8 176 66 q 153 124 139 175 l 109 287 l 110 292 q 110 304 95 340 q 88 357 82 375 q 76 393 76 404 l 77 410 q 69 433 58 468 q 48 504 41 527 q 38 538 28 564 q 18 590 14 606 q 9 623 9 638 q 9 651 27 654 q 45 658 76 658 q 96 658 108 656 q 121 653 121 644 q 121 643 120 630 q 120 617 113 612 q 113 612 117 608 q 121 604 121 594 q 129 546 141 505 q 153 464 173 409 q 177 396 188 362 q 200 329 208 299 l 208 293 l 258 139 q 258 137 259 137 q 261 137 268 146 q 275 154 275 157 l 356 446 l 356 471 q 359 484 368 516 q 377 548 386 576 q 397 614 406 644 q 415 653 426 656 q 438 658 458 658 q 541 658 541 644 q 541 636 532 627 q 522 618 522 609 q 522 595 528 576 q 535 558 547 528 q 561 494 565 478 q 588 431 604 389 q 621 347 621 317 l 658 218 q 657 216 657 213 q 657 202 666 188 q 675 173 683 169 q 700 197 714 262 q 727 327 750 457 q 767 561 778 610 q 789 660 799 662 q 806 662 816 659 q 825 656 837 656 q 846 656 858 662 q 871 669 877 669 q 885 669 892 658 q 899 647 899 640 q 899 635 894 624 q 888 612 886 608 z m 799 619 q 799 613 802 612 q 806 610 806 608 q 806 605 804 600 q 801 595 799 594 q 839 594 849 601 l 849 625 q 829 625 806 632 q 799 630 799 619 z m 139 438 q 138 441 135 450 q 132 458 127 466 q 120 477 112 522 q 103 570 93 594 q 83 619 59 619 l 59 626 q 55 626 47 624 q 39 622 34 619 q 43 608 51 580 q 53 576 54 570 q 56 564 59 558 q 62 553 66 538 q 69 523 71 515 q 74 515 82 518 q 90 521 96 527 l 71 503 l 71 500 q 71 489 78 471 q 86 453 96 453 q 98 453 105 456 q 112 459 115 459 q 110 456 106 450 q 102 443 102 438 q 102 427 116 427 q 119 427 121 428 q 116 424 109 416 q 102 409 102 406 l 101 405 q 101 404 104 400 q 107 395 109 392 q 139 413 139 438 z m 523 518 q 523 531 516 554 q 510 578 499 596 q 488 614 476 614 q 465 614 457 612 q 449 609 441 601 l 454 613 q 454 614 450 616 q 445 619 441 619 q 427 619 424 606 q 421 594 421 576 l 436 576 q 435 575 426 568 q 416 561 416 550 q 423 550 430 554 q 438 558 441 564 q 443 556 454 548 q 465 539 473 539 q 484 539 492 558 q 499 551 499 549 q 499 547 492 539 q 485 531 479 527 q 479 521 491 520 q 503 518 523 518 z m 792 564 l 793 551 q 832 575 843 589 l 840 589 q 819 589 806 584 q 792 579 792 564 z m 856 567 q 856 570 854 573 q 851 576 849 576 q 843 571 830 562 q 816 554 808 546 q 799 537 799 526 q 826 526 841 535 q 856 544 856 567 z m 430 534 q 428 538 424 539 q 421 540 417 540 q 406 540 398 520 q 401 520 412 526 q 424 531 430 534 z m 424 516 q 409 516 398 503 l 424 503 z m 774 490 l 775 484 q 788 489 806 500 q 824 510 831 515 l 788 515 q 783 515 778 506 q 774 496 774 490 z m 498 496 q 501 496 508 500 q 514 505 516 508 l 510 509 q 500 509 492 503 q 492 501 494 498 q 496 496 498 496 z m 522 445 q 530 445 536 454 q 542 462 542 471 q 542 486 528 508 q 525 505 514 494 q 502 484 502 481 q 502 470 520 470 q 532 470 534 471 q 517 462 510 453 q 512 448 514 446 q 517 445 522 445 z m 844 508 l 837 508 l 781 466 l 793 459 q 821 459 832 470 q 844 481 844 508 z m 386 471 q 395 471 406 475 q 417 479 417 487 q 417 491 406 491 q 394 491 390 488 q 386 484 386 471 z m 418 468 q 399 468 386 450 q 373 431 373 410 q 385 410 396 414 q 406 418 406 428 l 393 435 q 397 433 399 433 q 409 433 414 446 q 418 458 418 468 z m 527 416 l 560 416 q 559 417 558 430 q 557 443 550 447 q 542 447 534 436 q 527 424 527 416 z m 769 414 q 780 414 789 419 q 798 424 807 432 q 816 441 824 446 l 806 447 q 788 447 778 436 q 769 426 769 414 z m 831 435 q 825 430 807 416 q 789 403 778 392 q 768 382 768 377 q 793 377 806 380 q 818 384 824 396 q 831 409 831 435 z m 145 262 q 154 262 162 270 q 169 279 174 288 q 178 297 179 301 l 139 301 l 139 311 l 170 311 l 170 338 q 165 338 158 332 q 152 325 148 325 q 148 334 154 346 q 155 349 157 355 q 159 361 159 367 l 158 372 q 157 376 152 394 q 146 411 142 411 q 134 411 128 400 q 122 389 115 372 l 113 364 l 145 364 q 142 363 136 360 q 129 356 125 352 q 121 348 121 342 q 121 323 128 300 q 135 278 145 262 z m 541 384 q 558 401 559 403 q 555 405 547 405 q 537 405 532 403 q 528 401 528 392 q 528 389 533 386 q 538 384 541 384 z m 398 403 q 373 403 373 392 q 373 381 380 379 q 376 379 368 376 q 361 372 361 370 q 361 368 363 364 q 365 361 368 360 q 391 378 398 403 z m 559 317 q 570 323 574 328 q 578 333 578 341 q 578 345 577 349 q 576 353 572 354 q 577 359 577 364 q 577 370 573 378 q 569 385 562 385 q 557 385 548 376 q 540 366 540 364 q 541 361 544 356 q 547 351 547 348 q 546 346 543 344 q 540 341 540 338 l 539 338 q 538 338 559 317 z m 784 348 q 796 355 806 367 l 799 367 q 777 367 770 360 q 763 354 763 330 q 772 341 784 348 z m 382 355 q 361 355 355 340 q 349 324 349 299 q 367 309 374 321 q 382 333 382 355 z m 813 354 q 793 346 776 326 q 758 307 756 305 l 763 299 q 790 299 802 312 q 813 325 813 354 z m 577 287 q 570 281 567 277 q 564 273 564 266 q 572 266 576 268 q 579 271 582 275 q 587 286 603 287 l 589 330 q 577 330 559 299 q 565 292 577 287 z m 362 293 q 347 288 337 262 q 327 237 317 194 q 303 136 293 120 q 288 112 276 100 q 263 88 254 88 q 247 88 244 91 q 241 94 236 101 q 232 108 225 108 l 219 108 q 195 108 195 99 q 195 96 200 88 q 204 81 208 77 q 214 77 232 83 l 220 64 l 226 63 q 242 63 256 69 q 269 75 293 88 l 362 279 z m 744 268 l 747 267 q 752 267 758 274 q 765 281 765 287 q 757 287 752 282 q 748 277 744 268 z m 788 279 q 775 276 757 262 q 739 248 739 236 q 739 230 754 230 q 788 230 788 279 z m 577 249 q 597 249 606 254 q 615 259 615 276 q 603 276 596 270 q 590 265 577 249 z m 160 205 q 163 192 168 186 q 173 180 186 180 q 196 180 202 182 q 208 185 208 194 q 208 200 204 208 q 200 216 195 218 q 194 213 188 206 q 182 200 180 200 l 177 201 q 179 207 184 220 q 190 232 190 244 q 190 275 179 275 q 167 268 158 256 q 149 244 149 241 l 149 240 l 177 240 l 153 225 q 158 217 160 205 z m 587 205 q 598 205 608 219 q 619 233 619 245 q 577 245 577 225 q 577 220 580 212 q 584 205 587 205 z m 603 181 l 611 181 q 622 181 628 184 q 634 187 634 196 q 634 216 621 225 q 596 194 596 190 q 596 188 598 186 q 600 183 603 181 z m 763 218 l 725 218 l 725 189 q 741 189 763 218 z m 763 201 q 718 165 718 159 q 718 157 724 154 q 729 151 732 151 q 725 150 718 147 q 711 144 708 139 q 708 137 710 134 q 712 132 713 132 q 735 132 749 156 q 763 180 763 201 z m 615 139 q 640 164 640 181 q 637 179 620 175 q 603 171 603 167 q 603 144 615 139 z m 177 139 q 187 139 198 150 q 209 162 209 171 l 208 175 l 170 169 q 169 169 169 159 l 169 154 q 169 139 177 139 z m 184 112 l 195 112 q 209 112 214 118 q 220 123 220 144 q 220 156 214 157 q 184 139 184 112 z m 652 145 q 652 156 646 157 q 623 144 623 125 q 636 125 644 128 q 652 131 652 141 z m 744 139 q 739 136 717 116 l 694 96 q 734 96 744 139 z m 646 82 l 658 83 l 646 88 q 648 91 654 99 q 659 107 659 114 q 641 114 621 108 q 621 91 626 86 q 632 82 646 82 z m 658 39 l 694 70 l 694 78 q 685 78 667 74 q 652 69 639 69 q 639 64 644 51 q 649 38 655 38 q 657 38 658 39 z m 720 73 q 706 73 696 60 q 687 46 687 31 q 708 31 714 42 q 720 52 720 73 z m 288 70 q 264 70 232 53 q 235 47 248 43 q 262 39 275 39 q 288 47 288 70 z"},"A":{"x_min":0,"x_max":563,"ha":563,"o":"m 545 73 q 561 40 574 7 q 574 -5 566 -9 q 557 -13 541 -13 q 532 -13 524 -10 q 516 -7 514 -6 q 500 1 489 1 q 484 1 474 -2 q 465 -5 461 -5 q 456 -5 450 8 q 445 20 437 45 q 434 52 432 60 q 429 67 426 75 q 424 79 413 108 q 402 137 386 158 q 369 179 352 179 q 332 179 314 176 q 307 175 298 174 q 288 173 275 173 q 247 173 217 176 q 157 179 150 179 q 140 141 133 122 q 126 102 106 56 q 102 46 100 30 q 97 9 92 -2 q 86 -13 73 -13 q 55 -13 42 -10 q 29 -8 7 0 q 7 17 14 38 q 21 60 35 95 l 44 117 q 52 141 60 171 q 69 201 72 212 q 87 275 100 309 q 107 328 121 360 q 124 368 134 392 q 144 415 150 439 l 155 444 q 157 451 160 470 q 163 490 170 503 q 177 516 188 516 q 188 532 206 592 q 225 652 235 660 q 287 660 304 658 q 322 656 332 644 q 342 632 353 598 l 365 574 l 364 565 q 370 565 374 557 q 377 549 381 533 q 385 516 390 504 q 394 493 402 487 q 400 487 398 485 q 396 483 395 482 q 395 475 401 461 q 408 449 408 439 l 421 439 q 419 437 417 433 q 415 429 415 426 q 415 421 427 405 q 439 387 439 383 l 443 361 q 449 320 458 302 q 466 287 475 280 q 482 274 486 263 q 491 252 495 216 q 498 186 510 156 q 521 126 545 73 z m 191 465 l 192 458 q 217 465 239 483 q 261 501 273 525 l 347 550 q 347 584 328 603 q 308 622 308 623 l 296 622 q 293 622 280 628 q 266 635 260 635 q 251 635 247 625 q 243 615 240 596 q 239 585 236 575 q 234 565 229 562 l 254 562 q 250 555 244 550 q 237 546 231 543 q 217 536 210 528 q 204 519 204 500 q 204 493 206 490 q 209 487 217 487 q 191 487 191 465 z m 303 493 q 310 493 330 515 q 342 529 353 537 q 308 537 286 519 q 286 514 292 504 q 299 493 303 493 z m 396 414 q 396 432 394 445 q 391 458 380 458 q 376 457 370 453 q 364 449 359 444 l 383 469 q 383 473 372 499 q 362 525 359 525 l 353 525 l 310 482 l 309 478 q 309 473 316 468 q 322 464 328 463 q 323 462 322 457 q 321 452 321 447 q 321 425 331 425 q 334 425 347 433 q 347 426 344 416 q 340 406 340 400 q 347 400 352 401 q 356 402 360 403 q 374 407 383 407 q 380 401 370 398 q 361 394 356 391 q 352 388 352 378 l 352 372 q 352 359 359 352 q 396 383 396 414 z m 193 423 q 177 420 170 415 q 162 410 162 395 q 162 393 164 391 q 167 389 168 389 q 250 437 250 476 l 243 476 q 237 476 210 457 q 184 438 184 432 q 192 432 204 436 q 216 439 223 439 q 220 431 213 428 q 206 425 193 423 z m 273 469 q 265 421 246 372 q 226 324 199 284 l 198 281 q 198 266 235 266 q 254 266 269 267 q 284 268 294 269 q 334 273 354 273 q 354 291 335 335 q 333 339 327 354 q 321 368 321 376 z m 182 386 q 173 380 166 374 q 159 368 159 363 q 192 363 204 372 q 216 382 223 415 l 217 415 q 206 402 182 386 z m 378 334 q 384 334 397 337 q 410 340 415 340 l 378 321 l 377 319 q 377 314 381 308 q 385 302 387 302 q 402 302 412 315 q 422 328 422 343 q 422 357 417 373 q 412 389 402 389 q 395 380 378 352 q 370 344 370 343 q 370 343 372 338 q 374 334 378 334 z m 130 309 q 139 314 162 328 q 184 341 199 352 l 155 352 q 146 352 142 342 q 137 333 134 323 q 131 313 130 309 z m 192 334 q 188 332 179 328 q 170 324 165 318 q 160 313 160 305 q 170 305 182 313 q 193 321 193 330 z m 415 185 q 432 185 442 200 q 452 214 452 231 q 452 249 449 263 q 446 277 441 292 q 436 308 434 315 q 422 315 411 306 q 400 297 395 284 l 426 284 l 426 278 q 422 273 401 250 q 380 226 371 210 l 383 209 q 395 209 415 219 q 435 228 445 228 q 434 214 395 198 q 399 190 403 188 q 407 185 415 185 z m 111 259 l 112 247 q 118 251 132 259 q 145 267 154 276 q 164 285 168 296 l 162 296 q 136 296 124 288 q 111 281 111 259 z m 409 271 q 395 271 395 259 z m 150 235 l 150 259 l 124 235 z m 353 228 q 350 234 338 238 q 327 241 321 241 q 315 241 304 230 q 293 220 291 216 l 291 228 q 275 221 266 216 q 258 211 258 201 l 284 200 q 307 200 324 206 q 342 212 353 228 z m 217 223 q 217 229 214 232 q 210 236 205 236 q 202 236 183 226 q 164 217 155 210 q 157 204 164 204 l 170 204 q 186 204 202 208 q 217 212 217 223 z m 228 207 q 248 207 267 228 l 254 230 q 244 231 236 224 q 228 218 228 207 z m 137 216 q 135 223 122 223 q 111 223 105 216 q 99 209 99 198 l 100 192 q 102 193 116 200 q 129 206 137 216 z m 366 222 q 351 221 351 206 q 364 206 366 222 z m 437 129 q 447 129 458 147 q 470 165 470 176 l 470 181 q 470 205 461 205 q 460 204 442 192 q 425 181 421 173 q 422 173 424 170 q 426 167 430 167 q 436 169 447 170 q 458 172 463 173 q 458 165 444 161 q 434 157 430 154 q 426 150 426 143 q 426 129 437 129 z m 137 192 l 130 192 q 116 192 94 167 q 119 167 137 192 z m 119 154 l 106 155 q 97 155 88 145 q 80 135 80 132 l 81 124 q 90 129 102 140 q 115 150 119 154 z m 445 111 q 457 111 473 116 q 489 122 489 132 q 489 155 480 155 q 476 155 468 145 q 460 135 454 126 q 448 116 445 111 z m 469 75 l 501 104 l 501 114 q 489 114 470 108 q 452 102 452 93 q 452 88 457 81 q 462 74 467 74 z m 527 42 q 527 59 507 93 q 505 91 496 86 q 486 80 480 74 q 474 67 474 61 q 487 61 501 68 l 477 43 q 481 31 513 31 q 527 31 527 42 z m 87 86 l 78 87 q 64 87 54 71 q 44 55 44 40 q 44 33 46 29 q 47 25 53 25 q 58 25 61 32 q 64 40 64 43 l 56 43 q 57 45 70 60 q 84 74 87 86 z"},"f":{"x_min":0,"x_max":348,"ha":348,"o":"m 297 431 q 301 413 301 406 q 301 399 295 399 l 293 399 q 283 399 281 388 l 275 396 q 271 395 249 395 q 232 395 222 398 q 212 401 207 401 q 185 401 174 382 q 162 362 162 339 q 162 336 166 326 q 171 315 171 296 q 171 281 164 260 q 158 238 158 228 q 158 227 160 224 q 162 222 163 222 q 162 217 162 208 q 162 193 165 178 q 168 164 169 160 q 176 134 176 112 q 176 93 172 55 q 168 19 168 0 l 102 0 q 95 0 80 28 q 64 57 64 65 q 64 68 74 84 q 85 100 85 113 q 85 125 81 147 q 77 169 77 179 q 78 193 80 216 q 82 239 84 252 q 84 279 77 370 q 79 372 82 376 q 84 380 84 383 q 66 397 45 397 l 22 396 l 15 401 l 15 469 l 22 474 q 26 478 44 478 q 65 479 77 484 q 89 489 89 505 q 89 520 86 533 q 83 560 83 562 q 83 631 108 673 q 108 672 131 683 q 166 702 176 703 q 182 703 188 704 q 195 705 200 706 q 228 710 239 710 q 259 710 266 708 q 274 707 278 700 q 281 692 281 673 q 281 639 271 630 q 261 620 240 618 q 223 616 212 610 q 202 604 194 584 q 187 564 187 524 q 187 499 194 474 q 216 476 233 476 q 270 476 294 469 q 293 466 293 460 q 293 451 297 431 z m 205 677 q 205 664 208 659 q 211 654 221 654 q 233 654 239 657 q 245 660 245 669 q 245 677 237 682 q 229 686 229 693 q 226 693 218 685 q 210 677 205 677 z m 200 648 q 199 653 193 662 q 187 671 182 673 q 175 673 150 662 q 124 652 120 648 q 113 638 113 583 q 113 569 119 565 q 125 561 139 561 l 145 562 q 145 553 113 553 q 113 525 119 503 q 125 481 148 481 q 154 481 163 528 q 172 575 176 617 l 175 631 q 175 635 184 642 q 192 648 200 648 z m 151 543 l 145 549 l 151 549 z m 158 435 q 158 441 144 457 q 131 473 127 474 q 123 474 119 472 q 115 471 114 469 q 120 468 120 457 q 120 446 118 442 q 115 438 106 438 q 99 438 90 439 q 82 440 78 441 q 66 444 52 444 q 47 444 42 442 q 36 439 36 434 q 36 431 66 426 q 96 421 110 420 l 115 420 q 130 420 132 414 q 121 414 118 412 q 114 409 114 405 l 115 397 q 115 391 108 388 q 114 368 114 358 q 114 354 114 348 q 113 342 113 330 q 122 335 134 335 q 145 335 146 335 q 146 340 140 344 q 135 349 129 351 l 131 351 q 139 351 139 363 l 138 374 q 139 373 146 397 q 154 421 158 435 z m 219 450 q 216 452 210 454 q 204 457 200 457 q 194 457 188 450 q 183 444 182 439 l 213 439 z m 276 443 q 274 444 266 447 q 259 450 255 450 l 243 444 l 268 431 q 269 432 272 436 q 276 439 276 443 z m 127 352 l 129 351 z m 145 276 l 145 291 l 132 291 q 134 276 145 276 z m 146 148 q 146 164 138 174 q 130 185 114 185 q 112 185 110 182 q 108 180 108 179 q 108 165 118 154 q 129 142 145 129 q 146 132 146 148 z"},"Q":{"x_min":0,"x_max":710,"ha":710,"o":"m 73 117 q 52 151 40 201 q 29 251 29 295 q 29 457 95 562 q 161 667 304 667 q 324 667 356 663 q 382 659 394 659 l 394 652 q 468 652 530 608 q 593 564 628 493 q 633 485 646 434 q 660 383 660 368 q 660 345 655 325 q 651 301 651 284 q 651 272 652 265 l 647 259 l 652 253 q 644 249 642 240 q 640 231 640 215 q 639 197 637 188 q 635 179 628 173 l 635 167 q 630 159 620 137 q 609 115 609 106 q 609 97 615 92 q 621 87 635 78 q 647 71 654 66 q 660 60 660 53 q 660 46 654 40 q 649 35 648 34 q 643 30 639 24 q 635 19 635 12 q 633 13 630 16 q 628 20 625 20 q 620 20 618 12 q 615 5 612 0 q 609 -6 600 -6 q 593 -6 573 7 q 554 20 545 20 q 535 20 530 16 q 524 12 517 0 l 488 -8 q 440 -22 408 -30 q 376 -37 347 -37 q 242 -37 122 62 q 118 65 113 68 q 108 70 106 72 q 105 74 105 81 l 97 81 q 93 85 86 96 q 79 107 73 117 z m 330 611 l 337 611 l 326 636 l 255 636 q 255 629 288 620 q 321 611 330 611 z m 542 67 l 554 67 q 585 67 585 77 q 585 82 582 92 q 578 103 578 109 q 578 119 588 135 q 598 151 598 160 q 598 166 597 169 q 596 172 591 173 q 603 175 613 212 q 623 250 629 296 q 635 341 635 358 q 635 378 629 416 q 623 453 610 483 q 598 513 579 513 l 591 518 l 573 543 q 571 546 558 556 q 546 567 546 572 q 535 572 527 577 q 519 582 506 593 q 504 594 496 601 q 489 608 480 611 q 426 628 381 628 l 381 636 l 342 636 q 342 617 362 612 q 382 607 416 607 q 444 607 450 605 q 453 605 456 598 q 460 590 464 585 q 469 580 478 580 q 484 580 490 582 q 497 583 503 583 l 504 575 l 500 568 q 500 562 502 556 q 503 549 504 547 l 542 547 q 539 545 535 542 q 531 539 529 537 q 529 529 536 527 q 542 525 542 521 l 541 505 q 541 491 551 491 q 556 491 560 493 l 554 482 l 567 439 l 575 439 q 575 417 584 386 q 592 352 592 334 q 592 329 588 316 q 585 303 585 297 q 585 295 588 292 q 592 290 592 280 q 592 271 585 248 q 577 224 577 211 q 577 193 579 191 l 591 186 q 587 184 568 176 q 549 167 542 155 l 560 155 l 517 106 l 517 99 q 526 105 544 110 q 563 116 567 117 l 567 113 q 567 106 558 92 q 550 77 542 67 z m 205 561 q 205 573 196 586 q 188 599 178 599 q 170 599 160 593 q 149 587 146 580 q 146 566 162 564 q 178 561 205 561 z m 220 89 q 220 81 278 66 q 336 50 356 50 q 395 50 450 67 q 450 80 442 91 q 433 102 414 121 q 394 141 384 154 q 375 167 375 182 q 375 192 397 222 q 419 253 428 253 q 443 253 456 241 q 470 229 491 205 q 505 188 512 180 q 520 173 527 173 q 547 173 553 207 q 559 241 560 266 q 560 292 560 297 q 562 306 564 322 q 566 337 567 346 q 567 347 564 352 q 561 357 560 358 q 560 379 542 440 l 536 467 l 511 467 q 519 471 522 477 q 525 483 525 492 q 525 519 496 538 q 467 556 429 566 q 391 575 364 575 l 337 574 l 228 537 q 220 528 204 516 q 184 500 178 493 q 152 460 143 413 q 134 366 134 309 q 134 274 136 232 q 139 191 146 179 l 171 155 l 171 148 q 171 124 178 124 l 231 124 q 231 122 226 108 q 220 94 220 89 z m 131 550 q 124 550 120 540 q 115 529 115 521 q 129 521 142 524 q 154 527 154 531 q 137 548 135 549 z m 135 482 l 141 493 q 139 496 135 498 q 131 500 128 500 q 125 500 122 498 q 118 495 117 493 q 123 485 135 482 z m 83 449 q 104 449 104 463 q 104 474 92 482 q 83 472 83 449 z m 117 419 l 117 426 l 104 426 q 108 419 117 419 z m 78 365 l 104 365 l 104 377 z m 78 335 q 66 335 59 327 q 52 319 52 307 q 66 307 72 312 q 78 316 86 330 l 85 334 q 82 335 78 335 z m 92 291 l 104 265 l 104 298 q 96 298 92 291 z m 87 259 l 67 259 l 67 239 q 74 239 80 246 q 87 252 87 259 z m 431 148 q 435 143 461 117 q 464 125 472 127 q 479 129 491 129 q 502 129 507 130 q 512 132 512 139 q 512 141 504 150 q 495 160 493 160 q 491 160 478 154 q 465 149 461 148 l 452 150 q 452 158 462 168 q 475 181 475 192 q 475 199 470 204 q 466 210 458 210 q 455 210 450 207 q 446 204 443 204 q 441 206 440 212 q 438 217 434 217 q 431 217 423 210 q 415 204 412 204 l 412 173 q 420 172 422 170 q 424 167 426 160 q 427 152 431 148 z m 85 167 q 93 172 100 181 q 108 190 110 198 l 78 198 q 78 175 85 167 z m 468 160 q 484 160 493 173 l 485 173 q 474 173 468 160 z m 184 56 q 185 57 185 65 q 185 72 180 76 q 176 79 166 82 q 149 88 140 98 q 131 107 131 131 q 124 131 116 128 q 109 126 109 121 q 109 98 134 78 q 160 59 184 56 z m 480 86 q 499 108 524 124 l 524 130 q 518 129 501 121 q 484 113 480 111 l 474 106 q 475 101 477 95 q 479 89 480 86 z m 407 7 q 414 7 442 21 q 464 32 469 32 l 488 31 q 493 31 508 44 q 524 57 536 74 q 548 92 548 106 q 543 103 522 89 q 501 75 500 67 q 495 54 480 48 q 464 41 435 33 q 416 28 408 24 q 399 21 399 16 q 399 14 402 10 q 405 7 407 7 z m 572 52 q 572 50 577 46 q 582 43 585 43 q 588 43 592 51 q 597 59 598 62 l 591 63 q 584 63 578 60 q 573 58 573 53 q 572 53 572 52 q 572 52 572 52 z m 604 31 q 614 35 619 40 q 624 46 628 56 l 625 56 q 619 56 612 46 q 605 37 604 31 z m 279 9 q 303 5 315 6 q 315 20 301 20 q 296 20 290 19 q 285 18 280 18 q 272 18 268 22 q 264 26 258 35 q 252 44 246 44 q 232 44 221 31 l 245 19 l 245 12 q 263 12 279 9 z"},"w":{"x_min":0,"x_max":753,"ha":753,"o":"m 650 447 q 649 423 644 404 q 639 386 629 358 q 617 324 613 305 q 609 286 608 273 q 606 264 604 254 q 603 243 600 231 q 598 219 588 202 q 575 178 575 161 q 575 154 576 151 l 545 39 q 546 36 546 30 q 546 10 522 2 q 499 -7 471 -7 l 440 16 q 423 34 410 62 q 397 90 397 102 q 397 106 385 134 q 373 163 369 174 l 354 212 q 348 229 344 254 q 337 288 335 293 l 317 200 q 310 197 294 123 l 285 89 q 270 47 253 26 q 236 5 208 5 q 183 5 150 21 l 149 39 q 149 47 146 50 q 144 54 138 58 q 133 63 131 70 q 125 105 103 160 q 87 201 79 230 q 71 259 71 288 q 62 288 59 291 q 56 294 55 302 q 54 309 51 317 q 47 328 39 346 q 27 375 22 392 q 16 410 14 434 q 14 440 16 450 q 19 459 21 459 l 94 459 q 101 459 120 428 q 139 396 157 359 q 175 322 175 317 l 205 231 q 207 220 210 208 q 212 197 212 194 l 218 194 q 223 194 230 217 q 236 240 246 284 q 264 365 279 412 q 294 459 313 459 q 322 459 322 453 q 348 455 354 455 q 372 455 380 450 q 389 444 394 434 q 398 424 409 392 l 409 389 q 409 385 415 379 l 434 293 q 440 264 458 220 q 477 175 492 175 q 503 175 508 199 q 514 223 522 274 q 528 319 532 330 q 539 350 550 382 q 561 414 569 434 q 568 436 568 440 q 568 449 576 454 q 585 460 594 460 q 633 460 650 447 z m 586 428 q 592 426 593 426 q 600 426 609 435 q 601 437 595 437 q 586 437 586 428 z m 69 379 q 74 379 85 382 q 96 385 101 385 l 83 429 q 79 434 39 434 q 42 421 46 414 q 50 408 60 408 q 62 408 70 410 q 68 409 64 402 q 59 394 57 392 l 57 389 q 57 379 69 379 z m 310 397 q 310 395 312 394 q 315 392 317 392 l 379 392 l 384 397 q 380 407 372 412 q 364 418 353 418 q 344 418 340 416 l 347 422 q 346 427 342 428 q 338 430 332 430 q 322 430 316 420 q 310 409 310 397 z m 625 422 q 611 417 596 406 q 581 396 581 382 q 581 373 595 373 q 580 368 570 354 q 561 339 561 322 q 568 322 579 332 q 590 343 596 343 l 600 342 q 625 381 625 422 z m 340 379 l 304 379 l 299 360 q 305 363 322 368 q 340 374 340 379 z m 361 340 q 362 331 365 326 q 368 320 379 317 q 371 317 366 311 q 361 305 361 298 q 379 298 391 311 q 403 324 403 342 q 403 345 396 356 q 389 368 389 375 q 365 375 347 360 q 355 357 358 352 q 360 348 361 340 z m 76 342 q 77 344 83 352 q 89 361 89 367 l 63 367 q 63 352 76 342 z m 113 360 l 94 342 l 127 342 q 127 350 113 360 z m 317 348 q 289 348 289 335 l 317 335 z m 595 330 q 589 327 576 319 q 563 311 563 308 q 563 304 581 286 q 595 305 595 330 z m 116 249 q 119 249 130 258 q 142 268 150 275 q 141 275 128 278 q 116 280 113 286 q 122 293 130 304 q 139 315 139 323 l 80 323 q 80 305 92 277 q 104 249 116 249 z m 285 323 l 285 317 l 299 323 z m 308 312 q 296 312 284 304 q 273 296 273 284 q 273 282 276 276 q 280 271 280 268 q 280 266 273 256 q 266 247 266 240 q 288 240 298 264 q 308 287 308 312 z m 371 275 l 415 275 q 413 278 410 286 q 408 293 406 296 q 403 299 395 299 q 390 299 380 288 q 371 278 371 275 z m 581 268 q 579 273 568 282 q 558 291 551 293 l 551 250 q 562 250 572 254 q 581 259 581 268 z m 119 231 l 169 231 q 169 253 157 262 q 147 256 135 246 q 123 236 119 231 z m 387 230 q 395 230 406 239 q 417 248 417 256 l 376 256 q 376 249 379 240 q 382 230 387 230 z m 297 238 q 282 238 266 218 q 249 197 249 182 q 270 187 284 202 q 297 217 297 238 z m 570 231 q 570 236 568 237 q 565 238 559 238 q 550 238 547 231 q 544 224 544 212 q 553 212 562 217 q 570 222 570 231 z m 417 231 q 415 230 410 228 q 406 227 403 225 q 405 216 429 216 q 429 222 426 226 q 423 231 417 231 z m 150 169 q 162 169 172 174 q 181 178 181 188 q 181 200 172 200 q 167 200 158 197 q 148 194 138 194 q 150 194 156 201 q 163 208 163 220 q 145 220 135 218 q 125 216 125 204 q 125 188 130 178 q 136 169 150 169 z m 403 188 l 427 200 q 419 209 395 209 q 395 201 397 194 q 399 188 403 188 z m 548 158 q 548 174 550 184 q 551 194 557 200 q 557 201 552 204 q 548 206 545 207 q 543 206 541 204 q 539 202 538 200 q 535 185 532 163 q 529 141 527 126 l 526 117 q 540 117 544 126 q 547 136 548 158 z m 409 170 l 421 169 q 436 169 442 173 q 449 177 449 191 q 430 191 409 170 z m 280 182 l 276 182 q 269 182 259 175 q 249 168 249 160 q 249 154 262 151 q 272 151 275 160 q 278 168 280 182 z m 458 154 q 458 155 457 159 q 456 163 453 163 l 415 151 l 421 126 q 429 124 444 134 q 458 144 458 154 z m 164 157 l 137 157 q 137 149 144 138 q 164 148 164 157 z m 150 120 l 172 119 q 193 119 193 129 q 193 139 191 146 q 189 152 181 152 q 175 152 171 148 q 167 143 160 133 q 154 123 150 120 z m 464 138 l 434 108 q 440 108 456 112 q 472 115 477 120 q 477 128 474 134 q 470 140 468 139 z m 263 138 l 249 138 q 249 112 240 106 q 232 99 213 97 q 192 95 181 89 l 187 101 l 154 101 q 154 89 162 83 q 170 77 184 77 q 194 79 215 84 q 236 90 255 96 q 264 96 264 116 q 263 136 263 138 z m 527 111 q 512 99 492 93 q 489 92 478 88 q 468 84 458 77 q 459 70 471 70 q 484 70 490 74 q 497 77 501 77 q 504 77 511 74 q 518 70 527 70 z m 437 72 q 463 84 477 101 l 468 102 q 455 102 444 98 q 433 94 433 83 q 433 75 437 72 z m 249 77 l 246 77 q 233 76 229 64 q 225 51 225 43 q 235 43 240 50 q 244 58 246 66 q 248 74 249 77 z m 220 71 l 205 71 q 172 71 168 58 q 168 57 205 46 q 211 51 216 58 q 220 65 220 71 z m 483 64 l 446 58 l 445 52 q 445 44 447 39 q 449 34 456 34 q 462 34 472 47 q 483 60 483 64 z m 508 58 q 488 48 477 34 q 480 34 490 34 q 501 34 504 40 q 508 45 508 58 z m 181 34 l 178 34 q 175 34 170 32 q 165 31 162 28 l 168 27 q 174 27 176 28 q 179 29 181 34 z"},"-":{"x_min":0,"x_max":444,"ha":444,"o":"m 293 210 q 236 221 215 221 q 199 221 196 216 l 48 216 l 48 294 q 95 294 189 298 q 283 302 333 302 q 348 295 356 272 q 363 249 363 228 q 363 221 357 212 q 351 203 338 203 q 328 203 293 210 z m 184 240 q 187 240 192 242 q 196 245 196 247 l 270 247 l 276 252 q 276 245 292 245 l 301 245 q 313 245 320 248 q 327 250 327 259 q 327 267 323 270 q 319 272 311 272 q 294 272 290 271 q 286 270 283 265 l 270 271 l 258 265 q 255 266 252 268 q 248 270 246 271 q 227 271 196 265 q 195 272 185 272 q 169 272 162 266 q 154 259 151 259 q 143 259 125 266 q 105 272 101 272 l 96 272 q 85 272 79 270 q 73 267 73 259 q 73 249 88 246 q 104 244 128 244 q 148 244 172 247 q 173 245 177 242 q 181 240 184 240 z"},"E":{"x_min":0,"x_max":518,"ha":518,"o":"m 70 12 q 70 42 71 65 q 72 88 73 103 q 76 150 76 194 l 76 235 q 76 283 74 319 q 71 355 63 389 l 63 654 l 187 654 q 200 649 211 648 q 222 647 243 647 q 255 647 261 654 q 304 654 358 658 l 391 660 q 404 660 470 654 q 472 652 474 648 q 477 644 478 641 q 478 624 473 611 q 469 597 469 585 l 470 574 l 446 568 q 404 571 361 571 q 250 571 163 549 q 158 538 156 530 q 155 522 155 510 q 155 499 159 479 q 163 457 163 447 l 156 389 l 168 377 l 200 375 q 223 375 253 380 q 264 383 273 383 q 280 376 282 376 l 281 376 l 283 375 q 291 375 291 385 l 403 385 q 411 374 415 364 l 427 370 q 423 366 422 360 q 421 353 421 344 q 421 307 422 302 l 409 291 q 328 291 202 284 l 174 283 l 164 284 q 156 284 156 278 l 156 92 l 163 81 q 164 79 200 76 q 237 74 264 74 q 276 74 310 82 q 348 92 365 92 q 378 92 396 90 q 414 87 415 86 l 422 81 q 423 87 433 87 l 446 86 l 435 81 l 449 82 l 455 82 q 461 82 464 80 q 468 79 470 74 q 473 75 476 78 q 480 80 483 81 q 492 75 494 66 q 497 56 497 40 q 497 -9 483 -24 l 456 -25 q 430 -25 415 -22 q 400 -19 378 -9 l 120 -9 q 106 -9 90 -4 q 74 1 70 12 z m 364 623 q 364 615 368 612 q 372 610 380 610 q 391 610 400 615 q 410 620 410 630 l 365 630 q 364 627 364 623 z m 113 580 q 121 580 156 596 q 192 612 193 617 q 177 624 143 624 q 95 624 95 623 l 88 593 q 98 593 120 605 l 106 580 z m 248 617 l 255 617 l 255 623 z m 205 589 q 205 587 208 587 q 219 587 219 598 l 218 605 q 212 603 209 597 q 206 591 205 589 z m 93 548 q 102 548 110 554 q 119 560 124 568 l 120 568 q 109 568 101 563 q 93 558 93 548 z m 94 491 l 95 482 q 112 496 118 506 q 125 516 125 534 l 124 549 q 118 543 106 535 q 95 527 95 525 q 95 517 111 517 l 120 518 q 116 512 109 509 q 102 506 98 502 q 94 499 94 491 z m 100 457 q 118 457 124 459 q 131 461 132 466 q 134 472 134 489 q 117 489 100 457 z m 95 439 l 95 399 q 105 399 119 412 q 133 425 133 437 q 133 439 126 442 q 119 444 113 444 q 108 444 102 442 q 95 440 95 439 z m 105 376 q 138 376 138 402 q 126 402 116 394 q 105 387 105 376 z m 106 326 l 138 358 l 138 366 q 122 366 110 364 q 99 362 99 353 q 99 345 102 337 q 105 329 106 326 z m 341 322 l 391 322 q 380 335 372 352 q 362 349 354 340 q 345 332 341 322 z m 216 309 q 232 309 252 320 q 271 332 279 346 l 265 347 q 247 348 232 336 q 216 325 216 309 z m 298 315 q 301 315 303 327 q 305 339 305 346 l 298 346 l 267 315 z m 214 339 l 144 339 q 137 339 137 326 l 174 326 l 174 315 q 186 315 200 322 q 214 328 214 339 z m 106 295 q 114 295 120 298 q 127 302 127 310 q 106 310 106 295 z m 105 258 q 117 258 121 262 q 125 265 125 276 l 124 283 q 123 282 114 275 q 105 268 105 258 z m 113 222 q 121 225 121 242 q 117 242 112 240 q 106 239 106 234 q 107 232 109 228 q 111 224 113 222 z m 110 182 q 125 182 125 211 q 115 211 112 204 q 110 196 110 182 z m 103 142 q 103 137 104 134 q 104 131 104 130 l 113 130 q 115 130 120 140 q 124 151 124 156 q 124 161 122 168 q 120 174 118 174 l 117 173 q 103 173 103 142 z m 121 92 l 106 92 l 106 73 q 114 73 118 79 q 121 85 121 92 z m 113 24 q 115 26 128 38 q 140 51 140 56 l 124 56 l 124 67 q 118 64 112 51 q 107 38 106 37 l 106 35 q 106 31 109 28 q 112 25 113 24 z m 341 50 l 343 50 q 358 50 360 56 l 354 56 q 350 56 346 55 q 343 54 341 50 z m 378 43 l 378 31 l 427 50 l 365 50 l 341 31 q 357 31 364 32 q 370 34 378 43 z m 466 50 l 439 50 l 439 6 q 456 6 461 18 q 466 30 466 50 z m 218 24 l 236 23 q 252 23 260 26 q 269 30 273 43 l 261 44 q 248 44 236 39 q 224 34 218 24 z m 298 24 q 302 24 310 30 q 318 36 322 43 l 319 44 q 317 44 310 38 q 303 31 298 24 z m 131 24 q 143 24 148 28 q 154 31 163 43 q 146 36 131 24 z m 397 24 l 397 14 q 408 14 418 20 q 429 27 435 37 l 427 37 q 422 37 410 32 q 397 27 397 24 z m 174 24 l 181 23 q 190 23 193 31 l 190 31 q 187 31 182 29 q 177 27 174 24 z"},"s":{"x_min":0,"x_max":458,"ha":458,"o":"m 400 126 q 390 119 386 106 q 382 93 381 90 q 368 59 350 43 q 333 27 313 20 q 293 14 256 7 q 240 5 233 3 l 215 2 l 170 8 q 165 8 131 20 q 91 34 85 34 q 80 34 75 30 q 70 27 66 27 q 47 27 47 97 q 47 126 57 126 q 64 124 75 116 q 86 108 91 108 l 208 82 q 220 82 238 90 q 256 99 270 112 q 283 125 283 138 q 283 149 268 165 q 252 181 233 194 q 214 207 210 207 q 201 207 192 210 q 184 214 177 218 q 161 226 153 226 q 122 226 95 248 q 68 270 52 304 q 35 337 35 369 q 35 437 106 458 q 176 478 246 478 q 356 478 356 452 l 356 386 q 356 377 338 377 q 294 395 271 402 q 248 410 222 410 q 192 410 175 388 q 158 365 158 335 q 158 331 164 322 q 171 312 178 311 l 283 292 q 309 287 336 264 q 364 241 382 211 q 401 181 401 157 q 400 153 396 145 q 393 137 393 132 q 393 131 396 128 q 398 126 400 126 z m 196 441 l 294 441 q 273 445 254 446 q 234 447 219 447 q 204 447 196 447 z m 100 286 q 103 286 116 297 q 130 308 134 311 q 134 327 130 332 q 127 338 115 342 q 127 342 132 354 q 138 367 140 378 q 136 381 124 383 q 112 385 112 387 q 112 388 134 399 q 155 410 159 423 q 184 423 184 431 q 184 441 170 441 q 152 441 126 431 q 99 421 80 404 q 60 386 60 363 q 60 344 72 315 q 83 286 100 286 z m 301 434 q 305 429 312 426 q 318 422 325 422 l 331 423 q 331 431 323 436 q 315 441 306 441 q 305 440 303 438 q 301 436 301 434 z m 332 227 q 332 247 296 256 q 261 265 205 271 q 182 273 178 274 q 172 276 157 284 q 142 293 140 293 q 124 293 109 274 q 115 261 130 261 q 136 261 146 264 q 157 268 165 268 q 164 267 157 264 q 150 262 146 255 q 151 247 181 241 q 211 235 226 235 l 226 225 q 235 224 256 210 q 274 200 276 200 q 286 200 306 209 q 326 218 332 227 z m 347 212 q 337 212 320 199 q 303 186 301 181 q 311 181 327 185 q 342 190 359 190 q 359 212 347 212 z m 375 169 q 375 175 372 178 q 370 181 361 181 l 360 181 q 357 181 338 165 q 320 149 320 145 l 320 136 q 346 136 360 140 q 375 145 375 164 z m 363 113 q 363 122 361 126 l 301 108 q 296 103 294 94 q 291 85 288 82 l 214 53 l 214 49 q 214 33 252 33 q 267 33 272 36 q 276 39 279 46 q 281 57 294 64 q 294 56 296 54 q 299 52 306 52 l 312 52 q 324 52 331 58 q 328 63 322 66 q 315 70 313 71 l 325 82 q 327 78 330 77 q 334 76 338 76 q 350 76 356 88 q 363 100 363 113 z m 208 34 q 203 36 200 45 q 196 54 195 58 l 134 58 q 128 72 112 74 q 97 77 71 77 q 71 52 84 52 q 95 52 97 58 q 102 47 142 38 q 182 28 199 28 q 201 28 204 30 q 208 31 208 34 z"},">":{"x_min":0,"x_max":427,"ha":427,"o":"m 279 236 q 279 230 275 227 q 271 224 261 218 q 246 192 188 116 q 130 40 124 40 q 110 40 82 48 q 55 56 55 68 q 55 78 58 84 q 60 89 68 102 l 154 225 q 161 227 161 246 l 161 251 q 161 258 154 270 q 142 290 111 334 l 68 398 q 57 406 53 410 q 49 415 49 423 q 49 438 70 443 q 92 448 116 448 l 129 448 q 153 399 190 351 q 226 303 277 244 z m 122 397 q 123 397 123 398 q 123 398 123 398 q 117 412 111 417 l 105 411 q 107 405 113 401 q 119 397 122 397 z m 172 325 q 164 342 151 358 q 138 375 123 375 l 123 368 q 123 358 140 342 q 158 325 172 325 z m 172 300 l 191 270 l 202 270 q 202 282 194 292 q 187 301 175 301 z m 197 244 q 197 234 208 232 q 219 230 229 230 q 239 230 242 230 q 242 242 233 252 q 224 263 210 263 q 203 262 200 256 q 197 250 197 244 z m 229 207 q 217 225 197 225 q 204 214 210 210 q 216 207 229 207 z m 179 220 q 174 215 173 210 q 172 206 172 197 q 172 187 180 181 q 189 175 200 175 q 200 192 185 201 l 210 201 q 205 209 192 214 q 180 219 179 220 z m 153 173 q 153 168 160 166 q 166 163 172 163 l 179 164 q 178 165 174 174 q 170 183 163 183 q 160 183 156 180 q 153 176 153 173 z m 164 152 l 160 152 l 172 139 l 179 146 q 175 152 164 152 z m 152 126 q 165 126 167 133 q 155 146 141 146 q 139 146 126 130 q 112 113 111 109 q 111 105 113 98 q 115 92 117 90 l 98 90 l 123 78 q 124 78 128 84 q 133 90 137 94 q 149 110 154 115 l 142 127 q 144 126 152 126 z"},"l":{"x_min":0,"x_max":291,"ha":291,"o":"m 244 47 q 244 41 228 2 q 219 -16 219 -19 l 206 -24 l 206 -16 q 194 -16 184 -17 q 174 -18 165 -18 q 151 -18 144 -12 q 136 -7 136 10 q 110 10 97 29 q 84 48 70 86 q 63 176 60 270 q 58 365 58 493 l 58 557 q 58 644 65 703 q 82 712 108 715 q 112 716 126 718 q 140 721 151 727 l 154 728 q 163 728 163 717 q 163 637 157 475 q 153 396 151 314 q 151 292 147 254 q 146 246 145 233 q 144 220 144 202 q 144 137 160 98 q 176 60 224 60 q 244 53 244 47 z m 85 629 l 99 629 q 99 627 100 626 q 101 625 101 624 q 101 622 96 620 q 92 617 89 617 l 89 580 q 92 584 102 596 q 111 609 114 610 q 113 607 110 598 q 107 588 101 580 q 102 580 105 580 q 108 579 112 579 q 127 579 127 585 l 127 683 q 101 683 93 670 q 85 658 85 629 z m 114 610 z m 108 370 q 105 366 100 364 q 95 361 92 358 q 89 355 89 349 q 89 341 93 333 q 97 325 97 314 l 120 314 l 120 346 l 108 346 q 120 362 120 391 q 120 397 117 407 q 114 417 114 423 l 120 448 q 127 471 127 494 q 126 497 124 500 q 122 504 120 506 q 120 492 108 492 l 101 494 q 108 497 110 503 q 112 509 112 518 l 127 518 l 127 555 q 121 548 110 538 q 100 529 98 529 l 95 530 q 114 551 120 567 q 109 567 96 564 q 83 562 83 553 q 83 530 89 521 q 95 512 95 511 q 95 509 89 496 q 83 482 83 475 q 85 476 88 478 q 92 481 95 481 q 97 481 99 478 q 101 476 101 475 q 98 472 94 465 q 90 458 89 454 q 89 448 94 446 q 100 445 101 444 q 90 441 88 428 q 85 415 85 399 q 93 399 98 404 q 103 408 105 408 l 108 407 q 105 399 98 389 q 92 379 89 375 q 92 370 108 370 z m 95 271 q 97 273 106 278 q 114 283 118 289 q 121 295 121 303 q 107 303 101 295 q 95 287 95 271 z m 133 111 q 133 121 130 124 q 128 127 120 127 l 120 228 l 114 234 q 122 234 122 273 q 112 273 103 262 q 94 252 94 241 q 94 240 98 238 q 101 235 101 234 l 95 228 l 95 185 q 102 183 102 172 q 102 165 99 150 q 95 140 95 128 q 95 117 105 107 q 115 97 115 90 q 115 87 109 80 q 103 72 101 67 q 102 67 107 64 q 112 61 114 61 q 119 61 126 82 q 133 103 133 111 z m 194 18 q 195 19 198 22 q 202 25 202 29 q 202 31 186 39 q 170 47 163 50 q 160 50 153 46 q 146 43 138 43 q 141 44 146 49 q 150 54 151 55 q 151 62 148 69 q 144 76 138 79 q 135 79 128 68 q 122 56 120 50 q 120 29 145 17 q 170 5 191 5 q 197 5 201 13 z"},"8":{"x_min":0,"x_max":585,"ha":585,"o":"m 516 128 q 514 122 510 112 q 507 102 502 98 q 498 94 490 94 q 490 58 470 36 q 449 14 421 3 q 393 -8 350 -19 l 330 -24 q 328 -24 316 -28 q 304 -31 299 -31 q 278 -31 232 -21 q 187 -11 152 5 q 116 21 116 38 q 94 38 78 62 q 63 85 54 116 q 46 147 46 167 q 46 187 50 204 q 54 220 62 246 l 71 276 q 85 295 116 320 q 135 336 143 345 q 151 354 151 364 l 120 395 q 120 399 109 419 q 71 503 71 518 q 71 555 96 585 q 121 615 158 632 q 196 650 231 653 q 238 653 254 659 q 276 667 292 667 q 330 667 368 648 q 406 630 430 598 q 454 566 454 528 q 454 514 448 511 l 448 468 q 443 466 424 434 q 421 430 408 410 q 396 390 386 382 q 379 377 374 377 q 370 377 368 376 q 366 375 366 369 q 366 364 378 352 q 389 341 405 327 q 446 290 471 262 q 496 233 496 209 l 502 209 q 502 198 509 182 q 516 159 516 150 q 516 148 512 144 q 508 141 508 139 q 508 131 516 128 z m 317 648 q 320 648 322 650 q 323 651 323 653 q 323 659 317 659 q 313 659 313 654 q 313 648 317 648 z m 194 602 q 205 602 236 608 q 268 613 293 621 q 318 629 318 637 l 317 641 q 280 636 258 630 q 237 623 233 623 q 194 623 194 616 z m 335 636 q 330 636 320 630 q 311 623 311 613 q 311 598 349 598 l 355 598 l 349 592 q 351 588 357 584 q 363 579 367 579 q 381 581 386 585 q 392 589 392 597 q 392 611 371 624 q 350 636 335 636 z m 114 534 q 123 534 126 536 q 129 537 129 540 l 128 550 q 128 557 130 559 q 133 561 140 562 q 147 563 151 567 q 151 579 145 579 q 184 587 184 606 q 157 606 136 584 q 114 561 114 534 z m 361 505 q 361 540 344 563 q 328 586 295 586 q 236 586 200 574 q 163 561 163 514 q 163 508 167 492 q 171 478 171 468 l 176 468 q 183 445 206 422 q 230 399 252 399 q 277 399 302 416 q 328 432 344 457 q 361 482 361 505 z m 408 586 q 387 586 373 567 q 377 562 382 561 q 388 560 398 560 l 404 560 q 422 560 422 567 q 422 580 420 583 q 417 586 408 586 z m 422 535 l 392 524 l 391 521 q 391 514 401 510 q 411 506 420 506 q 422 506 426 510 q 430 515 430 517 q 430 521 427 528 q 424 534 422 535 z m 133 481 q 133 507 128 517 q 122 527 101 527 q 101 514 106 490 q 110 467 117 467 q 117 467 124 471 q 131 475 133 481 z m 398 481 q 407 481 417 487 q 406 501 384 501 q 384 491 387 486 q 390 481 398 481 z m 418 472 q 404 472 394 470 q 383 467 380 457 q 388 449 399 449 q 408 449 413 456 q 418 463 418 472 z m 201 352 l 262 352 q 234 352 210 376 q 186 401 160 440 q 141 469 136 469 q 133 468 128 464 q 122 460 120 457 q 120 455 126 444 q 131 434 133 431 q 151 409 175 380 q 199 352 201 352 z m 386 431 q 382 433 376 433 q 368 433 352 421 q 335 409 330 400 l 339 399 q 354 399 370 408 q 385 418 386 431 z m 282 364 l 330 364 q 332 364 334 375 q 336 386 337 391 q 321 391 305 384 q 289 376 282 364 z m 299 326 q 304 323 308 321 q 312 319 318 319 q 325 319 330 322 q 335 325 342 333 q 341 345 336 348 q 331 352 321 352 q 312 352 310 349 q 307 346 307 338 q 307 329 299 326 z m 187 315 q 198 316 204 318 q 210 320 213 326 q 209 334 205 337 q 201 340 194 340 q 186 340 174 332 q 163 325 163 317 q 163 317 162 317 q 162 317 162 316 q 162 314 166 310 q 172 313 187 315 z m 225 339 l 225 333 l 250 333 q 244 336 237 338 q 230 339 225 339 z m 349 326 l 349 319 q 364 319 367 326 z m 349 308 q 355 304 372 295 q 389 286 396 286 l 398 287 l 392 259 q 397 254 402 252 q 406 251 414 251 l 422 252 l 404 265 q 417 265 434 259 l 434 271 q 434 277 412 296 q 390 315 383 315 z m 115 276 q 127 276 142 280 q 158 284 169 290 l 151 308 l 150 308 q 146 308 132 294 q 117 281 115 276 z m 235 92 q 270 85 282 85 q 330 85 364 106 q 399 126 399 170 q 399 180 392 199 q 391 202 388 212 q 385 221 385 227 q 385 232 386 234 q 360 270 325 286 q 290 302 244 302 q 232 302 212 292 q 192 281 192 270 l 194 265 l 158 172 l 157 167 q 157 138 168 124 q 179 110 207 98 q 214 97 222 95 q 231 93 235 92 z m 158 276 q 153 276 133 271 q 138 269 146 267 q 153 265 158 265 q 159 265 161 267 q 163 269 163 271 q 163 272 161 274 q 159 276 158 276 z m 75 191 l 101 191 q 100 190 93 187 q 86 184 83 178 l 126 178 q 128 179 130 181 q 132 183 133 185 q 133 198 120 198 l 116 198 q 124 202 136 212 q 147 221 147 229 q 147 230 145 234 l 139 240 l 151 252 q 146 265 116 265 q 95 265 85 240 q 75 216 75 191 z m 434 246 q 426 246 421 240 q 416 233 416 225 q 416 212 426 202 q 435 193 448 193 q 448 201 447 206 q 446 210 441 216 l 444 217 q 449 217 459 210 q 469 202 473 202 l 478 203 q 477 205 474 210 q 472 215 472 218 q 472 220 473 221 q 463 231 451 238 q 439 246 434 246 z m 115 197 l 116 198 q 116 197 116 197 q 115 197 115 197 z m 491 185 q 491 192 476 192 q 463 192 452 190 q 442 188 430 185 q 430 182 432 178 q 434 175 434 172 q 431 171 430 164 q 429 156 429 146 q 429 127 439 110 q 449 92 465 80 q 469 85 474 97 q 478 109 478 115 q 478 122 466 128 q 455 135 448 135 l 454 141 l 441 167 l 448 167 l 484 128 l 491 135 z m 95 104 q 124 112 126 126 l 99 126 q 98 127 96 130 q 95 132 95 134 q 95 142 109 152 q 122 163 122 169 q 117 169 102 170 q 88 170 82 165 q 76 160 76 148 q 76 134 81 122 q 86 110 95 104 z m 126 141 l 120 141 l 120 135 z m 448 67 q 448 73 439 81 q 430 89 430 92 q 429 94 428 102 q 428 109 426 113 q 425 117 419 117 q 417 117 414 114 q 412 112 410 111 l 422 98 q 409 96 391 86 q 373 77 367 67 q 368 63 370 58 q 372 53 372 51 q 364 51 350 53 q 338 56 326 56 l 326 49 q 326 12 345 12 q 356 12 382 21 q 408 30 417 36 q 412 43 404 52 q 397 62 397 63 q 397 66 400 72 q 402 77 404 80 q 409 77 413 68 q 417 60 421 54 q 425 49 432 49 q 439 49 444 54 q 448 60 448 67 z m 107 91 q 144 91 144 111 q 131 112 119 107 q 107 102 107 91 z m 118 74 q 127 74 133 80 l 108 80 q 108 78 110 76 q 113 74 115 74 z m 170 74 l 169 80 l 133 61 l 132 58 q 132 49 151 49 q 159 49 164 57 q 170 65 170 74 z m 274 24 q 274 35 268 44 q 261 52 250 55 q 246 50 238 42 q 231 35 225 30 q 224 30 222 32 q 219 33 216 33 q 216 40 218 45 q 219 50 219 52 q 219 55 212 61 q 205 67 201 67 l 169 36 l 176 24 q 184 26 189 26 q 201 26 221 16 q 229 12 239 8 q 249 5 258 5 q 268 5 271 8 q 274 11 274 24 z m 325 12 l 312 49 q 311 52 303 52 q 291 52 288 40 q 285 27 286 16 q 286 6 286 4 q 306 4 316 5 q 325 6 325 12 z"},"\\":{"x_min":0,"x_max":538,"ha":538,"o":"m 375 46 q 375 64 360 76 l 344 60 l 344 68 q 343 69 338 70 q 334 71 329 71 q 321 71 319 65 q 323 54 326 42 q 329 30 330 25 l 314 25 q 309 25 300 52 q 290 78 289 80 q 257 147 187 271 q 157 323 143 349 q 142 350 140 352 q 139 353 137 354 l 41 545 q 34 551 32 558 q 30 565 30 576 q 30 584 32 586 l 41 591 q 39 592 32 596 q 26 599 26 601 q 27 602 29 606 q 31 609 32 612 q 31 613 29 615 q 27 617 26 617 q 42 623 52 625 q 63 627 81 627 q 87 627 91 621 l 173 475 q 178 470 178 470 q 205 426 228 377 q 252 328 257 317 q 285 256 309 210 q 333 165 365 121 q 365 115 368 110 q 370 104 372 104 q 374 104 376 106 q 383 90 395 71 q 397 67 406 50 q 416 34 416 25 q 414 14 399 14 q 334 14 334 51 q 341 51 354 48 q 367 46 375 46 z m 62 571 q 67 571 75 574 q 83 576 83 578 q 83 590 73 596 q 63 601 50 601 q 50 593 52 588 q 55 582 58 578 q 60 574 62 571 z m 71 545 l 91 566 q 85 566 76 564 q 66 561 66 556 q 66 547 71 545 z m 112 530 q 112 545 97 556 q 78 544 77 528 l 107 528 l 87 515 l 87 509 q 95 509 104 516 q 112 523 112 530 z m 179 412 q 179 423 170 436 q 162 448 153 449 l 158 455 q 153 465 137 490 q 121 515 118 515 q 107 515 102 504 q 96 494 96 493 l 118 493 q 106 484 102 480 q 103 478 105 476 q 107 475 108 475 q 117 475 122 480 q 120 476 116 470 q 112 465 111 462 q 111 454 122 452 q 134 449 143 449 q 136 449 126 446 q 117 442 118 440 q 118 412 179 412 z m 150 378 q 156 378 168 388 q 180 398 180 404 l 137 404 l 147 378 z m 187 357 l 208 358 q 202 382 191 395 q 185 395 174 386 q 163 376 158 368 q 164 357 187 357 z m 223 315 q 223 324 218 336 q 212 349 208 349 l 188 338 l 198 349 l 166 349 q 166 343 174 334 q 182 325 183 318 l 219 310 l 193 310 l 193 298 q 202 298 212 303 q 223 308 223 315 z m 246 236 q 260 236 260 245 l 259 247 l 233 303 l 230 304 q 217 304 203 288 q 205 283 214 280 q 223 277 228 277 l 219 267 q 222 262 225 262 q 227 262 230 267 q 233 272 234 272 q 235 272 236 271 q 237 270 237 270 q 237 267 235 260 q 233 254 233 249 q 233 242 236 239 q 239 236 246 236 z m 248 222 q 249 222 252 220 q 254 217 255 217 q 256 218 260 222 q 265 227 265 233 q 260 233 254 231 q 248 229 248 225 z m 266 175 q 277 175 280 182 q 284 188 284 199 q 284 204 281 214 q 278 223 272 223 q 272 223 272 223 q 273 223 273 222 q 272 220 264 214 q 257 208 257 205 q 257 195 270 195 q 275 195 279 197 q 266 189 266 175 z m 286 135 q 299 135 304 141 q 310 147 310 162 q 308 164 302 173 q 297 182 292 182 q 290 182 284 174 q 278 167 278 164 q 278 155 300 151 q 286 151 286 135 z m 334 79 l 340 79 q 355 79 355 90 q 355 93 342 114 q 329 134 324 141 q 319 141 312 134 q 305 127 305 117 q 305 104 312 92 q 319 79 334 79 z"},"e":{"x_min":0,"x_max":494,"ha":494,"o":"m 94 432 l 96 431 q 102 431 121 444 q 139 456 144 456 q 151 458 180 465 q 210 472 236 472 l 236 463 q 250 468 262 469 q 273 470 285 470 q 316 470 346 464 q 375 458 375 443 q 400 443 414 426 q 429 408 443 378 q 448 367 454 358 q 459 349 464 346 l 464 260 l 446 247 l 451 241 q 424 220 333 220 l 281 220 q 231 220 216 221 q 200 222 155 229 q 154 235 149 235 q 147 235 144 234 q 141 233 138 233 q 138 204 146 169 q 153 134 168 118 q 176 109 212 96 q 230 90 236 87 q 254 74 267 74 q 290 74 317 80 q 344 86 348 87 q 396 100 425 100 q 438 100 442 88 q 447 77 447 59 q 447 40 444 35 q 441 30 433 28 q 425 27 420 20 q 414 18 303 0 q 261 0 228 2 q 196 4 168 13 q 137 23 106 60 q 74 97 53 142 q 32 187 32 219 q 32 269 50 329 q 68 389 94 432 z m 390 370 q 396 370 406 374 q 416 378 416 383 q 416 389 412 400 q 408 412 408 414 q 408 411 404 410 q 399 408 396 408 q 388 409 378 416 q 367 423 367 432 q 338 432 338 446 q 336 446 330 439 q 324 432 308 432 q 303 432 298 436 q 293 440 285 440 l 272 439 q 274 438 282 426 q 289 414 294 413 q 296 413 302 416 q 307 420 311 420 q 315 419 326 414 q 337 410 348 410 q 348 402 366 386 q 384 370 390 370 z m 79 203 q 88 203 98 208 q 107 212 107 220 q 107 222 104 226 q 101 231 101 235 q 103 242 108 252 q 113 263 113 274 q 113 282 110 286 q 106 289 100 292 q 93 295 93 299 q 93 303 100 318 q 106 332 106 337 q 106 347 125 370 q 136 385 142 394 q 148 403 148 412 q 152 412 159 410 q 166 408 173 408 q 176 408 177 414 q 178 419 180 420 q 188 423 212 423 q 235 424 247 426 q 259 427 260 432 q 249 437 239 438 q 229 440 213 440 q 145 440 110 394 q 74 348 74 278 l 106 278 l 106 272 l 69 235 l 69 216 l 81 223 l 69 204 z m 285 303 q 303 303 333 307 q 361 311 379 311 q 379 316 372 332 q 365 347 361 347 l 359 346 q 352 367 314 381 q 277 395 251 395 q 211 395 181 376 q 151 357 137 320 q 142 310 196 306 q 249 303 285 303 z m 377 275 q 361 274 353 271 q 345 268 345 258 q 378 258 397 260 q 416 262 420 272 q 425 264 434 264 q 434 272 430 282 q 427 291 427 296 q 427 300 432 303 q 436 306 438 310 q 441 314 441 326 q 441 365 418 365 q 408 365 406 360 q 403 354 403 339 q 414 306 416 303 l 416 299 q 416 284 406 280 q 396 275 377 275 z m 123 264 q 136 264 140 269 q 145 274 145 287 q 136 287 130 280 q 123 273 123 264 z m 137 253 l 158 257 q 160 257 172 260 q 183 262 199 272 q 196 273 168 278 l 164 278 q 162 278 152 269 q 143 260 137 253 z m 234 253 q 243 253 250 259 q 256 265 256 274 q 206 274 199 260 q 219 253 234 253 z m 294 266 q 280 266 266 262 q 253 259 253 250 l 254 247 q 256 247 290 250 q 323 252 328 266 l 300 266 z m 73 163 q 85 163 94 172 q 102 182 102 194 q 83 194 78 188 q 73 183 73 163 z m 87 140 q 116 140 125 148 q 122 155 115 164 q 108 174 106 180 q 104 177 96 164 q 87 152 87 140 z m 106 99 q 129 111 129 137 q 101 137 94 124 q 99 121 102 112 q 105 104 106 99 z m 156 91 l 155 94 l 119 99 l 112 94 l 144 68 q 156 86 156 91 z m 162 56 q 171 58 182 65 q 193 72 193 75 q 193 80 190 84 q 186 87 184 87 q 175 87 165 78 q 155 70 155 62 q 156 60 158 58 q 160 57 162 56 z m 205 37 q 210 32 211 32 q 226 32 238 42 q 249 51 249 65 q 211 65 211 56 q 211 59 208 64 q 204 69 202 69 q 200 69 190 60 q 179 50 179 47 l 180 44 q 202 39 205 37 z m 254 32 q 271 32 294 36 q 317 40 323 41 q 365 49 378 49 l 390 44 q 402 44 412 49 q 422 54 422 65 q 402 65 368 57 q 363 56 351 53 q 339 50 328 49 q 308 49 286 48 q 263 46 254 44 l 248 37 q 253 32 254 32 z"},"b":{"x_min":0,"x_max":550,"ha":550,"o":"m 51 95 q 51 148 52 193 q 53 238 54 274 q 58 418 58 504 l 58 541 q 58 578 60 609 q 62 640 70 682 q 72 694 80 698 q 89 701 103 701 q 134 701 145 694 q 156 686 156 666 q 156 660 153 654 q 150 647 144 644 l 151 639 q 150 635 150 616 q 150 612 160 465 l 162 441 l 169 434 q 204 453 248 460 q 291 466 342 466 q 343 462 354 458 q 364 453 377 449 q 409 437 427 427 q 445 417 445 402 q 462 402 472 381 q 482 360 492 322 q 499 295 504 283 q 508 271 515 268 q 514 265 514 247 q 514 239 516 230 q 517 222 517 218 q 520 203 520 188 l 515 163 q 516 162 518 160 q 519 158 520 157 q 520 141 501 114 q 467 53 414 25 q 362 -3 289 -3 q 265 -3 225 13 q 188 28 166 28 q 163 28 158 18 q 153 9 148 3 q 143 -3 133 -3 q 113 -3 92 2 q 71 6 58 15 z m 144 385 q 131 405 126 428 q 122 450 122 479 l 123 534 l 119 534 l 126 546 l 126 658 q 126 664 117 670 q 108 675 101 675 q 92 675 90 670 q 87 665 87 654 q 87 632 90 630 q 94 628 94 626 q 94 623 88 611 q 83 599 83 595 q 83 594 88 589 q 94 584 94 583 q 94 579 90 572 q 87 564 87 548 q 87 521 101 521 l 88 496 l 101 491 l 97 492 q 87 492 87 474 q 87 461 90 458 q 94 454 94 452 q 94 449 92 444 q 90 438 88 434 l 108 426 l 88 426 l 88 385 z m 414 79 q 414 77 417 74 q 420 71 423 71 q 430 80 440 86 q 448 92 452 98 q 455 104 455 116 q 468 116 476 119 q 484 122 484 133 q 483 135 481 139 q 479 143 477 145 l 490 145 q 496 145 496 188 q 496 352 423 398 l 424 400 q 424 406 396 414 q 368 421 338 427 q 307 433 295 434 q 253 434 224 421 q 194 408 162 379 l 169 373 l 206 404 q 211 404 253 410 q 311 417 318 417 l 353 416 q 375 390 387 390 l 391 391 l 415 336 l 427 343 l 427 311 q 436 311 441 302 q 446 292 451 272 q 455 256 458 250 q 456 250 454 246 q 452 242 452 240 q 452 238 458 232 q 457 227 456 221 q 454 215 453 212 q 453 205 456 202 q 459 198 466 193 q 474 188 474 180 l 467 180 q 463 180 460 178 q 458 176 458 169 q 458 164 460 162 q 461 159 466 157 q 458 153 455 149 q 452 145 452 138 q 452 129 458 126 q 444 126 430 110 q 415 93 415 80 z m 108 398 l 94 391 q 98 398 105 398 z m 255 71 l 255 65 l 318 65 l 323 59 l 329 71 q 335 74 353 82 q 371 89 376 89 q 405 89 416 128 q 428 167 428 206 q 428 238 417 280 q 406 323 382 354 q 358 385 323 385 q 315 385 231 379 q 206 373 186 344 q 167 316 156 280 q 144 245 144 225 q 144 193 157 172 q 170 150 194 125 q 207 111 214 102 q 220 93 220 85 q 227 85 241 80 q 255 74 255 71 z m 88 367 l 94 366 q 100 366 103 367 q 106 368 108 373 l 101 374 q 91 374 88 367 z m 101 354 l 108 354 q 111 354 128 362 q 146 371 151 373 l 147 373 q 134 373 122 368 q 109 363 101 354 z m 93 316 q 152 316 152 345 l 151 354 q 134 350 114 340 q 93 331 93 316 z m 88 262 l 94 262 l 126 293 l 126 299 l 88 299 z m 106 254 q 114 254 119 262 l 112 268 q 106 262 106 254 z m 114 220 q 105 220 94 212 q 94 216 104 227 q 113 238 113 240 q 113 244 104 247 q 95 250 88 250 l 88 204 q 114 204 114 220 z m 87 181 l 88 176 q 95 178 102 183 q 110 188 110 195 q 87 195 87 181 z m 122 157 l 122 160 q 122 179 112 181 l 88 157 z m 87 131 q 101 131 119 145 l 110 145 q 87 145 87 131 z m 88 114 l 88 107 q 108 107 126 115 q 144 123 144 126 q 144 134 141 136 q 138 138 132 138 q 125 138 106 128 q 88 118 88 114 z m 187 76 q 182 81 176 90 q 171 100 166 104 q 162 109 154 109 q 144 109 138 106 q 133 103 126 95 q 128 95 153 86 q 178 76 187 76 z m 87 55 q 105 55 119 76 l 110 76 q 94 76 94 84 l 108 102 q 93 96 90 88 q 87 80 87 70 q 87 59 87 55 z m 207 50 q 207 57 204 62 q 200 66 194 66 l 187 65 q 200 50 207 50 z m 365 43 l 366 41 q 394 44 410 65 l 406 65 q 397 65 381 58 q 365 52 365 43 z m 99 31 l 103 31 q 114 31 120 34 q 126 36 126 45 q 126 51 125 54 q 124 57 119 59 q 109 50 104 44 q 99 39 99 31 z m 320 27 q 349 27 353 41 l 310 28 z m 269 27 l 299 28 q 290 32 282 33 q 274 34 264 34 l 249 33 q 255 27 269 27 z"},"%":{"x_min":0,"x_max":835,"ha":835,"o":"m 203 47 l 215 63 q 222 74 231 96 q 234 102 239 112 q 244 123 246 124 l 406 390 l 413 396 q 418 400 512 556 q 519 568 526 585 q 541 621 554 641 q 567 661 585 661 q 593 661 600 657 q 607 653 608 652 q 622 642 631 642 q 631 641 618 616 q 604 592 594 574 l 561 513 q 555 498 541 468 q 527 437 523 433 q 496 386 454 315 q 411 244 382 198 q 374 195 372 190 q 369 186 368 177 q 366 168 362 162 q 345 133 310 79 q 274 25 269 25 q 267 25 264 27 q 261 29 259 29 q 259 24 262 18 q 265 12 265 5 l 265 2 q 265 -11 258 -11 l 179 -11 q 176 -11 174 -8 q 172 -4 172 -1 q 172 6 203 47 z m 166 304 q 154 304 153 294 l 123 294 l 129 310 q 124 310 110 303 q 103 307 93 319 q 85 328 80 332 q 74 336 67 336 q 61 336 55 333 q 58 335 62 342 q 67 350 67 353 q 67 353 55 365 q 44 383 37 420 q 30 458 30 486 q 30 529 52 568 q 73 608 110 632 q 146 656 188 656 q 234 656 278 640 q 323 624 332 588 q 352 588 352 534 q 352 459 328 407 q 304 355 246 322 q 239 317 231 310 q 223 304 216 300 q 209 296 200 296 l 191 297 l 197 310 q 179 296 166 292 l 172 303 z m 599 612 q 599 606 603 606 q 608 606 608 612 q 608 618 603 618 q 599 618 599 612 z m 184 371 q 211 371 232 391 q 253 411 265 440 q 277 469 277 495 q 277 516 266 544 q 256 571 238 591 q 219 611 194 611 q 154 611 135 574 q 116 536 116 493 q 116 469 118 453 q 121 437 129 408 q 139 394 155 382 q 171 371 184 371 z m 295 562 q 298 563 300 566 q 302 570 303 571 q 303 583 295 592 q 287 601 275 601 q 275 591 281 580 q 287 569 295 562 z m 586 587 q 586 581 591 581 q 596 581 596 587 q 596 593 591 593 q 586 593 586 587 z m 307 520 q 319 523 322 535 q 324 547 324 564 q 315 564 308 558 q 302 551 302 541 q 302 540 304 532 q 307 523 307 520 z m 542 544 q 547 546 548 550 q 549 553 549 556 q 549 559 549 562 q 542 559 542 544 z m 95 365 q 104 365 108 368 q 111 371 111 379 q 111 390 108 402 q 105 414 98 414 l 90 414 q 90 421 91 424 q 92 428 92 430 q 92 434 86 446 l 86 556 q 74 544 68 526 q 61 509 61 492 q 62 481 66 450 q 70 420 78 392 q 85 365 95 365 z m 304 482 l 321 482 l 321 513 q 304 508 304 482 z m 295 424 q 309 424 309 453 q 300 453 298 444 q 295 436 295 424 z m 505 420 l 499 408 q 500 409 502 411 q 504 413 504 415 q 505 417 505 420 z m 166 322 q 183 322 212 334 q 240 347 262 366 q 285 384 289 402 l 284 402 q 225 340 194 340 q 184 340 176 344 q 167 347 160 352 q 144 364 129 365 q 123 365 114 359 q 104 353 104 350 q 104 347 113 337 q 122 327 125 327 q 135 327 141 347 q 141 322 166 322 z m 451 353 q 451 347 456 347 q 460 347 460 353 q 460 359 456 359 q 451 359 451 353 z m 410 328 q 426 328 426 337 l 425 340 q 419 340 414 336 q 410 333 410 328 z m 550 -6 q 533 -6 533 11 q 491 11 476 58 q 461 106 461 165 q 461 178 462 187 q 462 196 462 198 q 473 217 475 220 q 505 274 532 304 q 558 334 600 334 q 640 334 678 321 q 715 308 715 276 q 724 276 735 259 q 746 242 746 229 q 745 228 743 226 q 741 224 740 224 q 749 218 752 210 q 754 202 754 190 q 754 143 746 100 q 738 56 722 38 l 709 38 l 715 44 l 713 45 q 697 45 697 19 q 697 21 700 24 q 704 26 706 27 l 709 26 q 707 20 681 4 q 655 -11 647 -11 l 555 -11 l 567 -4 q 561 -6 550 -6 z m 374 276 q 407 276 407 304 q 396 304 385 296 q 374 287 374 276 z m 620 300 q 617 300 617 297 q 617 295 619 295 q 622 295 623 297 q 623 300 620 300 z m 678 283 l 678 292 q 675 294 668 296 q 660 297 653 297 q 652 296 650 294 q 648 293 647 292 q 665 283 678 283 z m 571 288 q 571 285 572 285 q 574 285 576 286 q 577 287 577 288 q 577 290 573 292 q 571 292 571 288 z m 234 19 q 244 19 247 22 q 250 25 253 38 q 257 56 266 72 q 275 88 291 111 q 293 114 306 132 q 319 149 326 168 q 337 201 339 205 q 342 207 350 212 q 357 216 357 220 q 357 229 351 229 q 359 229 364 232 q 370 236 370 241 l 369 255 q 384 255 384 269 q 373 269 346 232 q 320 194 296 154 q 272 113 265 100 l 221 19 z m 396 254 q 396 248 401 248 q 403 248 404 250 q 405 252 405 254 q 405 256 404 258 q 403 260 401 260 q 396 260 396 254 z m 601 50 q 621 50 638 70 q 654 90 664 117 q 673 144 673 162 l 672 186 l 668 185 q 658 185 658 201 q 658 208 662 214 q 666 221 666 224 q 663 241 647 248 q 631 255 612 255 q 590 255 572 238 q 555 220 546 196 q 536 171 536 151 q 536 142 538 137 q 541 132 548 124 q 555 117 555 109 q 555 108 552 102 q 549 97 549 94 q 552 83 572 66 q 591 50 601 50 z m 513 230 q 513 224 518 224 q 522 224 522 230 q 522 236 518 236 q 513 236 513 230 z m 711 212 q 711 206 716 206 q 721 206 721 212 q 721 218 716 218 q 711 218 711 212 z m 371 211 q 371 205 376 205 q 380 205 380 211 q 380 217 376 217 q 371 217 371 211 z m 505 179 l 505 186 l 493 186 q 497 179 505 179 z m 718 164 q 718 162 721 162 q 725 162 725 165 q 725 168 722 168 q 718 168 718 164 z m 334 149 q 334 143 339 143 q 341 143 342 145 q 343 147 343 149 q 343 151 342 153 q 341 155 339 155 q 334 155 334 149 z m 493 136 q 493 109 502 80 q 510 50 514 50 q 519 50 522 53 q 525 56 525 60 q 524 63 514 92 q 503 122 494 152 q 493 147 493 136 z m 711 134 q 711 128 716 128 q 721 128 721 134 q 721 140 716 140 q 711 140 711 134 z m 297 94 q 297 88 302 88 q 304 88 305 90 q 306 92 306 94 q 306 96 305 98 q 304 100 302 100 q 297 100 297 94 z m 685 90 q 685 84 690 84 q 694 84 694 90 q 694 96 690 96 q 685 96 685 90 z m 647 26 l 653 26 l 653 32 l 647 32 z m 555 19 l 555 26 l 542 26 q 546 19 555 19 z m 589 17 q 585 17 585 14 q 585 10 588 10 q 591 10 592 14 q 592 17 589 17 z"},"m":{"x_min":0,"x_max":889,"ha":889,"o":"m 51 55 q 51 83 57 137 q 64 186 64 221 q 64 243 59 275 q 56 290 56 304 q 56 343 60 403 q 63 438 63 458 l 70 465 q 72 464 91 464 q 104 464 114 467 q 123 470 130 470 q 137 470 144 458 q 150 446 150 440 q 163 445 182 456 q 213 471 232 478 q 252 484 280 484 q 324 484 366 462 q 408 439 439 403 l 443 402 q 446 402 481 427 q 516 452 520 458 l 600 477 q 685 477 736 421 q 786 365 797 280 l 796 237 q 796 211 803 200 l 804 76 q 804 34 790 12 q 777 -10 735 -10 q 701 -10 692 18 q 682 46 681 97 q 681 122 680 132 q 680 137 674 189 q 667 235 667 249 q 667 257 671 273 q 674 294 674 295 q 674 355 606 378 l 606 384 q 596 376 562 371 q 526 366 504 355 q 481 344 476 316 l 475 271 q 475 238 478 198 q 481 159 482 146 q 489 74 489 23 q 489 0 413 0 q 395 0 383 4 q 371 7 371 21 l 359 14 q 360 24 360 41 q 366 133 366 205 q 366 229 361 268 q 356 306 348 341 q 329 362 312 372 q 296 381 267 390 q 261 396 261 396 q 258 391 232 376 q 206 360 187 354 q 187 350 178 323 q 163 278 162 268 l 161 243 q 161 226 165 194 q 169 160 169 144 q 169 100 164 47 q 158 -6 143 -16 l 122 -17 q 114 -17 81 -9 q 48 -1 52 1 z m 182 393 q 192 408 198 415 q 205 422 211 422 l 205 409 q 216 410 230 415 q 250 421 261 421 l 261 413 q 269 413 280 420 q 291 428 298 428 l 291 422 q 300 414 307 412 q 314 409 326 409 q 334 409 341 413 q 348 417 348 425 q 348 445 327 449 q 306 453 278 453 q 260 453 250 450 q 239 446 224 433 l 230 446 q 203 436 176 418 q 149 401 149 378 q 149 373 150 371 l 119 341 q 138 341 152 355 q 166 369 182 393 z m 725 234 q 752 236 766 243 l 767 281 q 767 305 760 326 l 742 326 q 745 327 749 334 q 753 340 754 343 q 754 356 739 376 q 724 397 704 412 q 685 428 673 428 q 668 428 662 426 q 656 423 650 423 q 650 425 652 428 q 655 430 655 432 q 655 441 634 444 q 612 446 594 446 q 566 446 538 432 q 511 418 495 396 l 501 390 l 563 422 l 557 409 q 577 423 587 428 l 575 409 q 640 396 645 396 l 662 398 q 662 387 664 384 q 665 381 669 381 l 681 382 l 680 371 q 682 369 686 358 q 691 348 695 348 q 700 349 708 352 q 716 355 723 359 q 717 353 710 344 q 703 334 703 332 q 703 328 710 326 q 717 324 717 323 q 717 319 715 314 q 713 308 711 304 l 723 304 q 717 295 715 279 q 713 266 710 260 q 708 253 699 249 q 700 249 702 248 q 704 248 708 248 q 721 248 729 254 l 704 231 z m 125 384 q 120 390 119 394 q 118 398 118 407 q 118 411 122 418 q 125 425 125 428 q 125 434 103 434 q 88 434 88 425 q 88 420 91 414 q 94 407 97 407 q 98 407 100 409 l 88 390 q 89 388 92 386 q 94 384 96 384 q 102 384 106 385 q 111 386 113 386 l 113 378 z m 352 390 q 359 391 373 394 q 387 398 396 403 q 388 412 381 417 q 374 422 366 422 q 357 422 352 418 q 348 414 345 408 q 342 403 340 400 q 340 395 344 392 q 348 390 352 390 z m 358 370 q 382 370 396 390 l 389 390 q 377 390 368 386 q 358 381 358 370 z m 371 359 q 409 359 421 378 l 409 384 q 406 384 388 372 q 371 361 371 359 z m 384 304 q 401 311 416 313 q 428 316 434 320 q 441 323 453 338 q 465 353 483 378 l 476 379 q 465 379 443 364 q 421 348 402 330 q 384 311 384 304 z m 88 348 l 94 348 l 94 354 z m 371 331 q 371 328 378 328 q 383 330 396 336 q 409 343 409 348 l 409 354 q 392 353 382 349 q 371 345 371 331 z m 383 278 q 389 281 406 290 q 424 298 433 304 q 433 306 431 308 q 429 310 427 310 q 411 310 397 302 q 383 293 383 278 z m 388 241 q 388 238 389 236 q 397 238 414 253 q 416 255 425 262 q 434 269 439 269 l 439 297 q 427 292 406 278 q 384 263 384 261 l 415 261 q 388 255 388 241 z m 410 195 q 401 191 397 186 q 393 181 393 168 q 415 168 434 192 q 452 217 452 239 q 452 247 450 251 q 449 255 443 255 q 430 255 410 238 q 389 220 389 212 q 389 210 392 208 q 394 206 396 206 q 400 206 411 209 q 422 212 433 212 q 425 199 410 195 z m 112 212 l 113 206 q 129 208 134 214 q 139 221 139 238 q 129 237 120 230 q 112 222 112 212 z m 711 181 q 735 181 754 188 q 772 196 772 212 q 772 213 766 231 q 743 216 711 181 z m 706 199 q 711 199 735 223 l 729 223 q 718 223 708 220 q 698 217 698 209 q 698 205 701 202 q 704 199 706 199 z m 409 156 l 452 156 l 452 189 q 440 189 431 180 q 422 172 409 156 z m 717 144 l 723 144 q 732 144 754 153 q 775 162 775 166 q 775 173 770 177 q 765 181 757 181 q 749 181 730 175 q 710 169 710 156 l 711 149 q 721 161 727 166 q 733 170 742 170 l 748 168 q 741 164 730 156 q 720 147 717 144 z m 88 156 l 91 155 q 94 155 113 174 l 110 174 q 101 174 95 169 q 89 164 88 156 z m 721 55 q 726 38 726 25 q 773 25 773 54 q 773 61 766 63 q 773 65 773 75 q 773 81 770 92 q 766 102 766 107 q 767 108 769 110 q 771 112 772 113 q 773 120 774 132 q 775 145 775 153 q 761 153 746 146 q 730 138 711 126 q 711 115 716 104 q 721 94 721 88 l 715 88 q 715 71 721 55 z m 396 95 l 446 144 q 410 144 400 134 q 389 124 389 103 q 389 101 391 98 q 393 95 396 95 z m 454 127 q 441 127 432 120 q 424 112 415 98 l 433 98 q 433 91 422 86 q 410 81 389 75 l 389 63 q 414 64 434 84 q 454 103 454 127 z m 82 95 q 95 103 100 119 q 97 118 86 114 q 75 111 75 107 q 75 104 78 100 q 80 96 82 95 z m 116 87 q 132 87 132 100 l 131 107 q 130 106 123 100 q 116 95 116 87 z m 427 33 l 427 45 l 440 45 q 440 42 439 40 q 438 39 438 38 q 438 36 446 33 l 452 39 l 452 82 q 438 74 423 67 q 419 65 408 59 q 396 53 396 49 q 396 43 399 42 q 402 40 403 39 l 396 33 z m 100 52 l 82 52 l 82 36 q 90 36 100 52 z m 100 21 l 125 21 l 125 39 z"},"#":{"x_min":0,"x_max":716,"ha":716,"o":"m 574 476 q 601 476 609 473 q 603 463 594 430 q 591 418 587 408 q 583 398 579 398 q 570 391 552 389 q 535 387 509 387 q 455 387 455 306 q 455 294 472 290 q 489 287 515 287 l 529 287 q 537 287 541 288 q 543 285 545 280 q 547 274 547 270 q 547 261 532 238 q 516 214 511 214 q 499 214 492 226 l 485 220 l 418 202 q 412 201 405 184 q 398 168 389 141 q 381 112 375 104 q 369 94 365 79 q 361 67 358 62 q 354 57 346 57 q 346 50 348 44 q 349 38 349 34 q 349 27 338 17 l 345 17 q 345 6 340 0 q 336 -5 325 -8 q 326 0 313 0 q 303 0 288 -3 q 264 -7 254 -7 q 240 -7 234 -1 l 233 -2 q 241 20 254 54 q 267 87 276 109 q 279 116 282 122 q 284 127 286 131 q 301 155 301 175 q 301 191 284 194 q 268 197 234 197 q 218 197 208 194 q 199 192 196 184 q 167 94 145 37 q 123 -20 109 -20 q 102 -20 88 -16 q 75 -11 64 -11 q 64 -5 53 1 q 42 7 42 10 l 84 165 q 84 186 80 191 q 75 196 63 198 q 53 198 42 202 q 40 202 37 205 q 34 208 28 208 q 28 221 36 258 q 43 294 47 306 l 91 306 q 98 315 106 318 q 114 322 127 324 q 146 326 156 334 q 165 343 165 372 l 165 375 q 165 386 159 386 l 79 386 q 75 386 72 395 q 69 404 66 405 q 83 461 84 473 q 84 483 96 486 q 107 490 130 490 l 160 489 q 215 489 239 504 q 245 521 254 564 q 260 599 268 619 q 275 639 294 652 q 312 664 346 664 q 355 664 359 654 q 363 643 363 633 q 363 625 360 621 q 356 617 343 609 l 325 510 l 326 498 l 398 498 q 400 496 404 494 q 409 492 412 492 q 420 492 429 508 q 438 525 444 542 q 450 560 451 566 l 457 566 q 457 600 462 624 q 467 647 485 659 q 490 659 527 666 q 551 670 553 670 l 559 671 l 559 664 l 572 664 q 565 657 565 651 q 565 648 566 645 q 567 642 567 637 q 567 626 554 607 q 545 594 541 584 q 540 581 538 566 q 537 551 534 542 q 532 534 525 534 l 522 535 l 529 528 q 527 524 522 514 q 516 503 516 501 q 516 485 530 481 q 544 477 574 476 z m 479 546 q 499 546 514 576 q 529 606 535 633 q 529 635 519 635 q 491 635 491 614 l 492 609 l 511 609 l 479 566 z m 294 602 q 294 600 296 598 q 298 596 300 596 q 305 601 312 608 q 320 616 320 617 q 320 620 314 624 q 309 629 305 629 q 300 629 297 619 q 294 609 294 602 z m 289 559 q 290 558 292 556 q 294 553 298 553 q 308 553 308 585 q 299 585 294 578 q 289 570 289 559 z m 566 461 q 560 456 539 449 q 518 442 511 442 q 509 442 506 445 q 504 448 502 448 l 490 447 q 490 456 486 466 q 483 476 483 488 l 461 488 q 482 503 493 518 q 504 533 504 554 l 473 522 l 479 516 q 455 507 455 485 q 455 473 473 467 q 446 433 446 430 l 455 430 q 448 417 433 413 q 424 409 420 404 q 416 398 416 378 q 416 363 424 363 q 419 363 414 359 q 409 355 409 350 l 418 350 q 422 353 433 364 q 444 374 448 381 q 453 388 454 399 q 454 410 460 414 q 466 418 492 418 q 506 422 532 434 q 558 446 559 448 z m 252 473 q 245 467 239 460 q 233 453 233 448 l 270 454 q 268 458 268 466 q 268 492 300 528 l 289 541 q 276 528 276 508 q 276 499 270 491 q 263 483 252 473 z m 208 405 q 210 403 214 401 q 219 399 223 399 q 226 399 237 408 q 248 416 251 418 q 262 422 279 424 q 292 426 302 430 q 312 433 325 442 l 307 418 q 321 418 328 420 q 335 423 344 428 q 353 433 361 436 q 355 426 355 416 q 364 416 378 426 q 391 436 396 436 q 398 436 402 434 q 405 433 405 430 q 427 440 442 464 l 405 464 l 405 473 q 404 473 390 470 q 377 467 365 467 q 361 467 360 470 q 358 472 357 473 q 332 473 284 450 q 236 426 208 405 z m 178 445 q 178 455 162 455 q 147 455 134 448 l 140 461 q 138 462 128 462 q 116 462 112 456 q 108 449 108 436 l 120 436 l 122 430 q 121 428 116 424 q 112 420 109 418 l 124 416 q 141 416 153 422 q 165 429 178 445 z m 182 415 q 195 415 210 420 q 226 426 233 436 l 214 448 l 226 461 l 220 462 q 207 462 194 446 q 182 429 182 415 z m 566 436 q 556 436 542 428 q 527 421 522 418 l 553 417 q 560 417 563 420 q 566 424 566 436 z m 430 430 q 417 425 412 418 l 415 418 q 415 418 421 420 q 427 421 430 430 z m 350 306 l 387 381 q 387 384 371 390 q 355 397 343 400 q 344 395 326 392 q 307 389 290 388 q 274 386 270 386 q 267 386 258 371 q 248 356 238 340 q 221 313 220 313 l 233 300 l 303 299 q 343 299 350 306 z m 214 386 l 208 393 l 196 381 q 199 381 204 384 q 210 386 214 386 z m 193 354 q 224 354 224 376 q 214 376 204 370 q 193 364 193 354 z m 99 231 q 134 231 140 245 l 118 245 q 118 255 128 260 q 139 264 158 267 q 182 271 189 276 q 188 278 188 281 q 188 287 191 292 q 194 298 195 300 q 202 311 202 319 q 202 320 198 323 q 195 326 195 328 q 195 332 200 337 q 206 342 208 344 l 198 345 q 188 345 180 320 q 172 294 172 282 q 164 283 153 285 q 142 287 134 288 l 134 300 q 127 293 103 284 q 75 275 61 263 q 63 258 66 249 q 68 240 76 236 q 83 231 99 231 z m 424 337 q 408 333 400 326 q 392 318 392 304 q 402 304 412 315 q 421 326 424 337 z m 380 276 l 393 275 q 419 275 419 290 l 418 300 q 392 292 380 276 z m 257 263 q 252 264 245 264 q 238 265 233 265 q 207 265 173 252 q 139 238 134 220 q 133 218 133 215 q 133 210 136 208 q 140 207 146 207 q 172 207 202 239 q 203 234 206 232 q 210 231 216 231 q 226 231 234 238 q 242 245 248 252 q 255 260 257 263 z m 425 264 q 425 265 424 265 q 424 265 424 265 q 422 265 404 259 q 372 246 357 246 l 357 259 q 342 259 314 250 q 287 240 287 229 q 287 223 303 222 q 319 220 329 215 q 339 210 339 194 q 345 194 366 208 q 388 223 406 240 q 425 257 425 264 z m 428 238 l 436 239 q 442 241 470 243 q 514 247 516 251 l 516 265 q 485 265 473 263 q 465 263 446 254 q 428 245 428 238 z m 294 251 l 307 263 q 294 263 294 251 z m 380 202 l 357 189 q 358 185 362 184 q 365 183 369 183 q 376 183 378 188 q 380 192 380 202 z m 128 184 l 140 189 l 128 189 z m 165 189 l 134 171 q 138 171 142 168 q 147 164 147 161 l 146 158 q 157 165 161 171 q 165 177 165 189 z m 359 172 q 329 172 329 158 q 359 158 359 172 z m 368 158 l 325 140 l 338 127 q 311 125 311 108 q 330 108 345 123 q 360 138 368 158 z m 128 153 q 120 153 114 148 q 109 143 109 134 q 128 143 134 152 z m 133 127 q 144 127 148 130 q 153 132 153 140 l 152 146 q 134 135 128 127 z m 343 109 q 286 94 286 37 q 286 25 308 23 q 319 26 326 44 q 334 62 338 81 q 342 100 343 107 z m 106 104 q 101 102 99 100 q 97 97 97 90 l 109 104 z m 134 97 l 131 98 q 129 98 126 96 q 122 93 122 90 q 134 90 134 97 z m 109 56 q 119 70 122 72 l 119 72 q 96 72 90 64 q 84 56 84 29 q 90 29 109 56 z m 115 49 l 122 54 l 115 54 z m 109 23 l 106 23 q 99 23 94 19 q 88 15 88 9 q 95 9 100 12 q 104 16 109 23 z"},",":{"x_min":0,"x_max":221,"ha":221,"o":"m 37 -77 q 37 -68 41 -60 q 45 -51 50 -43 q 55 -36 58 -28 q 62 -20 62 -13 q 62 -11 55 -2 q 48 8 47 12 q 46 17 44 28 q 43 39 42 48 q 41 50 41 54 q 41 67 54 70 q 67 74 97 76 q 108 76 128 78 q 138 77 138 72 l 137 68 q 137 64 143 62 l 139 57 q 144 55 144 48 l 143 43 l 139 48 l 138 39 l 138 35 q 138 30 143 27 q 140 27 139 22 q 138 16 138 9 q 138 -1 139 -3 q 130 -4 124 -15 q 117 -26 108 -46 q 97 -71 88 -83 q 80 -95 67 -95 l 67 -89 q 59 -89 48 -87 q 37 -85 37 -77 z m 82 32 q 92 32 103 37 l 103 33 l 120 33 q 120 41 116 47 q 112 53 112 57 q 108 57 90 50 q 71 42 71 40 q 71 32 82 32 z m 88 17 l 103 17 l 103 22 l 88 22 z m 62 -64 l 65 -65 l 67 -64 q 71 -62 94 -34 q 117 -5 117 2 l 117 7 q 99 3 85 -18 q 71 -40 62 -64 z"},"n":{"x_min":0,"x_max":577,"ha":577,"o":"m 393 30 l 394 64 q 396 110 396 133 q 396 240 375 321 q 361 333 351 344 q 337 359 324 365 q 311 371 280 371 q 258 371 237 364 q 216 358 184 339 q 172 332 168 318 q 164 303 164 281 q 164 227 166 196 q 168 164 178 136 l 178 7 q 178 1 169 1 q 139 3 114 5 q 89 7 86 7 l 67 19 q 66 20 64 75 q 61 130 61 173 q 61 214 64 250 q 68 308 68 361 l 67 450 q 74 455 86 458 q 97 462 104 462 q 118 462 126 455 q 134 448 141 435 q 150 420 157 420 q 170 420 182 426 q 194 431 215 442 q 240 456 256 462 q 271 469 289 469 q 320 469 385 441 l 407 432 q 466 409 486 326 q 507 244 507 152 q 507 126 502 94 q 498 56 498 38 q 498 25 499 19 q 489 19 488 9 q 487 -1 480 -8 q 473 -14 443 -14 q 445 -8 445 -3 q 445 -1 444 -1 q 442 -2 436 -6 q 431 -11 426 -12 q 415 -12 407 -7 l 402 1 q 402 18 393 30 z m 338 395 q 342 394 357 381 q 359 380 368 372 q 378 364 385 364 q 393 364 393 371 l 388 376 q 390 380 398 384 q 407 388 407 392 q 407 402 385 402 q 378 402 372 398 q 367 395 363 395 q 358 402 354 402 l 352 401 l 357 413 q 350 420 337 420 q 331 420 322 418 q 313 417 308 417 l 308 437 q 270 437 265 420 l 265 432 q 261 429 253 428 q 245 426 243 425 q 226 422 218 418 q 209 413 209 402 q 209 401 212 399 q 215 397 215 395 l 228 407 q 228 407 234 401 l 237 401 q 240 402 246 406 q 252 410 252 413 l 258 407 q 273 407 299 404 q 325 400 338 395 z m 142 181 q 142 194 141 204 q 140 213 139 220 q 135 244 135 258 q 135 266 136 271 l 123 266 q 130 276 132 282 q 135 289 137 300 l 141 321 q 146 340 156 353 q 167 366 182 377 q 198 389 198 396 q 198 399 197 401 q 190 399 174 385 q 172 384 164 378 q 156 371 151 371 q 142 371 138 376 q 134 380 129 391 q 125 399 122 404 q 118 408 111 408 q 107 408 104 407 q 106 409 108 413 q 110 417 110 420 q 110 423 106 424 q 101 426 100 427 q 99 427 96 419 q 92 411 92 407 q 92 389 96 359 q 99 341 99 330 l 98 309 q 100 309 102 306 q 104 304 104 303 q 104 295 98 279 q 92 261 92 253 l 117 253 l 98 235 l 104 228 q 92 219 88 209 q 84 199 84 182 q 103 182 110 198 q 110 194 112 194 q 112 193 102 179 q 91 165 91 162 l 123 162 l 92 148 l 92 103 q 101 103 122 135 q 142 167 142 181 z m 426 358 l 426 362 q 426 375 419 376 q 393 366 393 345 l 413 345 l 400 333 l 407 326 q 420 332 423 338 q 426 345 426 358 z m 414 282 q 427 282 442 295 q 456 308 456 321 q 456 325 451 332 q 446 339 441 339 q 430 339 421 330 q 412 320 412 309 l 444 309 q 432 307 423 300 q 414 293 414 282 z m 421 259 q 439 259 450 262 q 462 266 462 278 q 462 283 461 288 q 460 292 456 297 q 443 293 432 282 q 421 271 421 259 z m 424 241 l 425 235 q 429 236 433 242 q 437 247 438 250 l 437 253 q 424 253 424 241 z m 431 212 q 431 197 429 191 q 446 191 458 206 q 470 221 470 239 l 468 253 q 453 247 442 240 q 431 234 431 226 z m 434 97 q 450 97 466 112 q 481 127 481 142 q 481 146 480 148 q 474 206 472 206 q 470 206 453 194 q 436 181 436 175 q 436 173 439 170 q 442 167 444 167 q 436 167 432 161 q 428 155 428 148 q 438 148 450 158 q 460 166 468 166 l 468 162 q 439 146 432 121 l 450 121 q 434 117 434 97 z m 109 111 l 141 111 q 145 111 148 124 q 150 138 150 153 q 140 153 124 137 q 109 121 109 111 z m 435 19 l 472 19 q 472 51 456 56 q 459 57 466 62 q 474 66 474 68 l 474 111 q 447 91 441 74 q 435 57 435 19 z m 83 68 l 98 68 l 129 99 l 123 99 q 103 99 93 93 q 83 87 83 68 z m 95 30 l 148 30 q 150 31 152 34 q 154 37 154 39 q 154 43 150 50 q 147 58 147 60 q 147 62 152 65 q 157 68 160 68 q 156 70 154 77 q 153 84 152 88 q 150 93 145 93 q 133 93 116 76 q 100 58 98 56 l 117 56 q 114 51 108 48 q 101 45 98 42 q 95 38 95 30 z"},"h":{"x_min":0,"x_max":555,"ha":555,"o":"m 430 67 q 430 64 436 41 q 442 18 442 5 q 442 -6 424 -9 q 407 -12 386 -12 q 364 -13 364 -14 q 362 -13 356 -9 q 350 -5 350 -2 l 350 196 q 350 242 347 280 q 344 318 332 344 l 331 344 q 326 344 298 360 q 271 377 269 381 q 269 380 236 374 q 204 369 174 354 q 145 340 140 313 q 138 302 136 285 q 134 268 134 257 q 132 233 132 219 q 126 139 126 98 q 126 73 127 61 l 121 55 q 123 52 132 40 q 140 27 140 16 q 140 10 137 4 q 134 -2 127 -2 l 54 -2 q 51 4 44 5 q 38 6 36 11 l 35 93 q 35 160 45 294 q 46 310 50 374 q 54 438 54 493 q 54 515 53 544 q 52 574 51 590 q 47 656 47 689 l 121 689 l 134 683 l 134 631 q 134 462 140 462 l 146 449 q 179 460 222 470 q 266 480 291 480 q 336 480 374 452 q 411 423 432 379 q 454 335 454 292 q 454 267 450 236 q 446 205 445 196 q 435 130 435 96 q 435 80 436 72 q 434 72 432 70 q 430 69 430 67 z m 72 653 q 72 638 82 602 q 90 570 90 561 q 90 558 88 554 q 86 550 84 548 l 84 449 l 90 443 q 86 443 84 433 q 81 423 81 412 l 97 412 q 82 401 82 392 q 88 392 100 398 q 111 403 115 406 q 115 414 111 428 q 107 442 103 443 q 104 445 106 451 q 108 457 109 462 q 109 475 105 499 q 100 521 100 541 l 97 541 q 102 550 103 558 q 104 565 104 579 q 104 596 100 598 q 97 601 97 603 q 97 608 100 618 q 104 627 104 640 q 104 654 102 659 q 101 664 97 664 q 90 664 81 660 q 72 656 72 653 z m 332 437 q 323 443 306 443 q 290 443 288 443 l 257 405 l 263 400 q 272 400 332 437 z m 172 392 q 256 422 263 437 l 257 443 q 181 424 184 424 l 171 425 q 167 423 156 410 q 149 401 144 396 q 138 392 131 392 q 127 392 124 396 q 122 399 121 400 q 100 393 89 386 q 78 378 78 363 q 78 351 90 351 q 116 356 125 360 q 134 365 138 372 q 141 379 146 381 z m 332 392 q 341 392 352 398 q 363 404 368 412 l 355 425 l 325 393 z m 245 418 l 220 405 l 229 404 q 237 404 241 406 q 245 409 245 418 z m 325 418 q 324 417 310 413 q 297 409 282 400 q 284 398 289 396 q 294 393 296 392 q 299 392 308 401 q 318 410 325 418 z m 380 344 l 373 331 l 387 326 l 373 313 q 383 313 400 322 q 418 330 418 344 q 418 350 414 354 q 410 358 404 358 l 399 357 l 405 368 q 405 378 400 386 q 395 394 387 394 q 377 394 366 386 q 356 378 350 368 l 362 363 q 361 358 358 352 q 356 346 355 344 q 355 342 358 340 q 360 339 362 339 q 365 339 371 342 q 377 344 380 344 z m 101 262 q 101 313 109 344 q 107 343 103 342 q 99 340 97 339 q 80 331 76 326 q 71 320 71 305 q 71 301 72 301 l 84 294 l 72 283 l 72 203 l 84 196 q 76 194 70 188 q 64 181 64 173 q 71 173 82 168 q 94 164 97 159 q 104 169 104 184 l 90 184 q 95 197 103 203 q 101 233 101 262 z m 428 321 q 404 321 386 306 q 368 291 368 267 q 394 267 411 281 q 428 295 428 321 z m 424 277 q 413 277 396 267 q 379 257 379 246 l 393 246 q 390 241 384 238 q 379 236 376 234 q 372 231 372 224 q 389 224 406 242 q 424 259 424 277 z m 403 159 q 403 167 411 183 q 412 185 418 198 q 423 211 423 229 q 423 232 422 236 q 420 239 417 239 l 380 215 l 380 213 q 380 203 387 203 q 380 197 374 190 q 368 182 368 178 l 380 184 q 379 183 379 181 q 379 178 382 175 q 384 172 387 171 q 385 169 382 167 q 380 165 380 159 q 381 157 383 156 q 385 154 387 153 l 380 147 l 380 15 l 388 15 q 399 15 405 18 q 411 21 411 30 q 411 46 410 58 q 409 69 408 77 q 404 109 404 129 l 399 129 q 414 144 414 159 z m 78 141 l 84 153 q 77 153 71 150 q 65 147 65 143 q 65 137 70 136 q 74 134 81 134 q 89 134 94 135 q 98 136 103 141 q 103 143 100 145 q 98 147 97 147 q 94 147 87 144 q 80 141 78 141 z m 104 55 q 104 61 103 68 q 102 74 97 79 q 94 78 88 75 q 82 72 78 72 l 103 97 q 99 117 93 117 l 90 116 l 97 129 q 68 127 59 109 q 59 108 62 106 q 64 104 66 104 q 69 104 72 106 q 76 108 78 109 l 66 91 l 72 85 q 67 83 66 80 q 65 78 65 73 q 66 69 69 60 q 72 52 72 48 q 71 47 68 45 q 65 43 65 38 q 65 36 72 33 q 79 30 84 30 q 94 30 99 38 q 104 45 104 55 z"},"z":{"x_min":0,"x_max":500,"ha":500,"o":"m 415 67 l 433 5 q 429 -6 424 -10 q 420 -14 409 -14 q 406 -14 384 -10 q 361 -7 347 -7 l 321 -11 l 298 -14 q 288 -13 273 -11 q 258 -9 249 -7 l 260 0 l 255 0 q 237 0 236 -7 l 156 -7 q 153 0 95 0 q 89 0 70 1 q 51 2 51 5 l 51 13 l 46 13 q 39 13 39 22 q 39 35 50 52 q 62 69 83 93 q 111 124 119 141 q 149 200 199 282 q 201 285 218 308 q 234 328 242 344 q 249 359 249 382 q 210 391 170 394 q 129 396 74 396 l 30 396 l 30 418 q 30 446 33 463 q 36 480 47 480 q 68 480 108 474 q 148 468 168 468 l 227 471 q 266 474 285 474 q 305 474 347 468 q 387 462 405 462 q 408 462 413 464 q 418 467 421 468 q 423 465 426 455 q 429 445 433 443 q 430 421 416 402 q 403 383 353 326 q 342 313 334 300 q 327 287 318 267 q 307 242 298 228 q 295 223 256 166 q 213 104 199 80 l 198 76 l 199 73 l 223 67 l 372 67 q 374 65 378 63 q 381 61 384 61 q 390 62 400 66 q 410 71 415 73 z m 101 443 q 100 452 85 452 q 78 452 71 451 q 64 450 57 450 l 57 418 q 72 418 86 424 q 101 429 101 443 z m 249 418 q 261 418 280 426 q 298 435 298 437 l 291 443 l 137 443 q 128 443 120 438 q 112 433 112 425 l 168 426 q 203 426 216 424 q 228 423 249 418 z m 309 421 l 310 418 l 328 437 l 326 437 q 320 437 314 431 q 309 425 309 421 z m 322 369 q 342 369 359 386 q 376 403 397 431 q 394 436 388 436 q 382 436 378 437 q 364 425 346 402 q 328 379 322 369 z m 285 363 q 279 359 279 351 l 285 351 z m 241 293 l 242 289 l 280 308 l 273 308 q 263 308 252 304 q 241 301 241 293 z m 291 289 q 282 289 274 284 q 267 279 267 270 l 285 264 z m 210 239 q 221 239 223 246 l 217 252 q 210 248 210 239 z m 230 221 q 231 214 244 214 q 254 214 258 218 q 263 223 267 234 l 264 234 q 259 234 230 221 z m 167 178 l 168 172 q 175 175 193 184 q 211 193 211 196 l 196 198 q 183 198 175 194 q 167 190 167 178 z m 218 169 l 217 172 q 199 161 193 154 l 199 153 q 206 153 212 158 q 218 162 218 169 z m 180 129 q 177 131 166 133 q 156 135 149 135 q 145 135 136 122 q 128 110 125 104 q 138 104 156 112 q 174 119 180 129 z m 106 67 l 143 73 q 136 74 131 80 q 126 85 125 92 q 116 91 111 84 q 106 77 106 67 z m 152 55 l 134 55 q 134 33 125 30 q 132 30 142 40 q 152 50 152 55 z m 319 21 q 323 21 350 23 q 376 25 398 33 q 398 43 368 43 q 348 43 310 39 q 274 35 254 35 q 242 35 236 36 q 222 32 217 23 l 273 23 l 280 18 q 293 20 303 20 q 313 21 319 21 z m 212 33 q 212 35 210 38 q 207 41 205 42 q 198 42 192 36 q 185 30 185 23 q 193 23 202 27 q 212 31 212 33 z m 119 35 q 119 34 117 34 q 113 34 102 37 q 92 40 88 42 l 88 27 q 98 27 108 30 q 118 32 119 35 z m 175 36 q 155 36 143 30 l 175 30 z m 390 5 q 390 8 380 8 q 371 8 371 6 q 371 3 381 3 q 388 3 390 5 z"},"B":{"x_min":0,"x_max":587,"ha":587,"o":"m 61 393 q 67 429 71 503 q 73 546 76 570 q 79 594 86 608 q 95 603 97 594 q 99 586 99 573 q 99 561 96 547 q 95 542 94 532 q 93 523 93 516 q 93 511 96 504 q 98 497 99 495 q 99 491 96 472 q 93 452 93 411 q 93 406 94 400 q 96 395 98 393 l 129 393 l 136 406 l 132 437 q 122 501 122 534 q 122 551 126 564 q 129 577 129 584 q 129 587 126 592 q 124 596 122 597 q 129 599 142 607 q 155 615 159 617 q 159 607 166 603 q 180 603 200 605 q 221 607 234 608 q 238 610 241 612 q 244 614 246 615 q 245 614 245 612 q 245 603 266 600 q 288 596 306 596 q 311 596 332 604 q 352 611 352 615 l 352 621 l 328 623 l 172 623 l 172 625 q 165 625 149 623 q 133 621 122 621 q 117 622 100 624 q 84 626 80 627 q 80 635 85 643 q 90 651 93 651 q 97 650 104 648 q 112 647 118 646 q 129 646 157 652 q 185 658 200 658 q 201 658 209 654 q 217 651 222 651 q 224 652 228 654 q 232 657 234 658 q 240 657 248 654 q 255 652 259 651 q 267 652 276 654 q 285 657 289 658 q 313 658 351 651 q 389 644 407 633 q 428 621 444 587 q 461 553 471 514 q 481 475 481 449 q 481 426 468 400 q 456 375 437 344 q 446 334 462 320 q 487 299 499 278 q 511 258 511 217 q 511 212 515 202 q 519 193 519 180 q 519 124 490 88 q 462 51 418 17 q 404 7 401 4 q 393 -5 356 -5 l 335 -5 q 332 -5 316 -10 q 301 -14 259 -14 l 246 -8 q 222 -8 176 -12 q 164 -13 147 -14 q 130 -15 107 -15 l 80 -14 l 68 -2 l 68 380 q 67 381 64 384 q 61 386 61 393 z m 326 579 q 339 579 349 585 q 359 591 363 603 l 355 604 q 342 604 334 598 q 326 592 326 579 z m 357 571 q 371 571 389 573 q 407 575 407 580 q 407 589 398 596 q 389 604 382 604 q 372 604 364 593 q 357 582 357 571 z m 208 391 q 211 391 257 390 q 303 389 346 406 q 389 422 389 454 l 382 467 q 383 469 386 473 q 388 477 389 479 q 389 502 363 541 q 352 557 323 562 q 294 567 244 569 q 205 571 188 574 q 170 576 166 584 q 158 576 156 567 q 153 558 153 545 q 153 520 157 474 q 161 428 161 406 q 170 396 180 394 q 189 391 208 391 z m 390 553 q 396 553 413 565 l 401 566 l 395 566 q 383 566 376 559 q 379 557 383 555 q 387 553 390 553 z m 424 423 q 448 423 453 428 q 458 433 458 444 q 457 455 457 460 q 457 487 448 523 q 439 559 420 559 q 410 559 400 548 q 391 538 391 528 q 402 528 420 523 l 413 516 l 420 515 q 425 515 428 516 q 430 518 433 523 q 433 514 423 502 q 419 497 416 492 q 413 486 413 479 q 413 476 422 472 q 430 468 433 467 q 420 462 413 454 q 421 454 430 457 q 438 460 444 460 l 413 430 q 414 423 424 423 z m 420 411 l 401 411 l 401 399 q 415 406 420 411 z m 438 402 l 437 406 l 389 380 l 389 373 q 404 373 421 380 q 438 388 438 402 z m 104 17 l 142 22 l 142 29 l 124 29 q 124 35 130 44 q 136 52 136 56 q 136 66 128 73 q 121 80 111 84 q 115 85 118 91 q 122 97 123 99 q 123 102 118 108 q 114 114 111 115 l 124 115 q 124 125 121 137 q 120 141 119 146 q 118 151 118 158 q 118 160 120 164 q 123 168 123 180 q 123 188 121 196 q 119 204 119 211 q 120 211 121 210 q 122 208 122 208 q 125 210 127 214 q 129 217 129 220 l 129 301 q 144 310 164 326 q 185 341 197 356 l 185 368 q 175 373 143 378 q 111 382 91 382 l 90 380 q 90 378 94 372 q 98 365 98 362 q 98 352 96 336 q 92 316 92 290 q 92 273 93 261 q 94 249 95 241 q 99 209 99 191 q 99 177 98 170 l 104 165 q 97 163 97 147 q 97 136 101 122 q 101 119 102 114 q 104 108 104 102 q 104 95 100 82 q 97 70 97 52 q 97 24 104 17 z m 172 306 q 238 334 259 349 l 228 318 l 228 311 q 242 311 248 315 q 254 319 260 327 q 266 336 277 344 q 283 348 298 350 q 310 351 318 354 q 327 358 333 368 q 333 369 331 371 q 329 373 328 374 q 323 374 310 370 q 297 365 296 362 q 262 362 217 352 q 172 341 172 306 z m 277 318 l 293 317 q 310 317 320 324 q 331 331 339 349 q 339 342 335 334 q 331 325 331 322 q 347 322 371 335 q 395 348 395 359 q 395 361 381 368 q 367 374 363 374 q 357 374 329 356 q 301 338 277 318 z m 161 22 l 161 14 q 172 14 189 22 q 206 29 210 29 q 214 28 222 26 q 230 23 234 22 l 238 22 q 240 22 246 29 q 252 36 253 41 q 254 38 257 28 q 260 17 265 17 l 314 17 l 320 10 l 328 22 q 334 21 344 21 q 353 21 363 27 q 373 33 376 34 q 419 47 444 62 q 468 76 481 102 q 494 127 494 170 q 494 185 480 240 q 467 296 457 301 q 453 302 446 304 q 438 305 433 306 q 427 308 420 312 q 414 316 407 318 q 400 319 383 319 q 370 319 370 312 q 382 304 413 301 q 412 300 412 298 q 412 291 428 278 q 443 266 444 263 q 447 258 454 241 q 460 224 463 220 q 457 216 453 211 q 449 206 449 203 q 452 203 458 201 q 463 199 463 196 q 463 191 458 178 q 454 166 451 165 l 457 158 l 481 170 q 481 163 473 158 q 465 153 460 148 q 456 142 456 127 l 457 109 q 457 110 461 112 q 465 115 468 115 q 470 115 473 113 q 476 111 476 109 q 466 101 439 101 q 439 91 433 77 q 410 67 381 60 q 352 52 330 52 q 314 52 312 56 q 311 60 309 60 q 302 59 294 56 q 287 54 285 53 q 261 51 216 51 l 216 41 q 211 41 186 34 q 161 28 161 22 z m 185 85 q 207 85 251 81 q 295 77 317 77 q 350 77 382 86 q 413 94 420 121 q 424 143 425 160 q 426 177 426 198 q 426 239 410 258 q 393 278 368 283 q 344 288 307 288 q 262 288 228 284 q 194 281 161 269 q 153 267 150 224 q 147 181 147 141 q 147 123 150 110 q 153 97 161 84 z m 179 47 l 154 47 l 154 41 q 161 41 179 47 z"},"K":{"x_min":0,"x_max":601,"ha":601,"o":"m 540 12 q 540 10 535 0 q 529 1 517 1 q 483 1 467 -24 q 451 -11 414 38 q 376 88 376 101 q 370 101 356 118 q 341 135 338 135 q 303 184 294 210 l 260 259 q 228 305 215 326 q 202 346 201 357 q 204 357 235 398 q 266 440 281 463 l 280 465 q 280 478 318 529 q 355 580 396 626 q 438 673 448 673 q 456 673 466 672 q 476 670 484 670 q 495 670 510 673 q 520 673 526 668 q 531 663 540 648 q 501 586 472 562 l 319 364 l 318 354 q 318 329 328 306 q 338 282 358 250 l 374 222 q 377 216 389 206 q 399 197 405 190 q 411 182 411 173 l 417 173 q 419 171 480 118 q 540 64 540 12 z m 168 443 q 168 377 174 263 q 180 157 180 108 l 179 0 q 177 -8 164 -10 q 152 -12 140 -12 q 127 -12 123 -12 q 106 -12 94 -10 q 82 -7 75 0 q 76 21 76 62 q 76 141 69 251 q 63 377 63 438 q 63 475 67 549 q 68 568 69 596 q 70 623 70 660 l 143 660 q 155 660 155 645 l 154 638 l 155 636 l 150 555 q 161 542 164 512 q 168 483 168 443 z m 433 605 q 419 602 411 598 q 403 595 399 587 q 402 580 412 577 q 423 574 429 574 q 435 574 463 600 q 491 626 491 630 l 491 641 q 437 641 429 617 q 435 617 448 620 q 460 623 467 623 q 460 611 433 605 z m 100 544 l 100 537 q 100 524 111 518 q 109 519 105 519 q 96 519 92 510 q 87 501 87 491 q 106 491 116 503 q 126 515 126 534 q 126 540 118 550 q 111 559 111 562 q 111 564 118 578 q 125 592 125 620 q 125 626 115 631 q 105 636 100 636 q 98 636 96 634 q 94 631 94 630 l 94 562 q 100 555 100 544 z m 373 552 l 374 549 l 405 562 l 405 572 q 395 572 384 567 q 373 562 373 552 z m 417 549 l 412 550 q 407 549 394 546 q 380 542 374 537 q 377 532 384 528 q 390 524 396 524 q 403 524 409 532 q 415 541 417 549 z m 331 493 l 340 492 q 349 492 366 496 q 382 501 382 509 q 382 518 356 531 q 342 520 331 493 z m 111 518 z m 118 444 l 114 445 q 101 445 96 440 q 91 436 91 423 q 91 416 94 407 q 117 419 127 436 q 137 453 137 480 q 137 494 128 494 l 125 493 l 94 463 l 93 460 q 93 454 96 452 q 99 451 108 451 q 116 451 118 444 z m 319 466 q 319 461 332 456 q 345 450 349 450 q 352 450 362 466 q 371 482 374 488 l 368 488 q 355 488 337 482 q 319 477 319 466 z m 300 431 l 331 439 q 324 451 313 451 q 305 451 302 446 q 300 441 300 431 z m 281 414 q 283 409 290 404 q 298 400 303 400 q 307 400 317 411 q 327 422 327 427 q 304 427 281 414 z m 140 421 q 129 421 116 410 q 103 398 100 396 l 99 392 q 99 392 100 388 q 101 383 106 383 q 128 383 134 392 q 140 400 140 421 z m 257 364 l 238 352 l 276 352 q 277 357 283 370 q 289 383 289 390 q 289 401 280 401 q 270 401 260 392 q 250 383 250 373 q 250 367 257 364 z m 137 370 l 100 370 l 100 334 q 101 335 118 346 q 134 356 137 370 z m 201 358 l 201 357 z m 116 319 q 135 319 140 324 q 146 330 146 348 q 135 348 126 339 q 116 330 116 319 z m 257 322 q 277 322 277 334 l 245 334 q 247 330 250 327 q 254 324 257 322 z m 479 54 q 465 76 454 88 q 444 101 433 101 q 427 101 424 99 q 430 110 430 117 q 430 121 430 122 q 429 124 426 125 q 422 126 417 130 q 407 139 369 193 q 340 234 324 255 q 307 276 298 276 q 298 296 296 306 q 293 316 281 316 q 277 316 273 313 q 269 310 269 305 q 269 295 302 260 q 316 246 319 241 q 324 234 330 221 q 336 208 339 202 q 348 180 356 167 q 359 161 370 155 q 380 149 381 148 q 379 148 377 146 q 375 144 374 143 q 374 134 380 128 q 386 123 398 116 q 409 109 412 105 l 411 96 q 411 88 427 70 q 443 51 462 36 q 481 20 491 20 l 491 37 q 489 39 479 54 z m 143 302 l 100 302 l 100 270 q 110 270 118 277 q 127 284 134 292 q 141 299 143 302 z m 104 248 l 150 248 l 150 286 q 139 286 122 272 q 104 259 104 248 z m 94 222 l 100 180 l 143 222 l 105 228 q 94 228 94 222 z m 154 205 q 144 205 134 196 q 124 187 118 186 q 121 179 130 179 q 143 179 148 186 q 154 192 154 205 z m 140 167 l 98 167 q 98 144 106 135 q 109 139 124 150 q 140 160 140 167 z m 151 145 l 150 155 q 137 151 118 130 l 130 129 q 141 129 146 132 q 151 135 151 145 z m 106 111 l 106 92 q 120 92 137 111 z m 153 100 q 144 100 136 95 q 129 90 122 84 q 115 77 111 74 q 126 74 140 80 q 153 87 153 100 z m 150 62 l 137 62 q 114 62 106 54 q 97 47 97 24 l 111 24 z m 151 35 l 150 37 l 137 24 l 140 23 q 143 23 147 28 q 151 32 151 35 z"},"R":{"x_min":0,"x_max":583,"ha":583,"o":"m 348 172 q 332 193 331 194 l 294 249 q 273 253 260 254 q 246 256 225 256 q 193 256 182 247 q 170 238 170 207 q 170 181 174 131 q 178 79 178 51 q 178 31 174 18 q 171 5 159 -4 q 146 -6 127 -8 q 108 -10 96 -10 q 84 -10 80 -6 q 77 -1 77 11 q 77 52 84 106 q 85 115 88 146 q 91 176 91 203 q 91 219 90 230 q 88 240 84 255 l 84 465 q 84 472 78 486 q 72 499 72 502 q 72 507 75 518 q 78 528 78 534 q 78 547 65 588 q 59 612 59 613 q 59 643 72 653 q 84 663 120 663 q 133 663 155 659 q 160 658 170 657 q 179 656 186 656 l 215 658 q 263 663 283 663 q 344 663 384 658 q 423 654 449 632 q 461 621 474 608 q 487 594 492 589 l 492 576 l 498 576 q 499 560 504 543 q 511 508 511 489 q 511 398 474 348 q 466 338 450 321 q 433 304 431 304 l 424 305 q 415 305 412 298 q 408 292 405 292 q 401 292 396 295 q 391 298 391 300 l 393 304 l 423 335 q 421 336 418 336 q 414 337 411 337 q 402 337 398 333 q 393 329 388 319 q 382 306 374 304 q 371 304 337 292 q 340 285 352 282 q 365 280 368 274 l 356 261 l 383 261 q 383 263 382 268 q 380 273 380 277 q 380 284 387 287 q 391 274 400 260 q 410 247 412 245 q 425 230 431 218 q 447 171 474 122 q 502 73 549 3 q 549 -8 527 -12 q 505 -16 485 -16 q 469 -16 464 -10 q 458 -4 454 8 q 451 20 442 20 l 399 88 q 399 100 386 120 q 372 141 348 172 z m 162 606 l 170 607 l 152 626 l 159 632 q 133 638 118 638 q 112 638 106 637 q 101 636 96 632 q 107 618 112 618 q 120 618 120 626 q 122 624 130 618 q 139 612 147 609 q 155 606 162 606 z m 279 601 q 284 601 294 604 q 303 608 309 608 q 309 637 300 637 l 251 632 q 254 630 263 616 q 272 601 279 601 z m 223 601 l 233 601 q 251 601 251 607 l 239 632 l 189 632 l 177 619 q 182 608 194 604 q 206 601 223 601 z m 356 589 q 359 594 361 604 q 363 613 368 619 l 374 613 q 378 615 380 618 q 381 621 381 622 q 381 624 379 628 q 377 632 374 632 l 314 632 q 314 611 324 600 q 335 589 356 589 z m 486 518 q 486 530 476 554 q 466 578 452 598 q 437 617 423 619 q 398 624 393 626 q 384 617 384 583 l 384 575 q 392 575 404 578 q 415 581 422 581 l 423 577 q 423 576 416 568 q 409 561 405 558 l 411 551 l 466 539 l 467 536 q 467 532 464 528 q 460 525 455 525 l 455 521 l 485 514 z m 210 346 q 241 346 256 347 q 270 348 287 354 q 297 356 320 358 q 354 361 372 366 q 390 371 401 386 q 412 401 412 431 q 412 460 406 485 q 400 510 387 539 q 352 561 312 566 q 273 571 209 571 q 189 571 178 568 q 166 564 159 551 q 163 519 164 498 q 165 478 165 427 l 164 360 q 173 346 210 346 z m 413 539 q 413 533 418 533 q 420 533 421 535 q 422 537 422 539 q 422 541 421 543 q 420 545 418 545 q 413 545 413 539 z m 125 539 q 117 539 113 533 q 109 527 109 519 q 109 504 118 480 q 126 456 126 454 q 137 467 137 484 q 137 490 133 511 q 129 532 127 539 z m 463 410 q 478 410 482 437 q 486 464 486 489 l 470 489 q 470 491 468 492 q 466 494 466 496 l 479 502 q 464 511 426 511 q 426 497 440 476 q 454 454 466 446 q 466 444 464 442 q 463 440 461 440 q 457 440 450 444 q 444 448 439 448 q 439 431 444 420 q 448 410 463 410 z m 434 370 q 445 370 450 374 q 455 377 455 387 q 434 387 434 370 z m 411 354 l 431 354 q 430 356 428 358 q 425 360 423 360 q 420 359 416 357 q 413 355 411 354 z m 116 304 l 121 313 l 114 332 z m 318 298 q 320 299 328 302 q 337 304 346 308 q 354 313 356 318 l 343 319 q 318 319 318 298 z m 260 307 q 285 305 287 304 q 295 308 295 318 l 215 315 q 215 312 230 310 q 245 308 260 307 z m 180 304 q 182 304 186 306 q 189 307 189 311 l 170 311 q 174 304 180 304 z m 333 266 q 333 274 326 281 q 319 288 311 288 q 311 276 316 271 q 320 266 333 266 z m 116 230 q 134 248 134 258 q 134 269 120 269 q 109 269 109 255 q 109 250 112 242 q 114 233 116 230 z m 331 244 l 343 244 l 343 249 l 331 249 z m 401 217 q 401 230 393 234 q 385 237 367 237 q 349 237 349 228 l 350 224 q 378 217 401 217 z m 126 217 q 139 217 146 236 q 126 229 126 217 z m 120 175 q 131 181 136 186 q 141 192 141 200 l 140 206 q 116 195 116 182 q 116 180 118 178 q 119 175 120 175 z m 393 206 l 368 206 l 368 198 q 389 198 393 206 z m 449 63 q 456 51 466 38 q 475 25 479 20 l 498 20 q 489 48 468 80 q 456 98 449 113 q 447 117 434 146 q 415 198 405 200 q 403 199 395 196 q 387 192 387 187 q 392 187 398 184 q 405 182 405 179 q 405 175 402 171 q 398 167 398 162 q 398 150 411 150 l 418 151 l 405 144 q 405 131 410 131 q 413 131 418 133 q 422 135 425 135 q 425 115 430 100 q 435 85 449 63 z m 119 153 q 136 153 142 158 q 148 164 152 182 l 146 182 q 136 182 128 173 q 119 164 119 153 z m 115 128 l 116 120 q 135 130 146 144 l 134 145 q 122 145 118 142 q 115 139 115 128 z m 136 27 q 144 27 148 56 q 152 84 152 104 q 152 126 143 126 q 132 126 124 116 q 115 106 115 95 q 115 84 120 82 q 113 79 109 58 q 115 58 128 70 q 141 83 143 83 l 146 82 q 144 73 130 61 q 115 50 115 39 q 115 27 136 27 z"},"T":{"x_min":0,"x_max":540,"ha":540,"o":"m 208 560 q 208 569 179 572 q 150 575 120 575 l 71 574 q 13 574 13 585 q 13 598 22 612 q 26 619 30 628 q 33 636 33 646 q 34 647 39 654 q 44 661 81 661 l 81 652 q 140 652 184 651 q 228 650 258 649 q 378 645 437 645 q 476 645 496 646 q 508 642 508 618 l 508 608 q 508 589 502 579 l 421 572 q 402 571 366 563 q 332 555 310 554 q 303 528 303 476 q 303 431 307 341 q 311 253 311 206 q 311 182 308 101 q 305 68 305 29 q 305 26 304 14 q 303 3 297 -2 q 291 -8 279 -8 q 275 -8 268 -4 q 261 -1 257 -1 q 254 -3 246 -5 q 237 -7 230 -7 q 226 -7 216 1 q 205 9 205 11 l 208 523 z m 125 622 q 121 622 95 628 q 70 635 63 635 l 63 606 q 86 606 102 608 q 117 610 125 622 z m 125 611 l 162 610 q 194 610 194 619 q 194 628 174 628 q 164 628 148 622 q 133 617 125 611 z m 236 517 q 244 517 256 531 q 267 545 267 558 q 267 560 262 563 q 258 566 254 566 q 254 592 260 601 q 266 610 266 611 l 266 589 q 277 589 291 601 q 305 613 305 625 q 277 625 260 618 q 242 610 242 587 q 242 572 245 562 q 248 553 248 548 q 248 545 244 536 q 239 526 236 517 z m 218 603 q 231 603 236 606 q 242 610 248 622 l 232 624 q 222 624 215 622 q 208 620 205 611 q 207 603 218 603 z m 378 603 q 379 603 382 606 q 384 610 385 613 q 385 623 360 623 l 335 622 l 335 603 z m 474 611 q 474 618 468 620 q 461 622 445 622 q 441 622 422 620 q 402 617 397 615 l 402 611 z m 316 603 l 322 603 l 322 615 l 316 615 z m 266 530 q 265 525 260 516 q 254 508 254 505 q 271 511 275 526 q 279 540 279 554 q 279 568 279 572 z m 248 444 l 254 442 q 267 442 267 466 l 266 487 q 263 481 257 468 q 251 454 248 444 z m 236 394 q 255 410 255 424 l 254 430 q 242 429 239 420 q 236 411 236 394 z m 248 387 l 262 387 l 262 412 z m 229 341 q 229 327 236 326 q 254 342 266 363 q 266 365 264 366 q 263 368 262 369 q 245 369 237 364 q 229 358 229 344 z m 242 300 q 254 300 264 304 q 274 309 274 319 q 274 332 266 344 q 257 338 250 325 q 242 312 242 300 z m 236 252 q 246 261 257 272 q 268 284 273 295 q 257 295 243 286 q 229 278 229 264 q 229 259 230 256 q 231 253 236 252 z m 275 258 q 275 262 274 268 q 274 274 273 277 l 236 228 l 236 215 q 257 222 266 231 q 275 240 275 258 z m 279 190 l 280 198 l 280 201 q 280 213 273 215 l 242 172 z m 236 190 q 239 190 241 194 q 243 198 243 199 l 242 203 q 236 200 236 190 z m 239 120 q 239 135 256 148 q 258 150 264 156 q 271 163 273 172 l 270 172 q 260 172 242 162 q 224 151 224 137 q 224 133 230 126 q 237 120 239 120 z m 253 127 q 266 127 272 132 q 277 138 279 153 l 276 154 q 269 151 261 143 q 253 135 253 127 z m 240 36 q 246 36 261 62 q 276 89 276 98 l 266 98 l 266 115 l 236 104 l 230 41 q 235 36 240 36 z m 262 80 l 254 80 l 262 85 z m 248 24 q 256 26 262 30 q 267 35 267 41 l 266 48 q 251 33 248 24 z"},"P":{"x_min":0,"x_max":570,"ha":570,"o":"m 480 602 q 517 558 534 526 q 550 495 550 446 q 550 398 530 350 q 511 301 474 266 q 438 232 388 222 q 327 209 284 209 q 255 209 227 212 l 197 213 l 197 205 q 197 201 195 198 q 193 196 191 191 l 191 -18 q 191 -18 185 -24 q 164 -24 138 -18 q 113 -11 99 0 q 99 58 92 140 q 86 232 86 278 q 86 298 90 332 q 93 352 93 366 q 93 382 90 392 q 86 403 86 407 q 86 411 90 418 q 93 425 93 442 q 93 451 89 461 q 85 471 85 474 q 85 484 89 502 q 93 520 93 529 q 93 542 88 546 q 83 551 74 552 q 66 554 66 558 q 66 566 72 572 q 78 579 86 580 l 86 641 q 86 645 96 652 q 107 660 110 660 l 247 660 l 259 666 l 369 666 q 381 662 401 650 q 432 631 463 623 q 475 609 480 602 z m 222 598 q 228 598 246 605 q 264 612 265 611 q 261 606 254 600 q 246 595 240 593 q 247 591 254 585 q 261 579 271 579 l 283 580 l 271 587 q 285 594 311 594 l 334 593 l 344 604 q 343 603 343 601 q 343 597 351 595 q 359 593 365 592 q 371 590 374 590 q 403 586 407 580 l 401 574 q 426 554 431 549 q 435 546 438 540 q 442 533 446 530 q 449 526 457 525 l 443 513 q 446 511 456 506 q 467 501 471 493 q 475 485 475 472 q 475 464 474 463 q 491 474 502 482 q 512 491 512 503 q 512 525 503 525 q 500 525 493 521 q 486 517 482 513 l 481 517 q 481 519 488 530 q 494 540 494 543 q 494 545 485 558 q 476 571 464 582 q 452 593 439 593 l 450 605 q 411 626 378 634 q 344 641 295 641 q 272 641 256 631 q 241 621 222 598 z m 222 617 q 204 617 184 607 q 164 597 135 580 l 128 580 q 138 592 152 602 q 166 611 179 619 q 192 627 197 630 l 197 638 q 160 638 137 635 q 114 632 114 617 l 133 617 q 133 615 134 614 q 135 613 135 611 q 135 610 126 600 q 116 591 110 587 q 112 572 116 567 q 119 562 128 562 q 145 562 176 582 q 208 603 222 617 z m 344 604 l 345 605 z m 295 315 l 295 308 q 308 317 334 319 q 359 321 364 322 q 397 324 414 350 q 432 376 443 420 l 450 450 q 450 468 430 504 q 410 541 395 549 q 381 556 334 556 l 283 555 q 258 554 230 552 q 202 551 191 549 l 185 543 l 185 523 l 185 493 l 188 437 q 191 371 194 340 q 197 308 203 308 l 291 308 z m 124 531 q 142 537 142 551 q 133 551 125 549 q 117 547 117 543 q 117 540 119 536 q 121 533 124 531 z m 113 493 l 154 493 q 154 496 156 510 q 159 524 160 538 q 147 538 130 522 q 113 507 113 493 z m 117 457 q 131 468 135 482 q 132 483 128 483 q 121 483 118 478 q 115 472 115 466 z m 161 452 q 161 472 154 482 q 142 473 132 454 q 123 436 123 421 q 123 406 133 406 q 122 403 118 394 q 115 384 115 369 q 125 369 131 376 q 137 382 144 396 q 151 414 160 420 z m 531 458 q 531 468 528 472 q 524 476 516 476 q 500 476 489 462 q 478 449 478 434 q 503 434 517 438 q 531 442 531 458 z m 466 413 q 491 413 500 426 l 489 427 q 481 427 474 424 q 466 420 466 413 z m 525 420 l 517 420 q 505 415 484 404 q 463 393 463 389 l 463 377 l 506 377 q 513 377 519 394 q 525 412 525 420 z m 134 406 l 133 406 q 136 407 142 407 q 139 406 134 406 z m 160 396 q 144 383 130 362 q 117 342 117 325 q 143 325 156 332 q 168 338 168 361 q 168 373 166 380 q 165 387 160 396 z m 507 367 q 484 367 465 355 q 446 343 446 322 l 453 322 q 453 313 412 302 q 370 292 319 284 q 268 276 250 276 q 250 272 252 266 q 254 259 259 259 l 302 259 l 291 272 l 295 272 q 300 271 313 270 q 326 268 339 265 q 336 264 336 262 q 336 256 357 254 q 378 252 377 252 q 410 252 410 265 l 376 265 q 379 268 387 272 q 395 276 401 278 l 432 277 q 441 277 460 292 q 478 308 492 329 q 507 350 507 367 z m 110 282 q 124 282 136 290 q 147 299 160 315 l 148 316 q 128 316 119 310 q 110 303 110 282 z m 178 283 q 176 287 174 293 q 171 299 171 302 l 167 302 l 128 265 q 142 265 178 283 z m 247 241 l 228 259 l 240 265 q 240 272 228 272 q 211 270 198 266 q 185 261 185 248 q 199 242 220 242 q 240 241 247 241 z m 172 265 q 164 263 148 260 q 132 256 124 249 q 117 242 117 228 l 116 221 q 116 210 124 210 l 172 259 z m 295 241 q 293 245 282 246 q 271 248 265 248 q 270 243 274 242 q 278 240 287 240 z m 160 228 q 153 228 141 208 q 129 187 128 186 q 137 186 148 191 q 160 196 160 198 z m 122 160 q 122 157 124 155 q 141 163 148 173 l 145 173 q 134 173 128 171 q 122 169 122 160 z m 163 167 l 154 167 l 124 135 l 124 129 q 147 129 155 136 q 163 144 163 167 z m 123 99 l 124 86 q 126 89 142 103 q 157 117 160 130 q 155 128 144 124 q 132 121 128 116 q 123 110 123 99 z m 142 62 q 158 68 163 78 q 168 89 168 109 q 155 109 146 98 q 138 86 128 63 q 123 51 117 40 q 111 29 104 24 q 115 13 117 12 q 128 12 145 30 q 162 48 162 62 z m 160 37 q 153 34 151 24 q 149 14 148 12 q 157 12 158 17 q 160 22 160 28 q 160 35 160 37 z"},"|":{"x_min":0,"x_max":244,"ha":244,"o":"m 144 -50 q 149 -55 155 -64 q 161 -73 161 -78 q 161 -85 150 -86 q 140 -88 123 -88 q 107 -88 96 -86 q 86 -83 84 -76 q 82 -81 71 -81 q 56 -81 56 -76 l 56 -14 l 49 -10 l 53 -4 l 53 147 q 62 181 64 214 q 66 246 67 304 q 67 352 68 375 q 70 403 70 415 q 79 555 79 647 l 84 653 l 150 653 l 154 647 q 154 631 160 607 l 160 435 q 165 434 165 425 q 165 405 164 379 q 163 353 162 339 q 159 299 159 256 l 160 228 q 151 219 151 202 l 152 182 q 152 165 144 157 l 144 46 l 140 41 z m 120 582 q 109 581 106 576 q 102 572 102 565 q 102 560 104 556 q 110 561 120 569 q 131 577 136 585 q 140 593 140 605 q 140 619 132 622 q 123 624 104 624 l 104 602 l 113 602 l 114 597 q 113 596 112 593 q 111 590 109 588 z m 121 526 q 133 526 136 531 q 140 536 140 549 q 140 570 135 572 q 103 536 103 534 q 103 526 121 526 z m 103 506 l 104 502 q 116 509 116 517 q 103 517 103 506 z m 94 375 l 140 403 l 140 513 q 127 513 115 500 q 103 488 103 475 l 104 470 l 129 461 l 130 459 q 130 449 120 436 q 110 423 99 415 q 107 413 116 412 q 124 410 129 410 l 129 403 l 99 403 q 98 402 96 391 q 94 380 94 375 z m 97 456 q 97 434 104 430 l 120 456 z m 124 356 l 124 349 q 114 351 112 351 q 99 351 96 339 q 93 327 93 307 q 97 307 101 310 q 105 312 105 315 q 105 318 104 319 q 125 327 134 347 q 142 367 142 392 q 131 392 118 382 q 104 371 94 360 q 94 358 96 356 q 98 355 99 355 z m 92 278 q 99 278 105 282 q 111 286 116 291 q 126 301 135 305 l 135 329 q 130 326 122 317 q 113 308 113 306 l 114 299 q 110 292 104 292 q 97 292 94 290 q 92 289 92 278 z m 88 223 q 97 223 102 226 q 108 229 115 235 q 125 245 135 247 l 135 288 q 133 287 126 284 q 120 281 120 278 q 120 277 122 274 q 123 270 124 269 l 123 261 q 121 262 116 263 q 111 264 105 264 q 93 264 93 256 l 113 256 q 113 254 101 242 q 89 229 88 223 z m 137 240 q 125 240 112 228 q 99 217 99 206 q 120 206 126 207 q 133 208 135 214 q 137 221 137 240 z m 82 187 q 88 187 94 190 q 101 193 104 197 l 97 197 q 89 197 86 195 q 82 193 82 187 z m 131 193 q 120 193 102 186 q 83 179 83 170 l 84 167 q 96 166 108 164 q 120 162 122 162 q 128 162 130 171 q 131 180 131 193 z m 92 142 q 99 142 104 145 q 108 148 106 152 q 102 152 96 149 q 91 146 88 142 z m 125 122 l 109 122 l 109 127 l 84 127 q 83 127 81 124 q 79 120 79 117 q 79 115 80 113 q 82 111 84 111 q 87 111 91 112 q 95 114 98 116 q 95 113 86 106 q 76 98 76 89 q 103 89 114 94 q 125 99 125 122 z m 98 116 l 99 117 z m 125 85 q 115 85 106 80 q 98 75 94 66 q 108 66 116 69 q 125 72 125 85 z m 94 82 l 91 82 q 86 82 81 78 q 76 75 76 69 q 82 69 86 72 q 90 75 94 82 z m 121 35 q 121 41 118 48 q 114 55 109 55 l 72 55 q 72 44 77 29 q 82 14 90 14 q 103 14 112 19 q 121 24 121 35 z m 108 -30 q 108 -18 109 -11 q 110 -4 114 0 q 108 5 88 5 l 94 0 q 81 -8 81 -35 l 82 -57 q 91 -57 99 -54 q 107 -51 109 -50 q 108 -48 108 -30 z"},"t":{"x_min":0,"x_max":375,"ha":375,"o":"m 337 477 l 337 403 l 330 397 q 323 397 282 397 q 242 397 207 391 l 208 384 q 208 371 201 352 q 195 332 195 323 q 195 321 198 318 q 200 316 201 316 l 201 212 q 208 205 208 181 l 207 156 q 212 155 213 132 q 214 110 228 92 q 243 74 287 70 q 290 70 301 68 q 312 67 318 62 q 324 56 324 45 q 324 27 321 18 q 318 9 310 -4 l 300 -22 q 283 -21 262 -15 q 241 -9 222 -3 q 174 13 153 14 q 133 14 126 58 q 120 101 120 141 q 120 169 125 194 q 126 201 127 210 q 128 219 128 230 q 128 278 115 391 q 106 392 98 394 q 89 396 83 397 q 57 404 46 404 q 41 404 34 418 q 27 433 27 442 q 27 462 40 468 q 53 474 77 475 q 90 475 96 476 q 102 478 103 483 q 103 506 106 532 q 110 558 115 563 q 128 558 128 516 l 127 489 l 133 483 q 135 484 156 494 q 177 504 177 512 l 176 520 q 176 523 179 542 q 182 561 182 570 l 180 570 q 175 570 155 560 q 135 551 133 551 q 138 556 158 570 q 138 574 127 582 q 136 589 146 592 q 155 594 169 595 q 187 595 201 600 q 201 596 207 590 q 213 585 213 582 q 212 578 210 570 q 208 563 207 557 q 207 523 214 507 q 221 491 236 487 q 250 483 281 483 q 288 483 301 486 q 314 489 323 489 q 326 489 332 484 q 337 480 337 477 z m 176 521 l 176 520 z m 207 459 q 200 462 188 476 q 187 477 182 484 q 176 490 171 490 q 157 490 157 477 l 164 477 q 156 464 134 457 q 112 450 81 445 q 70 443 62 441 q 53 439 53 437 q 53 431 76 426 q 98 421 108 421 l 164 465 l 177 465 l 145 434 l 145 428 z m 213 440 q 218 441 230 448 q 241 454 244 459 l 238 459 q 230 459 224 454 q 219 450 213 440 z m 312 452 l 282 453 l 251 452 q 243 451 228 442 q 213 432 213 428 l 213 420 q 218 420 232 428 q 246 436 251 440 l 238 421 q 250 421 272 425 q 278 426 286 427 q 294 428 305 428 z m 182 428 l 182 434 q 177 431 172 428 q 168 426 164 423 q 132 407 132 397 l 145 397 z m 170 391 q 158 391 148 380 q 139 370 139 361 l 139 356 q 139 342 145 341 q 156 349 164 360 q 171 372 171 384 z m 195 88 l 186 87 l 189 125 q 187 142 183 160 q 179 179 177 187 l 170 193 l 177 199 l 178 222 q 178 245 174 285 q 169 320 169 350 q 157 350 151 336 q 145 321 145 307 q 145 293 148 290 q 151 288 151 286 q 151 282 148 277 q 144 272 144 263 q 144 242 154 242 l 156 242 q 152 238 148 224 q 145 210 145 199 q 152 199 152 194 q 152 190 145 180 q 138 171 138 170 q 138 158 143 148 q 148 138 148 134 q 148 126 139 113 q 140 110 144 102 q 148 95 151 95 q 157 95 166 97 q 174 99 177 101 q 173 95 162 89 q 150 83 145 82 q 145 35 203 35 q 203 14 218 14 q 223 14 229 18 q 235 21 238 27 q 240 27 241 26 q 242 24 244 24 l 244 13 q 268 13 287 39 q 285 51 244 51 q 240 51 234 49 q 229 47 225 45 q 226 46 226 49 q 226 55 215 60 q 204 64 198 64 q 192 64 182 61 q 171 58 164 58 q 166 62 181 68 q 196 75 201 77 l 202 79 q 202 88 195 88 z m 158 243 l 156 242 z m 287 27 q 282 24 278 18 q 273 13 273 8 l 296 8 q 296 24 287 27 z"},"M":{"x_min":0,"x_max":789,"ha":789,"o":"m 691 103 q 692 97 695 76 q 698 56 698 39 q 698 20 694 12 q 689 4 682 2 q 674 1 656 1 q 592 1 592 24 q 592 33 594 46 q 597 60 598 64 q 592 120 592 200 q 592 219 582 279 q 572 339 567 360 l 561 366 q 561 396 558 440 q 555 483 549 483 l 536 483 l 536 459 q 524 429 486 346 q 449 262 425 212 q 422 207 416 193 q 411 179 404 170 q 397 162 387 162 q 366 162 354 174 q 341 185 340 206 q 287 294 256 354 q 224 413 204 472 q 203 472 197 478 q 195 462 185 410 q 185 385 175 325 q 165 263 165 233 q 165 219 166 212 l 135 2 q 133 -12 108 -12 q 87 -12 74 -8 q 62 -4 43 9 q 42 10 40 18 q 38 25 37 27 q 62 143 62 221 l 61 255 l 99 478 q 99 516 111 588 q 112 593 112 613 q 113 633 119 648 q 125 663 138 663 q 140 663 148 660 q 156 656 161 656 q 163 657 168 660 q 174 662 178 663 q 193 658 218 620 q 242 581 282 507 q 316 445 336 411 q 356 377 370 366 q 383 375 393 393 q 403 411 417 441 q 426 462 432 472 l 460 516 l 475 539 q 487 560 504 594 q 521 627 531 650 q 539 669 577 669 q 592 669 608 662 q 623 654 623 637 l 622 629 l 623 620 q 628 565 637 516 q 646 466 648 454 q 662 379 670 316 q 679 253 684 157 q 685 139 691 103 z m 562 491 q 565 483 568 480 q 572 477 582 477 q 598 477 604 478 q 611 479 611 483 q 610 487 608 493 q 606 499 605 502 l 592 631 l 586 632 q 573 632 560 622 q 546 613 536 601 q 538 595 544 592 q 550 590 562 588 q 575 586 580 583 q 575 574 565 570 q 555 567 553 566 q 533 560 531 549 l 580 549 l 586 539 q 579 536 553 530 q 521 524 504 518 q 486 511 486 499 l 487 496 l 511 502 l 507 508 q 514 509 527 511 q 540 513 549 514 l 555 514 l 549 508 q 558 502 562 491 z m 135 600 q 139 600 147 604 q 155 607 161 607 q 162 599 186 599 q 186 607 183 610 q 180 613 173 613 l 173 626 q 171 627 156 629 q 141 631 135 631 z m 210 567 q 210 574 200 578 q 190 583 182 583 q 168 583 151 576 q 134 569 134 556 q 141 556 154 562 q 168 568 173 569 q 171 567 168 564 q 166 560 166 557 q 167 555 171 552 q 175 549 175 547 q 175 545 174 544 q 181 544 196 552 q 210 561 210 567 z m 524 569 l 532 569 q 541 569 549 577 q 547 583 536 583 q 530 583 527 580 q 524 578 524 569 z m 173 569 z m 507 533 l 536 533 q 529 540 518 540 q 512 540 510 539 q 508 538 507 533 z m 241 518 q 241 520 228 533 q 206 517 197 508 l 206 508 q 220 508 230 510 q 241 511 241 518 z m 191 527 q 184 526 171 522 q 158 518 148 514 q 149 510 153 509 q 157 508 162 508 q 174 508 180 511 q 185 514 191 527 z m 586 527 l 586 521 l 567 521 z m 171 494 q 156 494 146 499 q 137 504 129 504 l 129 472 q 134 469 141 464 q 148 458 150 458 q 161 458 166 470 q 171 482 171 494 z m 235 496 l 222 497 l 219 497 q 205 497 204 490 q 207 487 212 485 q 217 483 219 482 q 221 482 235 496 z m 524 483 q 524 485 522 488 q 520 490 518 490 q 513 489 506 487 q 498 485 492 483 q 495 479 498 478 q 502 477 507 477 q 515 477 524 483 z m 500 464 q 497 468 490 472 q 484 477 481 478 q 472 478 467 469 q 462 460 462 450 q 471 450 481 454 q 491 459 500 464 z m 245 446 q 264 446 277 453 q 273 465 266 472 q 245 458 245 446 z m 588 447 q 601 447 611 459 q 581 465 572 465 q 572 460 578 454 q 585 447 588 447 z m 157 408 q 157 433 150 444 q 143 454 121 454 q 121 444 135 440 q 122 440 122 429 q 122 418 134 413 q 145 408 157 408 z m 494 448 q 473 448 456 437 q 438 426 438 407 q 438 403 444 400 q 449 398 450 397 q 433 394 421 378 q 409 363 400 346 q 392 330 388 324 l 401 316 q 394 310 382 309 q 371 308 369 308 q 353 307 344 304 q 336 301 333 292 l 340 286 q 342 287 354 289 q 367 291 370 292 l 388 291 l 388 286 q 349 264 349 247 q 389 247 414 268 q 438 289 438 329 q 428 324 419 324 q 421 324 426 328 q 432 333 432 336 q 432 338 428 344 q 425 350 425 354 l 446 348 q 458 348 458 373 l 438 373 q 441 375 456 389 q 471 403 482 419 q 494 435 494 448 z m 592 429 l 616 421 l 616 442 q 609 442 600 440 q 591 437 591 431 q 591 429 592 429 z m 259 427 q 262 427 268 430 q 274 434 277 434 l 259 434 z m 276 416 l 296 416 l 296 430 q 276 430 276 416 z m 592 410 l 598 404 q 606 408 606 417 q 598 417 592 410 z m 155 384 q 155 385 153 391 l 117 410 l 111 394 l 129 394 q 126 384 111 378 q 112 372 125 372 q 136 372 146 376 q 155 379 155 384 z m 277 391 q 282 391 290 394 q 298 398 298 404 l 270 404 q 270 400 272 396 q 274 391 277 391 z m 623 370 l 623 404 q 614 404 606 399 q 597 394 597 386 q 597 376 604 373 q 611 370 623 370 z m 281 371 q 311 371 320 386 q 318 391 309 391 q 298 391 290 386 q 281 380 281 371 z m 104 347 q 108 347 116 349 q 124 351 129 354 q 128 361 118 361 l 104 360 z m 605 341 q 609 342 620 344 q 630 347 630 350 q 630 361 611 361 l 605 360 z m 303 346 q 312 346 318 348 q 324 351 326 360 l 283 360 l 282 356 q 282 349 286 348 q 291 346 299 346 z m 309 329 l 320 328 q 330 328 335 330 q 340 331 344 336 q 343 339 340 342 q 336 346 333 348 l 330 349 q 327 349 320 342 q 313 335 309 329 z m 149 336 q 149 345 142 348 q 137 347 122 342 q 108 336 104 329 l 142 324 q 147 324 148 327 q 149 330 149 336 z m 611 316 q 615 314 622 312 q 630 311 635 311 q 644 311 644 337 q 633 337 622 333 q 610 329 610 320 z m 99 298 q 102 298 115 304 q 128 309 135 311 q 134 313 130 314 q 126 316 124 316 q 117 316 108 314 q 99 313 99 311 z m 320 302 q 328 302 336 306 q 343 310 344 316 l 320 316 z m 616 305 l 616 285 q 624 285 631 288 q 638 292 642 298 q 638 299 630 302 q 621 305 616 305 z m 142 295 q 142 298 138 298 q 123 298 115 296 q 107 293 107 281 q 116 281 129 284 q 142 286 142 295 z m 340 268 q 346 268 350 272 q 354 275 354 281 q 339 281 339 270 z m 642 244 l 642 281 q 631 281 616 266 q 616 244 642 244 z m 136 240 q 136 259 132 266 q 128 274 118 276 q 109 277 85 277 q 86 267 88 254 q 90 240 92 230 q 94 227 102 220 q 110 214 111 212 q 111 209 106 202 q 101 194 99 194 q 121 194 128 206 q 136 219 136 240 z m 364 230 q 367 230 372 234 q 376 238 377 240 l 376 242 q 372 242 367 240 q 362 237 362 235 q 362 234 363 233 q 364 232 364 230 z m 623 238 l 623 230 q 632 230 635 238 z m 395 230 l 391 231 q 374 224 374 209 q 381 209 385 214 q 389 218 392 223 q 394 228 395 230 z m 648 192 l 648 230 q 638 227 630 220 q 623 213 623 203 q 623 195 630 194 q 637 192 648 192 z m 125 163 l 124 181 l 111 175 l 111 183 q 93 183 89 166 q 85 149 85 106 q 106 106 116 124 q 125 141 125 163 z m 648 181 l 630 181 l 630 163 z m 626 138 l 654 138 l 654 164 q 644 164 635 156 q 626 148 626 138 z m 630 125 l 630 118 q 645 118 648 125 z m 667 51 q 667 68 663 91 q 659 114 651 114 q 645 114 638 109 q 630 104 630 98 q 630 91 636 64 q 641 38 642 33 q 657 35 662 38 q 667 42 667 51 z m 112 53 l 111 76 l 100 76 l 99 82 q 103 94 104 95 q 87 95 80 77 q 74 59 74 39 q 74 30 82 26 q 89 21 99 21 q 112 21 112 53 z"},"g":{"x_min":0,"x_max":492,"ha":492,"o":"m 528 -80 q 528 -104 514 -128 q 499 -152 477 -167 l 477 -166 q 473 -166 443 -190 q 436 -195 419 -208 q 402 -220 397 -222 q 374 -230 349 -232 q 324 -235 291 -235 q 234 -235 184 -220 q 133 -204 76 -173 l 76 -164 q 61 -164 47 -140 q 33 -115 33 -96 q 33 -64 52 -21 q 70 22 95 37 q 92 43 84 56 q 75 70 75 82 q 75 101 86 128 q 96 156 96 172 q 96 187 90 198 q 83 209 69 224 q 51 242 42 260 q 32 277 32 305 q 32 352 58 391 q 84 430 126 452 q 168 475 215 475 l 231 474 q 232 482 248 485 q 265 488 279 488 q 297 488 324 477 q 327 476 340 472 q 352 468 362 468 q 372 468 382 473 q 391 478 393 479 q 411 489 421 489 l 434 488 q 431 484 427 476 q 423 469 421 463 q 421 454 426 452 q 432 449 442 449 q 455 449 461 453 q 467 457 471 457 q 485 452 485 435 q 485 423 474 420 q 463 416 444 416 l 427 416 q 403 416 403 408 q 403 390 419 356 q 434 324 434 308 q 434 303 431 300 q 428 298 428 296 q 428 291 431 282 q 434 273 434 272 q 434 258 428 242 q 421 226 421 209 q 412 167 387 151 q 362 135 325 127 q 309 123 302 120 q 294 117 292 111 q 234 104 211 104 l 193 105 q 204 87 230 78 q 255 70 291 65 q 308 63 316 61 q 320 52 332 50 q 343 47 363 46 q 384 46 391 43 q 410 36 444 14 q 477 -7 502 -33 q 528 -59 528 -80 z m 228 452 q 229 450 246 447 q 264 444 273 444 l 311 445 l 311 431 q 320 424 334 409 q 349 394 353 388 q 357 382 358 372 q 359 362 361 358 q 363 353 372 352 l 366 339 l 395 339 q 395 351 390 360 q 384 369 373 381 q 371 384 365 391 q 359 398 359 404 q 362 415 388 423 q 403 429 410 434 q 416 438 416 446 q 415 447 412 456 q 408 466 403 468 l 397 457 l 340 431 q 337 434 332 440 q 327 447 320 452 q 314 456 305 457 l 272 456 q 243 456 236 463 q 233 460 231 456 q 229 453 228 452 z m 81 364 q 150 371 150 394 q 150 398 149 400 l 181 439 q 161 439 146 430 q 132 420 108 400 q 96 387 81 376 z m 149 287 q 149 253 156 236 q 162 218 180 210 q 197 203 231 203 q 280 203 314 230 q 348 258 348 310 q 348 353 317 384 q 286 415 243 415 l 212 414 q 182 395 166 360 q 149 324 149 287 z m 120 345 q 120 335 113 332 q 106 328 93 326 q 80 323 76 321 l 125 321 l 138 358 q 135 358 116 358 q 97 358 81 352 q 89 349 102 347 q 115 345 120 345 z m 76 339 l 64 333 l 76 333 z m 394 323 q 388 323 380 315 q 372 307 372 302 q 373 299 375 293 q 377 287 379 283 q 383 283 386 286 q 390 289 395 289 q 395 287 396 286 q 397 285 397 284 q 397 283 384 276 q 371 269 371 262 q 379 250 384 245 q 388 240 397 240 q 410 240 410 276 q 410 323 394 323 z m 80 308 q 71 308 67 306 q 63 303 63 294 q 89 294 107 308 l 88 308 z m 120 272 l 120 296 q 115 293 105 286 q 95 280 88 277 z m 116 259 l 76 259 q 80 251 84 249 q 87 247 95 247 q 103 247 110 250 q 116 252 116 259 z m 382 233 q 380 235 374 240 q 368 244 366 248 q 348 230 348 222 q 356 213 367 206 q 378 199 384 197 q 387 197 392 205 q 396 213 397 216 q 398 221 394 224 q 390 228 382 233 z m 341 204 q 316 204 316 182 q 316 159 328 159 q 336 159 344 164 q 353 168 360 173 q 360 191 358 198 q 355 204 341 204 z m 312 153 q 312 158 308 163 q 303 168 303 172 q 303 173 305 179 q 295 171 258 169 q 236 167 227 165 q 218 163 218 157 q 218 145 222 143 q 227 141 244 141 q 277 141 277 154 l 267 154 q 267 154 273 160 q 280 160 292 156 q 303 153 312 153 z m 208 168 q 190 168 157 154 q 166 146 172 144 q 179 142 190 142 q 202 142 205 148 q 208 153 208 168 z m 120 122 q 126 122 131 129 l 120 129 z m 95 92 q 98 81 106 74 q 114 67 125 67 q 150 67 150 78 q 150 87 130 90 q 110 92 95 92 z m 81 -56 l 76 -62 l 102 -62 q 102 -58 98 -53 q 95 -48 95 -42 q 95 -35 117 -14 q 139 6 162 24 q 146 24 126 13 q 105 2 90 -16 q 76 -33 76 -50 q 77 -52 78 -54 q 80 -55 81 -56 z m 428 -80 q 428 -69 422 -66 q 417 -62 407 -62 q 391 -62 386 -58 q 382 -55 381 -45 q 380 -35 372 -31 q 286 0 211 0 q 185 0 158 -14 q 131 -29 131 -53 q 131 -80 143 -92 q 155 -103 180 -114 q 199 -121 212 -130 l 353 -130 q 374 -130 401 -114 q 428 -98 428 -80 z m 434 -24 q 434 -27 437 -30 q 440 -32 442 -32 q 449 -32 453 -24 q 447 -18 442 -18 q 441 -19 438 -21 q 434 -23 434 -24 z m 70 -74 l 70 -87 q 74 -87 82 -85 q 91 -83 100 -81 q 94 -76 86 -75 q 77 -74 70 -74 z m 496 -86 l 481 -85 q 471 -85 467 -90 q 463 -96 458 -106 z m 70 -106 l 114 -106 q 114 -92 98 -92 q 78 -92 70 -106 z m 95 -135 q 114 -129 120 -124 q 118 -122 114 -120 q 110 -117 107 -117 q 101 -118 92 -120 q 82 -122 76 -124 l 75 -127 q 75 -135 95 -135 z m 464 -135 q 444 -130 440 -130 q 438 -130 436 -132 q 434 -134 434 -135 q 434 -139 441 -144 q 448 -148 453 -148 q 456 -146 460 -142 q 463 -138 464 -135 z m 428 -160 l 415 -155 q 422 -148 422 -145 l 421 -143 q 394 -160 321 -160 q 299 -160 255 -158 q 222 -155 189 -155 q 186 -155 176 -158 q 167 -160 162 -160 q 158 -159 154 -152 q 149 -144 145 -140 q 141 -135 131 -135 q 126 -135 100 -148 q 108 -160 128 -167 q 149 -174 174 -179 q 176 -177 180 -175 q 184 -173 187 -173 q 188 -173 193 -179 q 198 -185 200 -186 q 210 -186 220 -190 q 230 -194 232 -195 q 245 -202 255 -204 q 262 -203 262 -186 q 271 -192 271 -192 q 272 -192 274 -190 q 276 -189 281 -189 q 281 -199 282 -202 q 284 -204 293 -204 q 312 -204 352 -194 q 391 -184 391 -173 q 391 -175 395 -177 q 399 -179 402 -179 q 407 -177 418 -170 q 428 -163 428 -160 z"},"j":{"x_min":0,"x_max":283,"ha":283,"o":"m 53 636 q 53 658 73 665 q 93 672 121 672 l 125 672 q 145 672 146 664 q 152 598 152 590 q 152 568 142 562 q 132 557 120 558 q 108 558 104 558 q 83 558 70 563 q 58 568 54 585 z m 78 621 l 97 640 q 95 648 72 648 q 72 627 78 621 z m 121 588 l 121 642 q 109 642 100 630 q 90 618 90 605 q 90 594 98 591 q 107 588 121 588 z m 11 -138 q 17 -138 21 -134 q 25 -130 30 -121 q 42 -103 54 -93 l 50 16 l 47 461 q 47 474 93 474 l 140 473 q 152 463 156 449 q 159 435 159 415 q 159 360 154 317 q 152 297 152 289 q 153 286 155 282 q 157 278 158 276 q 158 270 157 268 q 156 266 152 264 l 152 128 q 159 126 159 116 q 159 105 152 103 q 156 88 164 48 q 171 7 171 -2 l 164 -7 q 164 -14 168 -29 q 172 -44 172 -78 q 172 -92 166 -105 q 161 -118 140 -149 q 139 -148 122 -164 q 91 -195 78 -199 q 64 -204 45 -208 q 26 -212 13 -212 q -14 -212 -14 -193 l -14 -138 q -14 -135 -11 -132 q -8 -130 -6 -130 q -4 -130 2 -134 q 7 -138 11 -138 z m 78 437 l 78 411 q 95 411 114 414 q 134 418 134 426 q 134 435 131 439 q 128 443 119 443 q 110 443 98 441 q 85 439 78 437 z m 72 380 q 93 380 116 405 l 106 406 q 89 406 80 400 q 72 395 72 380 z m 84 363 l 84 356 q 87 357 110 362 q 134 366 134 368 l 134 401 q 123 401 104 386 q 84 370 84 363 z m 84 257 q 88 260 93 266 q 98 273 101 277 q 110 290 117 298 q 124 305 134 306 l 134 344 l 116 344 l 116 351 q 108 351 93 346 q 78 342 78 338 l 84 319 q 88 322 94 326 q 101 330 104 331 q 109 331 109 325 q 105 320 98 312 q 90 303 84 298 l 109 298 q 95 298 86 290 q 78 283 78 270 q 78 267 81 262 q 84 258 84 257 z m 96 183 q 117 183 126 191 q 134 199 134 221 q 127 221 118 216 q 110 211 103 205 q 96 199 90 195 q 90 201 94 206 q 98 211 103 215 q 115 225 122 235 q 128 245 128 264 l 128 289 q 94 258 84 239 q 110 245 121 245 q 78 225 78 206 q 78 194 82 188 q 85 183 96 183 z m 90 121 q 97 121 113 126 q 129 132 129 143 q 129 159 120 159 l 116 158 q 123 165 128 177 l 121 177 q 106 177 89 172 q 72 166 72 153 q 72 141 76 131 q 81 121 90 121 z m 109 147 q 100 137 90 134 q 91 135 96 141 q 102 147 106 147 z m 78 103 l 78 70 q 91 70 110 89 q 129 108 129 123 q 126 122 102 114 q 78 106 78 103 z m 3 -172 q 4 -175 7 -180 q 10 -184 10 -187 q 12 -185 17 -179 q 22 -173 26 -173 q 29 -173 36 -180 q 74 -173 110 -154 q 146 -134 146 -101 q 146 -97 142 -95 q 137 -93 134 -93 q 150 -90 150 -48 l 150 -42 q 141 -43 136 -46 q 130 -49 121 -57 q 128 -49 137 -36 q 146 -22 146 -20 q 146 -15 144 -6 q 142 3 140 5 l 137 6 q 130 6 121 -4 q 112 -14 103 -14 l 140 23 q 140 51 139 66 q 138 80 131 98 q 123 98 114 89 q 105 80 92 64 q 79 48 78 48 l 97 48 l 78 30 l 81 29 q 90 29 94 33 q 99 37 104 45 q 108 53 111 56 q 114 59 121 60 l 121 48 l 84 10 l 84 5 q 93 5 102 8 q 112 10 116 10 q 113 7 104 2 q 96 -3 90 -8 q 84 -12 84 -17 q 84 -23 88 -32 q 92 -40 92 -45 l 103 -45 q 96 -48 92 -55 q 87 -62 87 -69 l 103 -69 q 91 -80 80 -102 q 74 -115 66 -124 q 59 -133 41 -144 q 31 -150 18 -159 q 4 -168 4 -171 q 3 -171 3 -172 q 3 -172 3 -172 z"},"i":{"x_min":0,"x_max":245,"ha":245,"o":"m 136 676 q 144 676 156 672 q 167 667 167 663 l 167 589 q 167 576 149 576 q 125 576 96 580 q 68 584 68 595 l 68 658 l 81 669 q 82 671 102 674 q 122 676 136 676 z m 107 614 q 125 614 132 617 q 140 620 140 632 q 140 637 136 645 q 133 644 128 641 q 124 638 118 638 l 125 645 l 90 645 q 90 635 94 624 q 98 614 107 614 z m 75 46 q 61 104 57 168 q 53 231 53 318 l 53 350 q 53 413 64 446 q 75 479 112 479 q 149 479 162 448 q 176 416 176 366 q 176 311 168 245 q 161 194 161 155 q 161 130 165 82 q 166 70 167 53 q 168 36 168 13 q 168 -3 155 -3 q 143 -1 124 3 q 106 7 93 10 q 91 17 84 27 q 77 37 75 46 z m 103 416 q 143 416 143 428 q 143 440 140 444 q 138 448 131 448 q 129 448 122 444 q 115 441 112 441 q 110 441 107 444 q 104 448 99 448 q 92 448 88 446 q 85 443 81 435 q 89 427 96 427 l 99 428 l 93 416 z m 80 387 q 80 385 82 382 q 85 380 87 380 q 96 380 109 394 q 122 407 125 410 l 121 410 q 113 410 97 405 q 81 400 81 388 z m 93 362 q 107 367 125 367 q 134 367 138 369 q 142 371 144 380 q 145 388 145 408 q 119 408 93 362 z m 87 318 q 109 330 130 354 l 121 355 q 105 355 93 348 q 81 340 81 325 q 81 323 84 320 q 86 318 87 318 z m 106 312 l 115 311 q 122 311 132 312 q 143 314 143 318 l 143 348 q 116 334 106 312 z m 151 299 l 143 299 l 106 262 l 106 255 q 151 255 151 299 z m 86 277 l 87 267 l 112 293 l 106 294 q 86 294 86 277 z m 82 217 q 93 217 106 226 q 119 234 119 245 q 106 245 94 237 q 82 229 82 217 z m 87 194 l 136 194 q 142 194 144 206 q 145 219 145 238 l 136 238 q 132 236 114 220 q 97 204 87 194 z m 93 157 l 125 182 l 125 188 q 87 183 87 170 q 87 157 93 157 z m 137 176 l 130 176 l 93 139 l 93 131 q 118 131 128 141 q 137 151 137 176 z m 99 96 l 125 120 l 115 121 q 96 121 93 108 q 93 105 95 102 q 97 98 99 96 z m 139 36 q 139 45 134 52 q 128 58 128 59 q 128 59 134 62 q 140 65 140 108 l 125 108 q 123 108 110 92 q 98 76 98 72 l 98 71 l 125 71 l 93 52 q 97 41 110 38 q 122 36 139 36 z"},"y":{"x_min":0,"x_max":565,"ha":565,"o":"m 463 388 q 462 384 458 369 q 453 354 448 346 q 444 338 438 338 q 440 338 442 334 q 445 330 446 328 l 436 308 q 433 302 430 296 q 428 290 426 288 l 417 288 l 418 270 q 418 267 415 266 q 412 265 405 265 q 405 238 396 208 q 387 177 371 134 q 356 93 352 79 q 330 59 323 40 q 316 20 313 -8 q 311 -28 308 -40 q 305 -52 296 -63 q 285 -74 282 -80 q 279 -85 278 -92 q 276 -99 272 -106 l 272 -94 q 266 -98 260 -110 q 254 -121 254 -125 q 260 -127 260 -137 q 260 -141 229 -187 q 198 -233 191 -236 q 183 -237 170 -239 q 156 -241 149 -242 q 145 -242 138 -246 q 131 -249 125 -249 q 125 -244 121 -239 q 117 -234 117 -229 l 117 -223 q 127 -193 141 -163 q 164 -107 174 -73 q 185 -39 185 -4 q 185 7 180 22 q 174 38 167 42 l 123 141 l 109 177 q 42 357 31 375 q -1 429 -1 461 q -1 467 22 470 q 45 474 62 474 q 77 474 91 469 q 105 464 105 455 q 149 339 216 215 q 221 198 242 171 q 250 161 256 150 q 263 139 265 128 q 298 190 334 280 q 370 369 383 430 q 387 452 394 457 q 402 462 426 462 q 456 462 469 454 q 482 447 482 418 l 475 424 q 471 419 468 406 q 464 392 463 388 z m 41 416 q 42 415 47 406 q 52 397 52 384 q 100 384 100 405 q 100 417 86 426 q 73 436 56 442 q 38 447 29 447 q 29 434 41 416 z m 423 349 q 450 408 450 419 q 450 426 448 428 q 447 431 441 431 q 426 431 407 412 q 427 405 427 397 q 427 391 419 387 q 420 388 420 390 q 420 394 417 398 q 414 401 411 401 q 408 401 404 397 q 400 393 399 392 q 400 390 404 387 q 407 384 407 381 q 407 378 404 374 q 402 369 401 369 l 413 363 q 400 363 392 358 q 383 353 383 342 q 383 337 389 331 q 374 320 374 313 l 407 313 q 408 313 410 318 q 413 322 413 325 q 418 334 423 349 z m 90 294 q 106 294 118 312 q 131 329 131 345 q 131 355 128 359 q 125 363 115 363 q 111 363 99 356 q 99 359 102 363 q 105 367 105 369 q 105 372 102 376 q 99 381 96 381 q 89 381 74 378 q 59 375 59 371 q 59 350 77 342 q 95 335 123 331 l 79 331 q 79 294 90 294 z m 99 276 l 117 275 q 126 275 140 279 q 154 283 162 283 q 162 291 153 305 q 144 319 139 319 q 131 319 118 304 q 105 288 99 276 z m 396 288 l 376 288 l 389 301 l 380 301 q 364 301 360 287 q 356 273 356 251 q 374 251 385 261 q 396 271 396 288 z m 161 269 q 158 263 151 255 q 144 247 140 240 q 135 233 135 225 q 179 225 179 236 q 179 247 174 256 q 170 265 161 269 z m 123 257 l 120 258 q 114 258 112 252 q 111 247 111 239 q 119 246 123 257 z m 364 233 q 364 236 366 240 q 369 245 371 246 l 352 246 q 347 237 336 212 q 324 188 314 165 q 309 153 306 136 q 302 119 302 108 q 302 96 310 96 l 314 97 q 299 93 288 85 q 278 77 264 63 q 262 61 253 52 q 244 44 235 38 q 226 32 216 29 l 216 23 l 272 42 q 275 42 280 38 q 285 34 285 32 l 284 29 l 216 -39 q 257 -39 272 -24 q 286 -8 293 17 q 300 42 303 51 q 303 54 296 57 q 289 60 284 60 q 313 70 326 88 q 339 106 339 137 q 339 145 332 150 l 352 150 l 352 183 q 344 184 342 186 q 339 188 339 191 q 339 193 340 196 q 341 200 341 205 q 343 205 351 200 q 359 195 362 195 q 364 197 368 206 q 371 215 371 222 q 371 226 364 233 z m 154 215 l 152 215 q 142 215 136 206 q 130 197 130 190 q 140 194 146 200 q 151 205 154 215 z m 204 193 q 204 196 199 202 q 194 208 191 208 q 184 208 175 199 q 166 190 166 182 l 179 181 q 204 181 204 193 z m 179 153 q 163 153 154 147 l 161 134 z m 210 153 l 191 128 l 199 128 q 223 128 223 140 q 223 145 220 149 q 218 153 213 153 z m 241 105 q 232 105 224 99 q 216 93 216 85 q 239 89 247 104 z m 241 73 l 238 73 q 232 71 220 66 q 207 60 197 54 q 197 53 200 50 q 202 48 204 48 q 211 48 224 57 q 236 66 241 73 z m 223 -1 q 226 -1 230 3 q 235 7 235 10 q 235 11 234 11 q 234 11 234 11 q 231 11 227 7 q 223 3 222 0 q 222 -1 223 -1 z m 272 -50 l 265 -50 q 264 -49 240 -61 q 216 -73 216 -75 l 216 -84 q 239 -84 246 -83 q 254 -82 259 -76 q 264 -69 272 -50 z m 204 -63 l 206 -64 q 209 -64 214 -62 q 220 -59 223 -57 l 216 -56 q 206 -56 204 -63 z m 178 -132 q 181 -132 196 -123 q 211 -114 228 -100 l 228 -93 q 210 -93 194 -103 q 178 -113 178 -132 z m 241 -106 q 222 -114 208 -122 q 195 -129 195 -137 l 210 -137 q 207 -144 198 -146 q 190 -149 188 -150 q 177 -153 172 -156 q 166 -160 166 -167 q 166 -172 167 -174 q 199 -157 220 -142 q 240 -127 241 -106 z m 223 -149 q 217 -153 196 -165 q 175 -177 173 -180 q 176 -182 178 -185 q 179 -188 179 -189 q 179 -195 164 -204 q 148 -212 139 -212 q 139 -217 155 -222 q 162 -217 167 -217 q 169 -217 176 -220 q 183 -222 185 -223 l 223 -168 z"}}}
